Todbhobo Sans.ufo
<glyph name="exclam" format="2">
  <advance width="326"/>
  <unicode hex="0021"/>
  <outline>
    <contour>
      <point x="215" y="434" type="line"/>
      <point x="110" y="434" type="line"/>
      <point x="105" y="1309" type="line"/>
      <point x="221" y="1309" type="line"/>
    </contour>
    <contour>
      <point x="97" y="175" type="qcurve" smooth="yes"/>
      <point x="97" y="207"/>
      <point x="133" y="253"/>
      <point x="200" y="253"/>
      <point x="236" y="207"/>
      <point x="236" y="175" type="qcurve" smooth="yes"/>
      <point x="236" y="144"/>
      <point x="200" y="99"/>
      <point x="133" y="99"/>
      <point x="97" y="144"/>
    </contour>
  </outline>
</glyph>
<glyph name="quotedbl" format="2">
  <advance width="437"/>
  <unicode hex="0022"/>
  <outline>
    <contour>
      <point x="196" y="1248" type="line"/>
      <point x="180" y="981" type="line"/>
      <point x="92" y="981" type="line"/>
      <point x="94" y="1374" type="line"/>
      <point x="196" y="1374" type="line"/>
    </contour>
    <contour>
      <point x="371" y="1248" type="line"/>
      <point x="356" y="981" type="line"/>
      <point x="267" y="981" type="line"/>
      <point x="270" y="1374" type="line"/>
      <point x="371" y="1374" type="line"/>
    </contour>
  </outline>
</glyph>
<glyph name="numbersign" format="2">
  <advance width="784"/>
  <unicode hex="0023"/>
  <outline>
    <contour>
      <point x="471" y="437" type="line"/>
      <point x="310" y="437" type="line"/>
      <point x="261" y="105" type="line"/>
      <point x="165" y="105" type="line"/>
      <point x="213" y="437" type="line"/>
      <point x="58" y="437" type="line"/>
      <point x="58" y="539" type="line"/>
      <point x="228" y="539" type="line"/>
      <point x="277" y="868" type="line"/>
      <point x="106" y="868" type="line"/>
      <point x="106" y="972" type="line"/>
      <point x="291" y="972" type="line"/>
      <point x="341" y="1309" type="line"/>
      <point x="438" y="1309" type="line"/>
      <point x="388" y="972" type="line"/>
      <point x="550" y="972" type="line"/>
      <point x="600" y="1309" type="line"/>
      <point x="697" y="1309" type="line"/>
      <point x="647" y="972" type="line"/>
      <point x="785" y="972" type="line"/>
      <point x="785" y="868" type="line"/>
      <point x="631" y="868" type="line"/>
      <point x="583" y="539" type="line"/>
      <point x="738" y="539" type="line"/>
      <point x="738" y="437" type="line"/>
      <point x="568" y="437" type="line"/>
      <point x="520" y="105" type="line"/>
      <point x="423" y="105" type="line"/>
    </contour>
    <contour>
      <point x="324" y="539" type="line"/>
      <point x="486" y="539" type="line"/>
      <point x="535" y="868" type="line"/>
      <point x="373" y="868" type="line"/>
    </contour>
  </outline>
</glyph>
<glyph name="dollar" format="2">
  <advance width="744"/>
  <unicode hex="0024"/>
  <outline>
    <contour>
      <point x="560" y="408" type="qcurve" smooth="yes"/>
      <point x="560" y="495"/>
      <point x="476" y="602"/>
      <point x="369" y="651" type="qcurve" smooth="yes"/>
      <point x="221" y="713"/>
      <point x="106" y="877"/>
      <point x="106" y="1004" type="qcurve" smooth="yes"/>
      <point x="106" y="1139"/>
      <point x="237" y="1312"/>
      <point x="337" y="1323" type="qcurve"/>
      <point x="337" y="1489" type="line"/>
      <point x="436" y="1489" type="line"/>
      <point x="436" y="1322" type="line"/>
      <point x="539" y="1309"/>
      <point x="665" y="1116"/>
      <point x="665" y="937" type="qcurve"/>
      <point x="554" y="937" type="line"/>
      <point x="554" y="1071"/>
      <point x="462" y="1213"/>
      <point x="384" y="1213" type="qcurve" smooth="yes"/>
      <point x="307" y="1213"/>
      <point x="217" y="1101"/>
      <point x="217" y="1005" type="qcurve" smooth="yes"/>
      <point x="217" y="915"/>
      <point x="301" y="810"/>
      <point x="520" y="713"/>
      <point x="622" y="620"/>
      <point x="672" y="496"/>
      <point x="672" y="410" type="qcurve" smooth="yes"/>
      <point x="672" y="275"/>
      <point x="537" y="103"/>
      <point x="431" y="92" type="qcurve"/>
      <point x="431" y="-63" type="line"/>
      <point x="334" y="-63" type="line"/>
      <point x="334" y="91" type="line"/>
      <point x="215" y="103"/>
      <point x="73" y="296"/>
      <point x="73" y="469" type="qcurve"/>
      <point x="185" y="469" type="line"/>
      <point x="185" y="335"/>
      <point x="288" y="200"/>
      <point x="378" y="200" type="qcurve" smooth="yes"/>
      <point x="460" y="200"/>
      <point x="560" y="315"/>
    </contour>
  </outline>
</glyph>
<glyph name="percent" format="2">
  <advance width="976"/>
  <unicode hex="0025"/>
  <outline>
    <contour>
      <point x="68" y="1070" type="line" smooth="yes"/>
      <point x="68" y="1178"/>
      <point x="175" y="1326"/>
      <point x="262" y="1326" type="qcurve" smooth="yes"/>
      <point x="348" y="1326"/>
      <point x="457" y="1179"/>
      <point x="457" y="1066" type="qcurve" smooth="yes"/>
      <point x="457" y="1008" type="line" smooth="yes"/>
      <point x="457" y="901"/>
      <point x="350" y="753"/>
      <point x="177" y="753"/>
      <point x="68" y="899"/>
      <point x="68" y="1012" type="qcurve" smooth="yes"/>
    </contour>
    <contour>
      <point x="163" y="1008" type="line" smooth="yes"/>
      <point x="163" y="937"/>
      <point x="219" y="849"/>
      <point x="264" y="849" type="qcurve" smooth="yes"/>
      <point x="307" y="849"/>
      <point x="362" y="938"/>
      <point x="362" y="1012" type="qcurve" smooth="yes"/>
      <point x="362" y="1070" type="line" smooth="yes"/>
      <point x="362" y="1140"/>
      <point x="306" y="1230"/>
      <point x="262" y="1230" type="qcurve" smooth="yes"/>
      <point x="219" y="1230"/>
      <point x="163" y="1140"/>
      <point x="163" y="1067" type="qcurve" smooth="yes"/>
    </contour>
    <contour>
      <point x="524" y="407" type="line" smooth="yes"/>
      <point x="524" y="514"/>
      <point x="631" y="662"/>
      <point x="803" y="662"/>
      <point x="913" y="516"/>
      <point x="913" y="401" type="qcurve" smooth="yes"/>
      <point x="913" y="343" type="line" smooth="yes"/>
      <point x="913" y="234"/>
      <point x="803" y="88"/>
      <point x="719" y="88" type="qcurve" smooth="yes"/>
      <point x="634" y="88"/>
      <point x="524" y="234"/>
      <point x="524" y="348" type="qcurve" smooth="yes"/>
    </contour>
    <contour>
      <point x="618" y="343" type="line" smooth="yes"/>
      <point x="618" y="273"/>
      <point x="675" y="184"/>
      <point x="719" y="184" type="qcurve" smooth="yes"/>
      <point x="762" y="184"/>
      <point x="818" y="272"/>
      <point x="818" y="347" type="qcurve" smooth="yes"/>
      <point x="818" y="407" type="line" smooth="yes"/>
      <point x="818" y="481"/>
      <point x="763" y="565"/>
      <point x="717" y="565" type="qcurve" smooth="yes"/>
      <point x="674" y="565"/>
      <point x="618" y="481"/>
      <point x="618" y="403" type="qcurve" smooth="yes"/>
    </contour>
    <contour>
      <point x="293" y="194" type="line"/>
      <point x="220" y="251" type="line"/>
      <point x="677" y="1197" type="line"/>
      <point x="750" y="1140" type="line"/>
    </contour>
  </outline>
</glyph>
<glyph name="ampersand" format="2">
  <advance width="820"/>
  <unicode hex="0026"/>
  <outline>
    <contour>
      <point x="250" y="761" type="qcurve"/>
      <point x="194" y="847"/>
      <point x="147" y="981"/>
      <point x="147" y="1044" type="qcurve" smooth="yes"/>
      <point x="147" y="1173"/>
      <point x="270" y="1325"/>
      <point x="374" y="1325" type="qcurve" smooth="yes"/>
      <point x="469" y="1325"/>
      <point x="588" y="1186"/>
      <point x="588" y="1081" type="qcurve" smooth="yes"/>
      <point x="588" y="960"/>
      <point x="486" y="850" type="qcurve"/>
      <point x="387" y="752" type="line"/>
      <point x="612" y="411" type="line"/>
      <point x="653" y="501"/>
      <point x="653" y="658" type="qcurve"/>
      <point x="758" y="658" type="line"/>
      <point x="758" y="441"/>
      <point x="680" y="309" type="qcurve"/>
      <point x="814" y="105" type="line"/>
      <point x="681" y="105" type="line"/>
      <point x="612" y="209" type="line"/>
      <point x="575" y="162"/>
      <point x="440" y="89"/>
      <point x="366" y="89" type="qcurve" smooth="yes"/>
      <point x="229" y="89"/>
      <point x="67" y="271"/>
      <point x="67" y="419" type="qcurve" smooth="yes"/>
      <point x="67" y="506"/>
      <point x="147" y="663"/>
    </contour>
    <contour>
      <point x="366" y="197" type="qcurve" smooth="yes"/>
      <point x="472" y="197"/>
      <point x="551" y="302" type="qcurve"/>
      <point x="304" y="678" type="line"/>
      <point x="307" y="674" type="line"/>
      <point x="293" y="660" type="line"/>
      <point x="178" y="537"/>
      <point x="178" y="419" type="qcurve" smooth="yes"/>
      <point x="178" y="316"/>
      <point x="281" y="197"/>
    </contour>
    <contour>
      <point x="258" y="1047" type="qcurve" smooth="yes"/>
      <point x="258" y="955"/>
      <point x="330" y="840" type="qcurve"/>
      <point x="395" y="904" type="line" smooth="yes"/>
      <point x="433" y="940"/>
      <point x="481" y="1024"/>
      <point x="481" y="1081" type="qcurve" smooth="yes"/>
      <point x="481" y="1141"/>
      <point x="421" y="1217"/>
      <point x="374" y="1217" type="qcurve" smooth="yes"/>
      <point x="324" y="1217"/>
      <point x="258" y="1126"/>
    </contour>
  </outline>
</glyph>
<glyph name="quotesingle" format="2">
  <advance width="259"/>
  <unicode hex="0027"/>
  <outline>
    <contour>
      <point x="183" y="1249" type="line"/>
      <point x="170" y="987" type="line"/>
      <point x="74" y="987" type="line"/>
      <point x="78" y="1241"/>
      <point x="78" y="1374" type="qcurve"/>
      <point x="183" y="1374" type="line"/>
    </contour>
  </outline>
</glyph>
<glyph name="parenleft" format="2">
  <advance width="445"/>
  <unicode hex="0028"/>
  <outline>
    <contour>
      <point x="87" y="594" type="qcurve" smooth="yes"/>
      <point x="87" y="777"/>
      <point x="166" y="1121"/>
      <point x="303" y="1389"/>
      <point x="397" y="1463" type="qcurve"/>
      <point x="424" y="1369" type="line"/>
      <point x="359" y="1308"/>
      <point x="258" y="1074"/>
      <point x="199" y="764"/>
      <point x="199" y="580" type="qcurve" smooth="yes"/>
      <point x="199" y="413"/>
      <point x="257" y="105"/>
      <point x="360" y="-134"/>
      <point x="424" y="-196" type="qcurve"/>
      <point x="397" y="-286" type="line"/>
      <point x="327" y="-231"/>
      <point x="221" y="-68"/>
      <point x="137" y="156"/>
      <point x="87" y="424"/>
    </contour>
  </outline>
</glyph>
<glyph name="parenright" format="2">
  <advance width="454"/>
  <unicode hex="0029"/>
  <outline>
    <contour>
      <point x="358" y="582" type="qcurve" smooth="yes"/>
      <point x="358" y="398"/>
      <point x="283" y="61"/>
      <point x="145" y="-210"/>
      <point x="47" y="-286" type="qcurve"/>
      <point x="21" y="-196" type="line"/>
      <point x="97" y="-124"/>
      <point x="153" y="25" type="qcurve" smooth="yes"/>
      <point x="246" y="271"/>
      <point x="246" y="596" type="qcurve" smooth="yes"/>
      <point x="246" y="761"/>
      <point x="187" y="1068"/>
      <point x="84" y="1313"/>
      <point x="21" y="1373" type="qcurve"/>
      <point x="47" y="1463" type="line"/>
      <point x="149" y="1383"/>
      <point x="222" y="1231" type="qcurve" smooth="yes"/>
      <point x="358" y="949"/>
    </contour>
  </outline>
</glyph>
<glyph name="asterisk" format="2">
  <advance width="650"/>
  <unicode hex="002A"/>
  <outline>
    <contour>
      <point x="250" y="921" type="line"/>
      <point x="6" y="1006" type="line"/>
      <point x="37" y="1115" type="line"/>
      <point x="279" y="1017" type="line"/>
      <point x="277" y="1309" type="line"/>
      <point x="383" y="1309" type="line"/>
      <point x="378" y="1015" type="line"/>
      <point x="614" y="1116" type="line"/>
      <point x="646" y="1007" type="line"/>
      <point x="401" y="916" type="line"/>
      <point x="565" y="682" type="line"/>
      <point x="480" y="613" type="line"/>
      <point x="324" y="853" type="line"/>
      <point x="176" y="615" type="line"/>
      <point x="91" y="682" type="line"/>
    </contour>
  </outline>
</glyph>
<glyph name="plus" format="2">
  <advance width="754"/>
  <unicode hex="002B"/>
  <outline>
    <contour>
      <point x="429" y="731" type="line"/>
      <point x="702" y="731" type="line"/>
      <point x="702" y="613" type="line"/>
      <point x="429" y="613" type="line"/>
      <point x="429" y="224" type="line"/>
      <point x="316" y="224" type="line"/>
      <point x="316" y="613" type="line"/>
      <point x="48" y="613" type="line"/>
      <point x="48" y="731" type="line"/>
      <point x="316" y="731" type="line"/>
      <point x="316" y="1106" type="line"/>
      <point x="429" y="1106" type="line"/>
    </contour>
  </outline>
</glyph>
<glyph name="comma" format="2">
  <advance width="293"/>
  <unicode hex="002C"/>
  <outline>
    <contour>
      <point x="100" y="-121" type="qcurve"/>
      <point x="28" y="-63" type="line"/>
      <point x="99" y="41"/>
      <point x="102" y="145" type="qcurve" smooth="yes"/>
      <point x="102" y="283" type="line"/>
      <point x="218" y="283" type="line"/>
      <point x="218" y="172" type="line" smooth="yes"/>
      <point x="218" y="-5"/>
    </contour>
  </outline>
</glyph>
<glyph name="hyphen" format="2">
  <advance width="394"/>
  <unicode hex="002D"/>
  <outline>
    <contour>
      <point x="359" y="583" type="line"/>
      <point x="29" y="583" type="line"/>
      <point x="29" y="691" type="line"/>
      <point x="359" y="691" type="line"/>
    </contour>
  </outline>
</glyph>
<glyph name="period" format="2">
  <advance width="365"/>
  <unicode hex="002E"/>
  <outline>
    <contour>
      <point x="94" y="177" type="qcurve" smooth="yes"/>
      <point x="94" y="209"/>
      <point x="135" y="258"/>
      <point x="209" y="258"/>
      <point x="250" y="209"/>
      <point x="250" y="177" type="qcurve" smooth="yes"/>
      <point x="250" y="144"/>
      <point x="209" y="99"/>
      <point x="135" y="99"/>
      <point x="94" y="144"/>
    </contour>
  </outline>
</glyph>
<glyph name="slash" format="2">
  <advance width="543"/>
  <unicode hex="002F"/>
  <outline>
    <contour>
      <point x="118" y="4" type="line"/>
      <point x="14" y="4" type="line"/>
      <point x="402" y="1309" type="line"/>
      <point x="505" y="1309" type="line"/>
    </contour>
  </outline>
</glyph>
<glyph name="zero" format="2">
  <advance width="742"/>
  <unicode hex="0030"/>
  <outline>
    <contour>
      <point x="667" y="610" type="line" smooth="yes"/>
      <point x="667" y="356"/>
      <point x="520" y="89"/>
      <point x="372" y="89" type="qcurve" smooth="yes"/>
      <point x="226" y="89"/>
      <point x="77" y="355"/>
      <point x="75" y="600" type="qcurve" smooth="yes"/>
      <point x="75" y="808" type="line" smooth="yes"/>
      <point x="75" y="1056"/>
      <point x="222" y="1325"/>
      <point x="370" y="1325" type="qcurve" smooth="yes"/>
      <point x="517" y="1325"/>
      <point x="665" y="1065"/>
      <point x="667" y="823" type="qcurve" smooth="yes"/>
    </contour>
    <contour>
      <point x="555" y="821" type="line" smooth="yes"/>
      <point x="555" y="1021"/>
      <point x="461" y="1217"/>
      <point x="370" y="1217" type="qcurve" smooth="yes"/>
      <point x="284" y="1217"/>
      <point x="188" y="1030"/>
      <point x="186" y="837" type="qcurve" smooth="yes"/>
      <point x="186" y="599" type="line" smooth="yes"/>
      <point x="186" y="403"/>
      <point x="283" y="197"/>
      <point x="372" y="197" type="qcurve" smooth="yes"/>
      <point x="458" y="197"/>
      <point x="553" y="392"/>
      <point x="555" y="588" type="qcurve" smooth="yes"/>
    </contour>
  </outline>
</glyph>
<glyph name="one" format="2">
  <advance width="742"/>
  <unicode hex="0031"/>
  <outline>
    <contour>
      <point x="468" y="105" type="line"/>
      <point x="355" y="105" type="line"/>
      <point x="355" y="1157" type="line"/>
      <point x="110" y="1038" type="line"/>
      <point x="110" y="1158" type="line"/>
      <point x="435" y="1313" type="line"/>
      <point x="468" y="1313" type="line"/>
    </contour>
  </outline>
</glyph>
<glyph name="two" format="2">
  <advance width="742"/>
  <unicode hex="0032"/>
  <outline>
    <contour>
      <point x="689" y="105" type="line"/>
      <point x="85" y="105" type="line"/>
      <point x="85" y="197" type="line"/>
      <point x="395" y="652" type="line" smooth="yes"/>
      <point x="472" y="767"/>
      <point x="532" y="916"/>
      <point x="532" y="987" type="qcurve" smooth="yes"/>
      <point x="532" y="1095"/>
      <point x="441" y="1217"/>
      <point x="363" y="1217" type="qcurve" smooth="yes"/>
      <point x="279" y="1217"/>
      <point x="177" y="1074"/>
      <point x="177" y="944" type="qcurve"/>
      <point x="65" y="944" type="line"/>
      <point x="65" y="1114"/>
      <point x="228" y="1325"/>
      <point x="363" y="1325" type="qcurve" smooth="yes"/>
      <point x="494" y="1325"/>
      <point x="645" y="1149"/>
      <point x="645" y="996" type="qcurve" smooth="yes"/>
      <point x="645" y="852"/>
      <point x="526" y="660" type="qcurve" smooth="yes"/>
      <point x="478" y="585" type="line"/>
      <point x="225" y="213" type="line"/>
      <point x="689" y="213" type="line"/>
    </contour>
  </outline>
</glyph>
<glyph name="three" format="2">
  <advance width="743"/>
  <unicode hex="0033"/>
  <outline>
    <contour>
      <point x="251" y="773" type="line"/>
      <point x="347" y="773" type="line" smooth="yes"/>
      <point x="431" y="773"/>
      <point x="536" y="889"/>
      <point x="536" y="989" type="qcurve" smooth="yes"/>
      <point x="536" y="1100"/>
      <point x="446" y="1217"/>
      <point x="365" y="1217" type="qcurve" smooth="yes"/>
      <point x="286" y="1217"/>
      <point x="186" y="1092"/>
      <point x="186" y="975" type="qcurve"/>
      <point x="75" y="975" type="line"/>
      <point x="75" y="1082"/>
      <point x="146" y="1235"/>
      <point x="282" y="1325"/>
      <point x="365" y="1325" type="qcurve" smooth="yes"/>
      <point x="494" y="1325"/>
      <point x="648" y="1144"/>
      <point x="648" y="986" type="qcurve" smooth="yes"/>
      <point x="648" y="896"/>
      <point x="560" y="747"/>
      <point x="510" y="723" type="qcurve"/>
      <point x="570" y="702"/>
      <point x="664" y="549"/>
      <point x="664" y="438" type="qcurve" smooth="yes"/>
      <point x="664" y="281"/>
      <point x="502" y="89"/>
      <point x="367" y="89" type="qcurve" smooth="yes"/>
      <point x="281" y="89"/>
      <point x="138" y="177"/>
      <point x="62" y="333"/>
      <point x="62" y="449" type="qcurve"/>
      <point x="174" y="449" type="line"/>
      <point x="174" y="330"/>
      <point x="282" y="197"/>
      <point x="367" y="197" type="qcurve" smooth="yes"/>
      <point x="454" y="197"/>
      <point x="552" y="317"/>
      <point x="552" y="435" type="qcurve" smooth="yes"/>
      <point x="552" y="548"/>
      <point x="447" y="663"/>
      <point x="346" y="664" type="qcurve" smooth="yes"/>
      <point x="251" y="664" type="line"/>
    </contour>
  </outline>
</glyph>
<glyph name="four" format="2">
  <advance width="741"/>
  <unicode hex="0034"/>
  <outline>
    <contour>
      <point x="578" y="510" type="line"/>
      <point x="717" y="510" type="line"/>
      <point x="717" y="402" type="line"/>
      <point x="578" y="402" type="line"/>
      <point x="578" y="105" type="line"/>
      <point x="466" y="105" type="line"/>
      <point x="466" y="402" type="line"/>
      <point x="40" y="402" type="line"/>
      <point x="40" y="474" type="line"/>
      <point x="465" y="1309" type="line"/>
      <point x="578" y="1309" type="line"/>
    </contour>
    <contour>
      <point x="175" y="510" type="line"/>
      <point x="466" y="510" type="line"/>
      <point x="466" y="1095" type="line"/>
      <point x="464" y="1091" type="line"/>
    </contour>
  </outline>
</glyph>
<glyph name="five" format="2">
  <advance width="742"/>
  <unicode hex="0035"/>
  <outline>
    <contour>
      <point x="134" y="714" type="line"/>
      <point x="181" y="1309" type="line"/>
      <point x="667" y="1309" type="line"/>
      <point x="667" y="1192" type="line"/>
      <point x="279" y="1192" type="line"/>
      <point x="252" y="842" type="line"/>
      <point x="301" y="886"/>
      <point x="402" y="886" type="qcurve" smooth="yes"/>
      <point x="535" y="886"/>
      <point x="686" y="669"/>
      <point x="686" y="493" type="qcurve" smooth="yes"/>
      <point x="686" y="306"/>
      <point x="537" y="89"/>
      <point x="397" y="89" type="qcurve" smooth="yes"/>
      <point x="270" y="89"/>
      <point x="114" y="271"/>
      <point x="103" y="440" type="qcurve"/>
      <point x="211" y="440" type="line"/>
      <point x="222" y="313"/>
      <point x="318" y="197"/>
      <point x="397" y="197" type="qcurve" smooth="yes"/>
      <point x="483" y="197"/>
      <point x="575" y="348"/>
      <point x="575" y="492" type="qcurve" smooth="yes"/>
      <point x="575" y="619"/>
      <point x="471" y="771"/>
      <point x="387" y="771" type="qcurve" smooth="yes"/>
      <point x="336" y="771"/>
      <point x="265" y="738"/>
      <point x="220" y="684" type="qcurve"/>
    </contour>
  </outline>
</glyph>
<glyph name="six" format="2">
  <advance width="742"/>
  <unicode hex="0036"/>
  <outline>
    <contour>
      <point x="557" y="1317" type="line"/>
      <point x="557" y="1206" type="line"/>
      <point x="530" y="1206" type="line" smooth="yes"/>
      <point x="380" y="1205"/>
      <point x="205" y="973"/>
      <point x="198" y="813" type="qcurve"/>
      <point x="207" y="829"/>
      <point x="327" y="904"/>
      <point x="401" y="904" type="qcurve" smooth="yes"/>
      <point x="529" y="904"/>
      <point x="677" y="680"/>
      <point x="677" y="504" type="qcurve" smooth="yes"/>
      <point x="677" y="320"/>
      <point x="521" y="89"/>
      <point x="391" y="89" type="qcurve" smooth="yes"/>
      <point x="252" y="89"/>
      <point x="82" y="341"/>
      <point x="82" y="542" type="qcurve" smooth="yes"/>
      <point x="82" y="637" type="line" smooth="yes"/>
      <point x="82" y="965"/>
      <point x="308" y="1314"/>
      <point x="523" y="1317" type="qcurve" smooth="yes"/>
    </contour>
    <contour>
      <point x="387" y="795" type="qcurve" smooth="yes"/>
      <point x="323" y="795"/>
      <point x="212" y="692"/>
      <point x="194" y="616" type="qcurve"/>
      <point x="194" y="533" type="line" smooth="yes"/>
      <point x="194" y="382"/>
      <point x="307" y="198"/>
      <point x="391" y="198" type="qcurve" smooth="yes"/>
      <point x="467" y="198"/>
      <point x="567" y="365"/>
      <point x="567" y="500" type="qcurve" smooth="yes"/>
      <point x="567" y="635"/>
      <point x="468" y="795"/>
    </contour>
  </outline>
</glyph>
<glyph name="seven" format="2">
  <advance width="743"/>
  <unicode hex="0037"/>
  <outline>
    <contour>
      <point x="680" y="1238" type="line"/>
      <point x="289" y="105" type="line"/>
      <point x="172" y="105" type="line"/>
      <point x="558" y="1200" type="line"/>
      <point x="49" y="1200" type="line"/>
      <point x="49" y="1309" type="line"/>
      <point x="680" y="1309" type="line"/>
    </contour>
  </outline>
</glyph>
<glyph name="eight" format="2">
  <advance width="741"/>
  <unicode hex="0038"/>
  <outline>
    <contour>
      <point x="653" y="993" type="qcurve" smooth="yes"/>
      <point x="653" y="901"/>
      <point x="570" y="751"/>
      <point x="518" y="723" type="qcurve"/>
      <point x="581" y="694"/>
      <point x="676" y="532"/>
      <point x="676" y="430" type="qcurve" smooth="yes"/>
      <point x="676" y="277"/>
      <point x="510" y="89"/>
      <point x="372" y="89" type="qcurve" smooth="yes"/>
      <point x="232" y="89"/>
      <point x="67" y="276"/>
      <point x="67" y="430" type="qcurve" smooth="yes"/>
      <point x="67" y="534"/>
      <point x="161" y="694"/>
      <point x="223" y="723" type="qcurve"/>
      <point x="171" y="751"/>
      <point x="89" y="900"/>
      <point x="89" y="993" type="qcurve" smooth="yes"/>
      <point x="89" y="1143"/>
      <point x="243" y="1325"/>
      <point x="371" y="1325" type="qcurve" smooth="yes"/>
      <point x="499" y="1325"/>
      <point x="653" y="1142"/>
    </contour>
    <contour>
      <point x="564" y="430" type="qcurve" smooth="yes"/>
      <point x="564" y="537"/>
      <point x="453" y="668"/>
      <point x="288" y="668"/>
      <point x="178" y="539"/>
      <point x="178" y="321"/>
      <point x="283" y="197"/>
      <point x="372" y="197" type="qcurve" smooth="yes"/>
      <point x="459" y="197"/>
      <point x="564" y="321"/>
    </contour>
    <contour>
      <point x="541" y="994" type="qcurve" smooth="yes"/>
      <point x="541" y="1092"/>
      <point x="443" y="1217"/>
      <point x="371" y="1217" type="qcurve" smooth="yes"/>
      <point x="296" y="1217"/>
      <point x="202" y="1096"/>
      <point x="202" y="994" type="qcurve" smooth="yes"/>
      <point x="202" y="891"/>
      <point x="298" y="777"/>
      <point x="444" y="777"/>
      <point x="541" y="894"/>
    </contour>
  </outline>
</glyph>
<glyph name="nine" format="2">
  <advance width="742"/>
  <unicode hex="0039"/>
  <outline>
    <contour>
      <point x="546" y="597" type="qcurve"/>
      <point x="535" y="576"/>
      <point x="411" y="492"/>
      <point x="339" y="492" type="qcurve" smooth="yes"/>
      <point x="215" y="492"/>
      <point x="64" y="723"/>
      <point x="64" y="899" type="qcurve" smooth="yes"/>
      <point x="64" y="1082"/>
      <point x="221" y="1325"/>
      <point x="355" y="1325" type="qcurve" smooth="yes"/>
      <point x="501" y="1325"/>
      <point x="659" y="1068"/>
      <point x="659" y="837" type="qcurve" smooth="yes"/>
      <point x="659" y="749" type="line" smooth="yes"/>
      <point x="659" y="424"/>
      <point x="446" y="100"/>
      <point x="226" y="97" type="qcurve" smooth="yes"/>
      <point x="189" y="97" type="line"/>
      <point x="190" y="207" type="line"/>
      <point x="228" y="207" type="line" smooth="yes"/>
      <point x="381" y="210"/>
      <point x="542" y="427"/>
    </contour>
    <contour>
      <point x="350" y="601" type="qcurve" smooth="yes"/>
      <point x="414" y="601"/>
      <point x="523" y="705"/>
      <point x="548" y="794" type="qcurve"/>
      <point x="548" y="852" type="line" smooth="yes"/>
      <point x="548" y="1024"/>
      <point x="441" y="1216"/>
      <point x="356" y="1216" type="qcurve" smooth="yes"/>
      <point x="279" y="1216"/>
      <point x="174" y="1041"/>
      <point x="174" y="903" type="qcurve" smooth="yes"/>
      <point x="174" y="771"/>
      <point x="274" y="601"/>
    </contour>
  </outline>
</glyph>
<glyph name="less" format="2">
  <advance width="685"/>
  <unicode hex="003C"/>
  <outline>
    <contour>
      <point x="176" y="648" type="line"/>
      <point x="594" y="413" type="line"/>
      <point x="594" y="279" type="line"/>
      <point x="49" y="603" type="line"/>
      <point x="49" y="695" type="line"/>
      <point x="594" y="1019" type="line"/>
      <point x="594" y="885" type="line"/>
    </contour>
  </outline>
</glyph>
<glyph name="equal" format="2">
  <advance width="738"/>
  <unicode hex="003D"/>
  <outline>
    <contour>
      <point x="645" y="776" type="line"/>
      <point x="94" y="776" type="line"/>
      <point x="94" y="888" type="line"/>
      <point x="645" y="888" type="line"/>
    </contour>
    <contour>
      <point x="645" y="443" type="line"/>
      <point x="94" y="443" type="line"/>
      <point x="94" y="555" type="line"/>
      <point x="645" y="555" type="line"/>
    </contour>
  </outline>
</glyph>
<glyph name="greater" format="2">
  <advance width="696"/>
  <unicode hex="003E"/>
  <outline>
    <contour>
      <point x="507" y="651" type="line"/>
      <point x="80" y="888" type="line"/>
      <point x="80" y="1020" type="line"/>
      <point x="639" y="697" type="line"/>
      <point x="639" y="604" type="line"/>
      <point x="80" y="281" type="line"/>
      <point x="80" y="412" type="line"/>
    </contour>
  </outline>
</glyph>
<glyph name="question" format="2">
  <advance width="616"/>
  <unicode hex="003F"/>
  <outline>
    <contour>
      <point x="234" y="433" type="line"/>
      <point x="234" y="536"/>
      <point x="272" y="658"/>
      <point x="395" y="816"/>
      <point x="431" y="883"/>
      <point x="451" y="959"/>
      <point x="451" y="1009" type="qcurve" smooth="yes"/>
      <point x="451" y="1107"/>
      <point x="375" y="1213"/>
      <point x="313" y="1213" type="qcurve" smooth="yes"/>
      <point x="248" y="1213"/>
      <point x="164" y="1110"/>
      <point x="163" y="1008" type="qcurve"/>
      <point x="52" y="1008" type="line"/>
      <point x="54" y="1157"/>
      <point x="199" y="1325"/>
      <point x="313" y="1325" type="qcurve" smooth="yes"/>
      <point x="431" y="1325"/>
      <point x="562" y="1152"/>
      <point x="562" y="1010" type="qcurve" smooth="yes"/>
      <point x="562" y="922"/>
      <point x="499" y="769"/>
      <point x="411" y="661" type="qcurve"/>
      <point x="345" y="587"/>
      <point x="345" y="433" type="qcurve"/>
    </contour>
    <contour>
      <point x="225" y="175" type="qcurve" smooth="yes"/>
      <point x="225" y="207"/>
      <point x="260" y="253"/>
      <point x="328" y="253"/>
      <point x="363" y="207"/>
      <point x="363" y="175" type="qcurve" smooth="yes"/>
      <point x="363" y="144"/>
      <point x="328" y="99"/>
      <point x="260" y="99"/>
      <point x="225" y="144"/>
    </contour>
  </outline>
</glyph>
<glyph name="at" format="2">
  <advance width="1197"/>
  <unicode hex="0040"/>
  <outline>
    <contour>
      <point x="1126" y="532" type="qcurve" smooth="yes"/>
      <point x="1122" y="407"/>
      <point x="1057" y="199"/>
      <point x="942" y="89"/>
      <point x="865" y="89" type="qcurve" smooth="yes"/>
      <point x="797" y="89"/>
      <point x="714" y="177"/>
      <point x="709" y="206" type="qcurve"/>
      <point x="694" y="172"/>
      <point x="592" y="89"/>
      <point x="532" y="89" type="qcurve" smooth="yes"/>
      <point x="434" y="89"/>
      <point x="342" y="294"/>
      <point x="355" y="463" type="qcurve" smooth="yes"/>
      <point x="369" y="669"/>
      <point x="528" y="930"/>
      <point x="640" y="930" type="qcurve" smooth="yes"/>
      <point x="726" y="930"/>
      <point x="787" y="873" type="qcurve" smooth="yes"/>
      <point x="826" y="834" type="line"/>
      <point x="793" y="369" type="line" smooth="yes"/>
      <point x="788" y="276"/>
      <point x="830" y="184"/>
      <point x="873" y="184" type="qcurve" smooth="yes"/>
      <point x="941" y="184"/>
      <point x="1030" y="371"/>
      <point x="1034" y="532" type="qcurve" smooth="yes"/>
      <point x="1047" y="854"/>
      <point x="838" y="1179"/>
      <point x="628" y="1179" type="qcurve" smooth="yes"/>
      <point x="503" y="1179"/>
      <point x="301" y="1014"/>
      <point x="182" y="706"/>
      <point x="176" y="504" type="qcurve" smooth="yes"/>
      <point x="167" y="303"/>
      <point x="263" y="-3"/>
      <point x="452" y="-164"/>
      <point x="581" y="-164" type="qcurve" smooth="yes"/>
      <point x="635" y="-164"/>
      <point x="743" y="-130"/>
      <point x="797" y="-90" type="qcurve"/>
      <point x="825" y="-181" type="line"/>
      <point x="777" y="-220"/>
      <point x="646" y="-262"/>
      <point x="579" y="-262" type="qcurve" smooth="yes"/>
      <point x="416" y="-262"/>
      <point x="184" y="-73"/>
      <point x="70" y="275"/>
      <point x="78" y="505" type="qcurve" smooth="yes"/>
      <point x="85" y="731"/>
      <point x="225" y="1085"/>
      <point x="472" y="1281"/>
      <point x="631" y="1281" type="qcurve" smooth="yes"/>
      <point x="795" y="1281"/>
      <point x="1024" y="1101"/>
      <point x="1133" y="764"/>
    </contour>
    <contour>
      <point x="456" y="349" type="qcurve" smooth="yes"/>
      <point x="462" y="271"/>
      <point x="512" y="194"/>
      <point x="549" y="194" type="qcurve" smooth="yes"/>
      <point x="646" y="194"/>
      <point x="697" y="382" type="qcurve"/>
      <point x="725" y="802" type="line"/>
      <point x="692" y="831"/>
      <point x="645" y="831" type="qcurve" smooth="yes"/>
      <point x="587" y="831"/>
      <point x="493" y="698"/>
      <point x="447" y="450"/>
    </contour>
  </outline>
</glyph>
<glyph name="A" format="2">
  <advance width="837"/>
  <unicode hex="0041"/>
  <outline>
    <contour>
      <point x="610" y="435" type="line"/>
      <point x="226" y="435" type="line"/>
      <point x="134" y="105" type="line"/>
      <point x="15" y="105" type="line"/>
      <point x="368" y="1309" type="line"/>
      <point x="469" y="1309" type="line"/>
      <point x="822" y="105" type="line"/>
      <point x="704" y="105" type="line"/>
    </contour>
    <contour>
      <point x="257" y="546" type="line"/>
      <point x="579" y="546" type="line"/>
      <point x="418" y="1114" type="line"/>
    </contour>
  </outline>
</glyph>
<glyph name="B" format="2">
  <advance width="819"/>
  <unicode hex="0042"/>
  <outline>
    <contour>
      <point x="114" y="105" type="line"/>
      <point x="114" y="1309" type="line"/>
      <point x="403" y="1309" type="line" smooth="yes"/>
      <point x="557" y="1309"/>
      <point x="716" y="1145"/>
      <point x="716" y="988" type="qcurve" smooth="yes"/>
      <point x="716" y="895"/>
      <point x="635" y="754"/>
      <point x="592" y="736" type="qcurve"/>
      <point x="644" y="721"/>
      <point x="747" y="558"/>
      <point x="747" y="450" type="qcurve" smooth="yes"/>
      <point x="747" y="292"/>
      <point x="584" y="105"/>
      <point x="435" y="105" type="qcurve" smooth="yes"/>
    </contour>
    <contour>
      <point x="228" y="672" type="line"/>
      <point x="228" y="215" type="line"/>
      <point x="438" y="215" type="line" smooth="yes"/>
      <point x="528" y="215"/>
      <point x="633" y="337"/>
      <point x="633" y="448" type="qcurve" smooth="yes"/>
      <point x="633" y="551"/>
      <point x="536" y="669"/>
      <point x="451" y="672" type="qcurve" smooth="yes"/>
    </contour>
    <contour>
      <point x="228" y="781" type="line"/>
      <point x="411" y="781" type="line" smooth="yes"/>
      <point x="501" y="781"/>
      <point x="601" y="885"/>
      <point x="601" y="991" type="qcurve" smooth="yes"/>
      <point x="601" y="1099"/>
      <point x="503" y="1197"/>
      <point x="403" y="1197" type="qcurve" smooth="yes"/>
      <point x="228" y="1197" type="line"/>
    </contour>
  </outline>
</glyph>
<glyph name="C" format="2">
  <advance width="863"/>
  <unicode hex="0043"/>
  <outline>
    <contour>
      <point x="794" y="497" type="line"/>
      <point x="781" y="282"/>
      <point x="601" y="89"/>
      <point x="441" y="89" type="qcurve" smooth="yes"/>
      <point x="276" y="89"/>
      <point x="88" y="356"/>
      <point x="87" y="582" type="qcurve" smooth="yes"/>
      <point x="87" y="838" type="line" smooth="yes"/>
      <point x="87" y="1064"/>
      <point x="279" y="1325"/>
      <point x="448" y="1325" type="qcurve" smooth="yes"/>
      <point x="607" y="1325"/>
      <point x="781" y="1128"/>
      <point x="794" y="915" type="qcurve"/>
      <point x="679" y="915" type="line"/>
      <point x="666" y="1084"/>
      <point x="558" y="1213"/>
      <point x="448" y="1213" type="qcurve" smooth="yes"/>
      <point x="333" y="1213"/>
      <point x="202" y="1023"/>
      <point x="202" y="837" type="qcurve" smooth="yes"/>
      <point x="202" y="584" type="line" smooth="yes"/>
      <point x="202" y="399"/>
      <point x="329" y="199"/>
      <point x="441" y="199" type="qcurve" smooth="yes"/>
      <point x="560" y="199"/>
      <point x="667" y="329"/>
      <point x="679" y="497" type="qcurve"/>
    </contour>
  </outline>
</glyph>
<glyph name="D" format="2">
  <advance width="870"/>
  <unicode hex="0044"/>
  <outline>
    <contour>
      <point x="114" y="105" type="line"/>
      <point x="114" y="1309" type="line"/>
      <point x="384" y="1309" type="line" smooth="yes"/>
      <point x="568" y="1309"/>
      <point x="781" y="1055"/>
      <point x="784" y="836" type="qcurve" smooth="yes"/>
      <point x="784" y="589" type="line" smooth="yes"/>
      <point x="784" y="363"/>
      <point x="569" y="105"/>
      <point x="374" y="105" type="qcurve" smooth="yes"/>
    </contour>
    <contour>
      <point x="228" y="1197" type="line"/>
      <point x="228" y="215" type="line"/>
      <point x="378" y="215" type="line" smooth="yes"/>
      <point x="516" y="215"/>
      <point x="668" y="402"/>
      <point x="671" y="580" type="qcurve" smooth="yes"/>
      <point x="671" y="827" type="line" smooth="yes"/>
      <point x="671" y="1005"/>
      <point x="522" y="1197"/>
      <point x="382" y="1197" type="qcurve" smooth="yes"/>
    </contour>
  </outline>
</glyph>
<glyph name="E" format="2">
  <advance width="759"/>
  <unicode hex="0045"/>
  <outline>
    <contour>
      <point x="649" y="670" type="line"/>
      <point x="228" y="670" type="line"/>
      <point x="228" y="215" type="line"/>
      <point x="712" y="215" type="line"/>
      <point x="712" y="105" type="line"/>
      <point x="114" y="105" type="line"/>
      <point x="114" y="1309" type="line"/>
      <point x="709" y="1309" type="line"/>
      <point x="709" y="1197" type="line"/>
      <point x="228" y="1197" type="line"/>
      <point x="228" y="780" type="line"/>
      <point x="649" y="780" type="line"/>
    </contour>
  </outline>
</glyph>
<glyph name="F" format="2">
  <advance width="748"/>
  <unicode hex="0046"/>
  <outline>
    <contour>
      <point x="645" y="655" type="line"/>
      <point x="228" y="655" type="line"/>
      <point x="228" y="105" type="line"/>
      <point x="114" y="105" type="line"/>
      <point x="114" y="1309" type="line"/>
      <point x="708" y="1309" type="line"/>
      <point x="708" y="1197" type="line"/>
      <point x="228" y="1197" type="line"/>
      <point x="228" y="766" type="line"/>
      <point x="645" y="766" type="line"/>
    </contour>
  </outline>
</glyph>
<glyph name="G" format="2">
  <advance width="907"/>
  <unicode hex="0047"/>
  <outline>
    <contour>
      <point x="805" y="251" type="line"/>
      <point x="746" y="169"/>
      <point x="574" y="89"/>
      <point x="472" y="89" type="qcurve" smooth="yes"/>
      <point x="297" y="89"/>
      <point x="100" y="341"/>
      <point x="96" y="560" type="qcurve"/>
      <point x="96" y="846" type="line" smooth="yes"/>
      <point x="96" y="1076"/>
      <point x="284" y="1325"/>
      <point x="459" y="1325" type="qcurve" smooth="yes"/>
      <point x="616" y="1325"/>
      <point x="793" y="1137"/>
      <point x="805" y="952" type="qcurve"/>
      <point x="691" y="952" type="line"/>
      <point x="677" y="1095"/>
      <point x="564" y="1213"/>
      <point x="460" y="1213" type="qcurve" smooth="yes"/>
      <point x="336" y="1213"/>
      <point x="210" y="1030"/>
      <point x="210" y="848" type="qcurve" smooth="yes"/>
      <point x="210" y="576" type="line" smooth="yes"/>
      <point x="210" y="394"/>
      <point x="349" y="199"/>
      <point x="472" y="199" type="qcurve" smooth="yes"/>
      <point x="607" y="199"/>
      <point x="690" y="289" type="qcurve"/>
      <point x="690" y="580" type="line"/>
      <point x="452" y="580" type="line"/>
      <point x="452" y="691" type="line"/>
      <point x="805" y="691" type="line"/>
    </contour>
  </outline>
</glyph>
<glyph name="H" format="2">
  <advance width="938"/>
  <unicode hex="0048"/>
  <outline>
    <contour>
      <point x="823" y="105" type="line"/>
      <point x="709" y="105" type="line"/>
      <point x="709" y="670" type="line"/>
      <point x="228" y="670" type="line"/>
      <point x="228" y="105" type="line"/>
      <point x="114" y="105" type="line"/>
      <point x="114" y="1309" type="line"/>
      <point x="228" y="1309" type="line"/>
      <point x="228" y="780" type="line"/>
      <point x="709" y="780" type="line"/>
      <point x="709" y="1309" type="line"/>
      <point x="823" y="1309" type="line"/>
    </contour>
  </outline>
</glyph>
<glyph name="I" format="2">
  <advance width="374"/>
  <unicode hex="0049"/>
  <outline>
    <contour>
      <point x="244" y="105" type="line"/>
      <point x="130" y="105" type="line"/>
      <point x="130" y="1309" type="line"/>
      <point x="244" y="1309" type="line"/>
    </contour>
  </outline>
</glyph>
<glyph name="J" format="2">
  <advance width="736"/>
  <unicode hex="004A"/>
  <outline>
    <contour>
      <point x="512" y="1309" type="line"/>
      <point x="627" y="1309" type="line"/>
      <point x="627" y="468" type="line" smooth="yes"/>
      <point x="627" y="295"/>
      <point x="468" y="89"/>
      <point x="335" y="89" type="qcurve" smooth="yes"/>
      <point x="194" y="89"/>
      <point x="43" y="277"/>
      <point x="43" y="454" type="qcurve"/>
      <point x="157" y="454" type="line"/>
      <point x="157" y="318"/>
      <point x="252" y="199"/>
      <point x="335" y="199" type="qcurve" smooth="yes"/>
      <point x="413" y="199"/>
      <point x="512" y="341"/>
      <point x="512" y="464" type="qcurve" smooth="yes"/>
    </contour>
  </outline>
</glyph>
<glyph name="K" format="2">
  <advance width="838"/>
  <unicode hex="004B"/>
  <outline>
    <contour>
      <point x="338" y="675" type="line"/>
      <point x="228" y="537" type="line"/>
      <point x="228" y="105" type="line"/>
      <point x="114" y="105" type="line"/>
      <point x="114" y="1309" type="line"/>
      <point x="228" y="1309" type="line"/>
      <point x="228" y="711" type="line"/>
      <point x="320" y="836" type="line"/>
      <point x="661" y="1309" type="line"/>
      <point x="801" y="1309" type="line"/>
      <point x="413" y="771" type="line"/>
      <point x="828" y="105" type="line"/>
      <point x="692" y="105" type="line"/>
    </contour>
  </outline>
</glyph>
<glyph name="L" format="2">
  <advance width="708"/>
  <unicode hex="004C"/>
  <outline>
    <contour>
      <point x="229" y="215" type="line"/>
      <point x="676" y="215" type="line"/>
      <point x="676" y="105" type="line"/>
      <point x="114" y="105" type="line"/>
      <point x="114" y="1309" type="line"/>
      <point x="229" y="1309" type="line"/>
    </contour>
  </outline>
</glyph>
<glyph name="M" format="2">
  <advance width="1142"/>
  <unicode hex="004D"/>
  <outline>
    <contour>
      <point x="252" y="1309" type="line"/>
      <point x="570" y="306" type="line"/>
      <point x="889" y="1309" type="line"/>
      <point x="1027" y="1309" type="line"/>
      <point x="1027" y="105" type="line"/>
      <point x="913" y="105" type="line"/>
      <point x="913" y="629" type="line"/>
      <point x="919" y="1048" type="line"/>
      <point x="613" y="105" type="line"/>
      <point x="526" y="105" type="line"/>
      <point x="222" y="1043" type="line"/>
      <point x="228" y="632" type="line"/>
      <point x="228" y="105" type="line"/>
      <point x="114" y="105" type="line"/>
      <point x="114" y="1309" type="line"/>
    </contour>
  </outline>
</glyph>
<glyph name="N" format="2">
  <advance width="941"/>
  <unicode hex="004E"/>
  <outline>
    <contour>
      <point x="826" y="105" type="line"/>
      <point x="717" y="105" type="line"/>
      <point x="229" y="1063" type="line"/>
      <point x="229" y="105" type="line"/>
      <point x="114" y="105" type="line"/>
      <point x="114" y="1309" type="line"/>
      <point x="224" y="1309" type="line"/>
      <point x="712" y="350" type="line"/>
      <point x="712" y="1309" type="line"/>
      <point x="826" y="1309" type="line"/>
    </contour>
  </outline>
</glyph>
<glyph name="O" format="2">
  <advance width="901"/>
  <unicode hex="004F"/>
  <outline>
    <contour>
      <point x="816" y="579" type="line" smooth="yes"/>
      <point x="816" y="347"/>
      <point x="625" y="89"/>
      <point x="451" y="89" type="qcurve" smooth="yes"/>
      <point x="278" y="89"/>
      <point x="85" y="347"/>
      <point x="84" y="577" type="qcurve" smooth="yes"/>
      <point x="84" y="833" type="line" smooth="yes"/>
      <point x="84" y="1064"/>
      <point x="277" y="1325"/>
      <point x="449" y="1325" type="qcurve" smooth="yes"/>
      <point x="624" y="1325"/>
      <point x="816" y="1063"/>
      <point x="816" y="831" type="qcurve" smooth="yes"/>
    </contour>
    <contour>
      <point x="701" y="835" type="line" smooth="yes"/>
      <point x="701" y="1026"/>
      <point x="570" y="1211"/>
      <point x="449" y="1211" type="qcurve" smooth="yes"/>
      <point x="333" y="1211"/>
      <point x="199" y="1029"/>
      <point x="198" y="843" type="qcurve" smooth="yes"/>
      <point x="198" y="579" type="line" smooth="yes"/>
      <point x="198" y="388"/>
      <point x="333" y="202"/>
      <point x="451" y="202" type="qcurve" smooth="yes"/>
      <point x="572" y="202"/>
      <point x="701" y="387"/>
      <point x="701" y="579" type="qcurve" smooth="yes"/>
    </contour>
  </outline>
</glyph>
<glyph name="P" format="2">
  <advance width="823"/>
  <unicode hex="0050"/>
  <outline>
    <contour>
      <point x="228" y="585" type="line"/>
      <point x="228" y="105" type="line"/>
      <point x="114" y="105" type="line"/>
      <point x="114" y="1309" type="line"/>
      <point x="444" y="1309" type="line" smooth="yes"/>
      <point x="595" y="1309"/>
      <point x="767" y="1113"/>
      <point x="767" y="944" type="qcurve" smooth="yes"/>
      <point x="767" y="773"/>
      <point x="600" y="585"/>
      <point x="442" y="585" type="qcurve" smooth="yes"/>
    </contour>
    <contour>
      <point x="228" y="696" type="line"/>
      <point x="444" y="696" type="line" smooth="yes"/>
      <point x="544" y="696"/>
      <point x="654" y="823"/>
      <point x="654" y="1063"/>
      <point x="542" y="1197"/>
      <point x="444" y="1197" type="qcurve" smooth="yes"/>
      <point x="228" y="1197" type="line"/>
    </contour>
  </outline>
</glyph>
<glyph name="Q" format="2">
  <advance width="900"/>
  <unicode hex="0051"/>
  <outline>
    <contour>
      <point x="813" y="579" type="line" smooth="yes"/>
      <point x="813" y="419"/>
      <point x="724" y="201"/>
      <point x="652" y="152" type="qcurve"/>
      <point x="813" y="-24" type="line"/>
      <point x="737" y="-108" type="line"/>
      <point x="546" y="101" type="line"/>
      <point x="505" y="89"/>
      <point x="447" y="89" type="qcurve" smooth="yes"/>
      <point x="274" y="89"/>
      <point x="83" y="348"/>
      <point x="81" y="573" type="qcurve" smooth="yes"/>
      <point x="81" y="833" type="line" smooth="yes"/>
      <point x="81" y="1064"/>
      <point x="274" y="1325"/>
      <point x="446" y="1325" type="qcurve" smooth="yes"/>
      <point x="621" y="1325"/>
      <point x="813" y="1063"/>
      <point x="813" y="831" type="qcurve" smooth="yes"/>
    </contour>
    <contour>
      <point x="698" y="835" type="line" smooth="yes"/>
      <point x="698" y="1026"/>
      <point x="567" y="1211"/>
      <point x="446" y="1211" type="qcurve" smooth="yes"/>
      <point x="330" y="1211"/>
      <point x="196" y="1029"/>
      <point x="195" y="843" type="qcurve" smooth="yes"/>
      <point x="195" y="579" type="line" smooth="yes"/>
      <point x="195" y="388"/>
      <point x="330" y="202"/>
      <point x="447" y="202" type="qcurve" smooth="yes"/>
      <point x="567" y="202"/>
      <point x="696" y="381"/>
      <point x="698" y="567" type="qcurve" smooth="yes"/>
    </contour>
  </outline>
</glyph>
<glyph name="R" format="2">
  <advance width="840"/>
  <unicode hex="0052"/>
  <outline>
    <contour>
      <point x="456" y="596" type="line"/>
      <point x="227" y="596" type="line"/>
      <point x="227" y="105" type="line"/>
      <point x="112" y="105" type="line"/>
      <point x="112" y="1309" type="line"/>
      <point x="424" y="1309" type="line" smooth="yes"/>
      <point x="579" y="1309"/>
      <point x="750" y="1117"/>
      <point x="750" y="949" type="qcurve" smooth="yes"/>
      <point x="750" y="832"/>
      <point x="645" y="653"/>
      <point x="566" y="623" type="qcurve"/>
      <point x="789" y="130" type="line"/>
      <point x="789" y="105" type="line"/>
      <point x="673" y="105" type="line"/>
    </contour>
    <contour>
      <point x="227" y="706" type="line"/>
      <point x="439" y="706" type="line" smooth="yes"/>
      <point x="527" y="706"/>
      <point x="635" y="841"/>
      <point x="635" y="949" type="qcurve" smooth="yes"/>
      <point x="635" y="1069"/>
      <point x="523" y="1197"/>
      <point x="423" y="1197" type="qcurve" smooth="yes"/>
      <point x="227" y="1197" type="line"/>
    </contour>
  </outline>
</glyph>
<glyph name="S" format="2">
  <advance width="790"/>
  <unicode hex="0053"/>
  <outline>
    <contour>
      <point x="624" y="407" type="qcurve" smooth="yes"/>
      <point x="624" y="502"/>
      <point x="525" y="610"/>
      <point x="243" y="713"/>
      <point x="174" y="779" type="qcurve" smooth="yes"/>
      <point x="83" y="866"/>
      <point x="83" y="1008" type="qcurve" smooth="yes"/>
      <point x="83" y="1147"/>
      <point x="263" y="1325"/>
      <point x="405" y="1325" type="qcurve" smooth="yes"/>
      <point x="551" y="1325"/>
      <point x="734" y="1119"/>
      <point x="734" y="948" type="qcurve"/>
      <point x="619" y="948" type="line"/>
      <point x="619" y="1075"/>
      <point x="503" y="1213"/>
      <point x="405" y="1213" type="qcurve" smooth="yes"/>
      <point x="309" y="1213"/>
      <point x="198" y="1101"/>
      <point x="198" y="1009" type="qcurve" smooth="yes"/>
      <point x="198" y="924"/>
      <point x="304" y="817"/>
      <point x="547" y="729"/>
      <point x="677" y="631"/>
      <point x="739" y="498"/>
      <point x="739" y="409" type="qcurve" smooth="yes"/>
      <point x="739" y="266"/>
      <point x="559" y="89"/>
      <point x="411" y="89" type="qcurve" smooth="yes"/>
      <point x="311" y="89"/>
      <point x="147" y="178"/>
      <point x="55" y="343"/>
      <point x="55" y="466" type="qcurve"/>
      <point x="169" y="466" type="line"/>
      <point x="169" y="334"/>
      <point x="300" y="199"/>
      <point x="411" y="199" type="qcurve" smooth="yes"/>
      <point x="507" y="199"/>
      <point x="624" y="311"/>
    </contour>
  </outline>
</glyph>
<glyph name="T" format="2">
  <advance width="795"/>
  <unicode hex="0054"/>
  <outline>
    <contour>
      <point x="763" y="1197" type="line"/>
      <point x="454" y="1197" type="line"/>
      <point x="454" y="105" type="line"/>
      <point x="340" y="105" type="line"/>
      <point x="340" y="1197" type="line"/>
      <point x="32" y="1197" type="line"/>
      <point x="32" y="1309" type="line"/>
      <point x="763" y="1309" type="line"/>
    </contour>
  </outline>
</glyph>
<glyph name="U" format="2">
  <advance width="870"/>
  <unicode hex="0055"/>
  <outline>
    <contour>
      <point x="772" y="1309" type="line"/>
      <point x="772" y="460" type="line" smooth="yes"/>
      <point x="772" y="285"/>
      <point x="596" y="89"/>
      <point x="435" y="89" type="qcurve" smooth="yes"/>
      <point x="272" y="89"/>
      <point x="98" y="283"/>
      <point x="98" y="463" type="qcurve" smooth="yes"/>
      <point x="98" y="1309" type="line"/>
      <point x="212" y="1309" type="line"/>
      <point x="212" y="467" type="line" smooth="yes"/>
      <point x="212" y="199"/>
      <point x="435" y="199" type="qcurve" smooth="yes"/>
      <point x="655" y="199"/>
      <point x="658" y="458" type="qcurve" smooth="yes"/>
      <point x="658" y="1309" type="line"/>
    </contour>
  </outline>
</glyph>
<glyph name="V" format="2">
  <advance width="825"/>
  <unicode hex="0056"/>
  <outline>
    <contour>
      <point x="394" y="376" type="line"/>
      <point x="412" y="269" type="line"/>
      <point x="401" y="268" type="line"/>
      <point x="687" y="1309" type="line"/>
      <point x="810" y="1309" type="line"/>
      <point x="464" y="105" type="line"/>
      <point x="361" y="105" type="line"/>
      <point x="15" y="1309" type="line"/>
      <point x="138" y="1309" type="line"/>
    </contour>
  </outline>
</glyph>
<glyph name="W" format="2">
  <advance width="1177"/>
  <unicode hex="0057"/>
  <outline>
    <contour>
      <point x="316" y="440" type="line"/>
      <point x="330" y="348" type="line"/>
      <point x="347" y="432" type="line"/>
      <point x="543" y="1309" type="line"/>
      <point x="643" y="1309" type="line"/>
      <point x="837" y="432" type="line"/>
      <point x="854" y="345" type="line"/>
      <point x="869" y="440" type="line"/>
      <point x="1031" y="1309" type="line"/>
      <point x="1147" y="1309" type="line"/>
      <point x="911" y="105" type="line"/>
      <point x="806" y="105" type="line"/>
      <point x="601" y="1035" type="line"/>
      <point x="594" y="1071" type="line"/>
      <point x="587" y="1035" type="line"/>
      <point x="376" y="105" type="line"/>
      <point x="271" y="105" type="line"/>
      <point x="36" y="1309" type="line"/>
      <point x="153" y="1309" type="line"/>
    </contour>
  </outline>
</glyph>
<glyph name="X" format="2">
  <advance width="817"/>
  <unicode hex="0058"/>
  <outline>
    <contour>
      <point x="409" y="831" type="line"/>
      <point x="649" y="1309" type="line"/>
      <point x="782" y="1309" type="line"/>
      <point x="477" y="715" type="line"/>
      <point x="791" y="105" type="line"/>
      <point x="657" y="105" type="line"/>
      <point x="409" y="599" type="line"/>
      <point x="160" y="105" type="line"/>
      <point x="27" y="105" type="line"/>
      <point x="343" y="715" type="line"/>
      <point x="36" y="1309" type="line"/>
      <point x="169" y="1309" type="line"/>
    </contour>
  </outline>
</glyph>
<glyph name="Y" format="2">
  <advance width="797"/>
  <unicode hex="0059"/>
  <outline>
    <contour>
      <point x="398" y="692" type="line"/>
      <point x="658" y="1309" type="line"/>
      <point x="786" y="1309" type="line"/>
      <point x="454" y="559" type="line"/>
      <point x="454" y="105" type="line"/>
      <point x="340" y="105" type="line"/>
      <point x="340" y="559" type="line"/>
      <point x="8" y="1309" type="line"/>
      <point x="139" y="1309" type="line"/>
    </contour>
  </outline>
</glyph>
<glyph name="Z" format="2">
  <advance width="797"/>
  <unicode hex="005A"/>
  <outline>
    <contour>
      <point x="193" y="215" type="line"/>
      <point x="743" y="215" type="line"/>
      <point x="743" y="105" type="line"/>
      <point x="57" y="105" type="line"/>
      <point x="57" y="197" type="line"/>
      <point x="586" y="1198" type="line"/>
      <point x="72" y="1198" type="line"/>
      <point x="72" y="1309" type="line"/>
      <point x="723" y="1309" type="line"/>
      <point x="723" y="1221" type="line"/>
    </contour>
  </outline>
</glyph>
<glyph name="bracketleft" format="2">
  <advance width="343"/>
  <unicode hex="005B"/>
  <outline>
    <contour>
      <point x="341" y="1369" type="line"/>
      <point x="212" y="1369" type="line"/>
      <point x="212" y="-39" type="line"/>
      <point x="341" y="-39" type="line"/>
      <point x="341" y="-147" type="line"/>
      <point x="100" y="-147" type="line"/>
      <point x="100" y="1477" type="line"/>
      <point x="341" y="1477" type="line"/>
    </contour>
  </outline>
</glyph>
<glyph name="backslash" format="2">
  <advance width="539"/>
  <unicode hex="005C"/>
  <outline>
    <contour>
      <point x="26" y="1309" type="line"/>
      <point x="136" y="1309" type="line"/>
      <point x="523" y="4" type="line"/>
      <point x="414" y="4" type="line"/>
    </contour>
  </outline>
</glyph>
<glyph name="bracketright" format="2">
  <advance width="343"/>
  <unicode hex="005D"/>
  <outline>
    <contour>
      <point x="1" y="1477" type="line"/>
      <point x="243" y="1477" type="line"/>
      <point x="243" y="-147" type="line"/>
      <point x="1" y="-147" type="line"/>
      <point x="1" y="-39" type="line"/>
      <point x="131" y="-39" type="line"/>
      <point x="131" y="1369" type="line"/>
      <point x="1" y="1369" type="line"/>
    </contour>
  </outline>
</glyph>
<glyph name="asciicircum" format="2">
  <advance width="563"/>
  <unicode hex="005E"/>
  <outline>
    <contour>
      <point x="277" y="1117" type="line"/>
      <point x="151" y="696" type="line"/>
      <point x="41" y="696" type="line"/>
      <point x="237" y="1309" type="line"/>
      <point x="319" y="1309" type="line"/>
      <point x="513" y="696" type="line"/>
      <point x="404" y="696" type="line"/>
    </contour>
  </outline>
</glyph>
<glyph name="underscore" format="2">
  <advance width="588"/>
  <unicode hex="005F"/>
  <outline>
    <contour>
      <point x="586" y="22" type="line"/>
      <point x="1" y="22" type="line"/>
      <point x="1" y="130" type="line"/>
      <point x="586" y="130" type="line"/>
    </contour>
  </outline>
</glyph>
<glyph name="grave" format="2">
  <advance width="437"/>
  <unicode hex="0060"/>
  <outline>
    <contour>
      <point x="351" y="1122" type="line"/>
      <point x="238" y="1122" type="line"/>
      <point x="52" y="1374" type="line"/>
      <point x="194" y="1374" type="line"/>
    </contour>
  </outline>
</glyph>
<glyph name="a" format="2">
  <advance width="719"/>
  <unicode hex="0061"/>
  <outline>
    <contour>
      <point x="525" y="105" type="line"/>
      <point x="511" y="158"/>
      <point x="510" y="189" type="qcurve"/>
      <point x="496" y="165"/>
      <point x="372" y="89"/>
      <point x="299" y="89" type="qcurve" smooth="yes"/>
      <point x="188" y="89"/>
      <point x="64" y="225"/>
      <point x="64" y="347" type="qcurve" smooth="yes"/>
      <point x="64" y="481"/>
      <point x="234" y="639"/>
      <point x="382" y="640" type="qcurve" smooth="yes"/>
      <point x="507" y="640" type="line"/>
      <point x="507" y="750" type="line" smooth="yes"/>
      <point x="507" y="840"/>
      <point x="429" y="914"/>
      <point x="353" y="914" type="qcurve" smooth="yes"/>
      <point x="282" y="914"/>
      <point x="192" y="824"/>
      <point x="192" y="739" type="qcurve"/>
      <point x="80" y="741" type="line"/>
      <point x="80" y="864"/>
      <point x="237" y="1022"/>
      <point x="356" y="1022" type="qcurve" smooth="yes"/>
      <point x="485" y="1022"/>
      <point x="618" y="881"/>
      <point x="618" y="750" type="qcurve" smooth="yes"/>
      <point x="618" y="320" type="line" smooth="yes"/>
      <point x="618" y="193"/>
      <point x="639" y="129" type="qcurve"/>
      <point x="639" y="105" type="line"/>
    </contour>
    <contour>
      <point x="309" y="200" type="qcurve" smooth="yes"/>
      <point x="377" y="200"/>
      <point x="482" y="277"/>
      <point x="507" y="341" type="qcurve"/>
      <point x="507" y="540" type="line"/>
      <point x="390" y="540" type="line" smooth="yes"/>
      <point x="283" y="539"/>
      <point x="176" y="440"/>
      <point x="176" y="355" type="qcurve" smooth="yes"/>
      <point x="176" y="200"/>
    </contour>
  </outline>
</glyph>
<glyph name="b" format="2">
  <advance width="742"/>
  <unicode hex="0062"/>
  <outline>
    <contour>
      <point x="676" y="514" type="line" smooth="yes"/>
      <point x="676" y="309"/>
      <point x="539" y="89"/>
      <point x="402" y="89" type="qcurve" smooth="yes"/>
      <point x="250" y="89"/>
      <point x="204" y="180" type="qcurve"/>
      <point x="201" y="105" type="line"/>
      <point x="96" y="105" type="line"/>
      <point x="96" y="1374" type="line"/>
      <point x="207" y="1374" type="line"/>
      <point x="207" y="933" type="line"/>
      <point x="251" y="1022"/>
      <point x="400" y="1022" type="qcurve" smooth="yes"/>
      <point x="539" y="1022"/>
      <point x="673" y="813"/>
      <point x="676" y="612" type="qcurve" smooth="yes"/>
    </contour>
    <contour>
      <point x="564" y="596" type="line" smooth="yes"/>
      <point x="564" y="760"/>
      <point x="478" y="911"/>
      <point x="384" y="911" type="qcurve" smooth="yes"/>
      <point x="257" y="911"/>
      <point x="207" y="764" type="qcurve"/>
      <point x="207" y="333" type="line"/>
      <point x="230" y="269"/>
      <point x="322" y="199"/>
      <point x="385" y="199" type="qcurve" smooth="yes"/>
      <point x="476" y="199"/>
      <point x="563" y="346"/>
      <point x="564" y="509" type="qcurve" smooth="yes"/>
    </contour>
  </outline>
</glyph>
<glyph name="c" format="2">
  <advance width="693"/>
  <unicode hex="0063"/>
  <outline>
    <contour>
      <point x="365" y="197" type="qcurve" smooth="yes"/>
      <point x="444" y="197"/>
      <point x="529" y="294"/>
      <point x="533" y="401" type="qcurve"/>
      <point x="642" y="401" type="line"/>
      <point x="635" y="250"/>
      <point x="482" y="89"/>
      <point x="365" y="89" type="qcurve" smooth="yes"/>
      <point x="213" y="89"/>
      <point x="60" y="298"/>
      <point x="58" y="498" type="qcurve" smooth="yes"/>
      <point x="58" y="605" type="line" smooth="yes"/>
      <point x="58" y="809"/>
      <point x="211" y="1022"/>
      <point x="364" y="1022" type="qcurve" smooth="yes"/>
      <point x="491" y="1022"/>
      <point x="637" y="849"/>
      <point x="642" y="686" type="qcurve"/>
      <point x="533" y="686" type="line"/>
      <point x="529" y="803"/>
      <point x="442" y="914"/>
      <point x="364" y="914" type="qcurve" smooth="yes"/>
      <point x="265" y="914"/>
      <point x="170" y="766"/>
      <point x="170" y="606" type="qcurve" smooth="yes"/>
      <point x="170" y="506" type="line" smooth="yes"/>
      <point x="170" y="341"/>
      <point x="266" y="197"/>
    </contour>
  </outline>
</glyph>
<glyph name="d" format="2">
  <advance width="743"/>
  <unicode hex="0064"/>
  <outline>
    <contour>
      <point x="65" y="596" type="line" smooth="yes"/>
      <point x="65" y="805"/>
      <point x="204" y="1022"/>
      <point x="343" y="1022" type="qcurve" smooth="yes"/>
      <point x="489" y="1022"/>
      <point x="533" y="936" type="qcurve"/>
      <point x="533" y="1374" type="line"/>
      <point x="645" y="1374" type="line"/>
      <point x="645" y="105" type="line"/>
      <point x="539" y="105" type="line"/>
      <point x="536" y="176" type="line"/>
      <point x="490" y="89"/>
      <point x="342" y="89" type="qcurve" smooth="yes"/>
      <point x="206" y="89"/>
      <point x="67" y="309"/>
      <point x="65" y="505" type="qcurve" smooth="yes"/>
    </contour>
    <contour>
      <point x="178" y="514" type="line" smooth="yes"/>
      <point x="178" y="348"/>
      <point x="266" y="199"/>
      <point x="358" y="199" type="qcurve" smooth="yes"/>
      <point x="479" y="199"/>
      <point x="533" y="324" type="qcurve"/>
      <point x="533" y="775" type="line"/>
      <point x="481" y="911"/>
      <point x="359" y="911" type="qcurve" smooth="yes"/>
      <point x="266" y="911"/>
      <point x="179" y="764"/>
      <point x="178" y="602" type="qcurve" smooth="yes"/>
    </contour>
  </outline>
</glyph>
<glyph name="e" format="2">
  <advance width="698"/>
  <unicode hex="0065"/>
  <outline>
    <contour>
      <point x="376" y="89" type="qcurve" smooth="yes"/>
      <point x="226" y="89"/>
      <point x="59" y="300"/>
      <point x="57" y="491" type="qcurve" smooth="yes"/>
      <point x="57" y="598" type="line" smooth="yes"/>
      <point x="57" y="794"/>
      <point x="218" y="1022"/>
      <point x="362" y="1022" type="qcurve" smooth="yes"/>
      <point x="501" y="1022"/>
      <point x="646" y="827"/>
      <point x="647" y="632" type="qcurve" smooth="yes"/>
      <point x="647" y="535" type="line"/>
      <point x="168" y="535" type="line"/>
      <point x="168" y="498" type="line" smooth="yes"/>
      <point x="168" y="351"/>
      <point x="280" y="196"/>
      <point x="380" y="196" type="qcurve" smooth="yes"/>
      <point x="492" y="196"/>
      <point x="573" y="301" type="qcurve"/>
      <point x="633" y="219" type="line"/>
      <point x="546" y="89"/>
    </contour>
    <contour>
      <point x="362" y="914" type="qcurve" smooth="yes"/>
      <point x="273" y="914"/>
      <point x="174" y="773"/>
      <point x="169" y="644" type="qcurve"/>
      <point x="535" y="644" type="line"/>
      <point x="535" y="655" type="line"/>
      <point x="530" y="914"/>
    </contour>
  </outline>
</glyph>
<glyph name="f" format="2">
  <advance width="459"/>
  <unicode hex="0066"/>
  <outline>
    <contour>
      <point x="151" y="105" type="line"/>
      <point x="151" y="901" type="line"/>
      <point x="40" y="901" type="line"/>
      <point x="40" y="1006" type="line"/>
      <point x="151" y="1006" type="line"/>
      <point x="151" y="1109" type="line" smooth="yes"/>
      <point x="153" y="1243"/>
      <point x="267" y="1391"/>
      <point x="370" y="1391" type="qcurve" smooth="yes"/>
      <point x="417" y="1391"/>
      <point x="465" y="1372" type="qcurve"/>
      <point x="458" y="1266" type="line"/>
      <point x="409" y="1279"/>
      <point x="377" y="1279" type="qcurve" smooth="yes"/>
      <point x="325" y="1279"/>
      <point x="263" y="1190"/>
      <point x="263" y="1102" type="qcurve" smooth="yes"/>
      <point x="263" y="1006" type="line"/>
      <point x="421" y="1006" type="line"/>
      <point x="421" y="901" type="line"/>
      <point x="263" y="901" type="line"/>
      <point x="263" y="105" type="line"/>
    </contour>
  </outline>
</glyph>
<glyph name="g" format="2">
  <advance width="742"/>
  <unicode hex="0067"/>
  <outline>
    <contour>
      <point x="66" y="596" type="line" smooth="yes"/>
      <point x="66" y="806"/>
      <point x="203" y="1022"/>
      <point x="343" y="1022" type="qcurve" smooth="yes"/>
      <point x="492" y="1022"/>
      <point x="538" y="929" type="qcurve"/>
      <point x="540" y="1006" type="line"/>
      <point x="646" y="1006" type="line"/>
      <point x="646" y="92" type="line" smooth="yes"/>
      <point x="645" y="-70"/>
      <point x="500" y="-244"/>
      <point x="361" y="-244" type="qcurve" smooth="yes"/>
      <point x="290" y="-244"/>
      <point x="149" y="-170"/>
      <point x="108" y="-111" type="qcurve"/>
      <point x="161" y="-22" type="line"/>
      <point x="253" y="-136"/>
      <point x="355" y="-136" type="qcurve" smooth="yes"/>
      <point x="448" y="-136"/>
      <point x="533" y="-28"/>
      <point x="533" y="87" type="qcurve" smooth="yes"/>
      <point x="533" y="171" type="line"/>
      <point x="489" y="89"/>
      <point x="342" y="89" type="qcurve" smooth="yes"/>
      <point x="208" y="89"/>
      <point x="68" y="304"/>
      <point x="66" y="501" type="qcurve" smooth="yes"/>
    </contour>
    <contour>
      <point x="178" y="514" type="line" smooth="yes"/>
      <point x="178" y="348"/>
      <point x="267" y="199"/>
      <point x="358" y="199" type="qcurve" smooth="yes"/>
      <point x="482" y="199"/>
      <point x="533" y="327" type="qcurve"/>
      <point x="533" y="772" type="line"/>
      <point x="481" y="911"/>
      <point x="360" y="911" type="qcurve" smooth="yes"/>
      <point x="267" y="911"/>
      <point x="179" y="764"/>
      <point x="178" y="602" type="qcurve" smooth="yes"/>
    </contour>
  </outline>
</glyph>
<glyph name="h" format="2">
  <advance width="735"/>
  <unicode hex="0068"/>
  <outline>
    <contour>
      <point x="208" y="915" type="line"/>
      <point x="217" y="934"/>
      <point x="333" y="1022"/>
      <point x="409" y="1022" type="qcurve" smooth="yes"/>
      <point x="634" y="1022"/>
      <point x="640" y="705" type="qcurve"/>
      <point x="640" y="105" type="line"/>
      <point x="529" y="105" type="line"/>
      <point x="529" y="695" type="line" smooth="yes"/>
      <point x="528" y="809"/>
      <point x="460" y="912"/>
      <point x="388" y="912" type="qcurve" smooth="yes"/>
      <point x="330" y="912"/>
      <point x="233" y="813"/>
      <point x="208" y="724" type="qcurve"/>
      <point x="208" y="105" type="line"/>
      <point x="96" y="105" type="line"/>
      <point x="96" y="1374" type="line"/>
      <point x="208" y="1374" type="line"/>
    </contour>
  </outline>
</glyph>
<glyph name="i" format="2">
  <advance width="321"/>
  <unicode hex="0069"/>
  <outline>
    <contour>
      <point x="217" y="105" type="line"/>
      <point x="105" y="105" type="line"/>
      <point x="105" y="1006" type="line"/>
      <point x="217" y="1006" type="line"/>
    </contour>
    <contour>
      <point x="93" y="1247" type="qcurve" smooth="yes"/>
      <point x="93" y="1277"/>
      <point x="128" y="1325"/>
      <point x="196" y="1325"/>
      <point x="231" y="1277"/>
      <point x="231" y="1216"/>
      <point x="196" y="1169"/>
      <point x="128" y="1169"/>
      <point x="93" y="1216"/>
    </contour>
  </outline>
</glyph>
<glyph name="j" format="2">
  <advance width="325"/>
  <unicode hex="006A"/>
  <outline>
    <contour>
      <point x="213" y="1006" type="line"/>
      <point x="213" y="20" type="line" smooth="yes"/>
      <point x="213" y="-249"/>
      <point x="21" y="-249" type="qcurve" smooth="yes"/>
      <point x="-18" y="-249"/>
      <point x="-60" y="-228" type="qcurve"/>
      <point x="-59" y="-121" type="line"/>
      <point x="-13" y="-138"/>
      <point x="10" y="-138" type="qcurve" smooth="yes"/>
      <point x="102" y="-138"/>
      <point x="102" y="15" type="qcurve" smooth="yes"/>
      <point x="102" y="1006" type="line"/>
    </contour>
    <contour>
      <point x="89" y="1247" type="qcurve" smooth="yes"/>
      <point x="89" y="1277"/>
      <point x="123" y="1325"/>
      <point x="191" y="1325"/>
      <point x="227" y="1277"/>
      <point x="227" y="1216"/>
      <point x="191" y="1169"/>
      <point x="123" y="1169"/>
      <point x="89" y="1216"/>
    </contour>
  </outline>
</glyph>
<glyph name="k" format="2">
  <advance width="662"/>
  <unicode hex="006B"/>
  <outline>
    <contour>
      <point x="276" y="532" type="line"/>
      <point x="208" y="450" type="line"/>
      <point x="208" y="105" type="line"/>
      <point x="96" y="105" type="line"/>
      <point x="96" y="1374" type="line"/>
      <point x="208" y="1374" type="line"/>
      <point x="208" y="613" type="line"/>
      <point x="251" y="672" type="line"/>
      <point x="505" y="1006" type="line"/>
      <point x="642" y="1006" type="line"/>
      <point x="349" y="623" type="line"/>
      <point x="666" y="105" type="line"/>
      <point x="535" y="105" type="line"/>
    </contour>
  </outline>
</glyph>
<glyph name="l" format="2">
  <advance width="321"/>
  <unicode hex="006C"/>
  <outline>
    <contour>
      <point x="217" y="105" type="line"/>
      <point x="105" y="105" type="line"/>
      <point x="105" y="1374" type="line"/>
      <point x="217" y="1374" type="line"/>
    </contour>
  </outline>
</glyph>
<glyph name="m" format="2">
  <advance width="1163"/>
  <unicode hex="006D"/>
  <outline>
    <contour>
      <point x="201" y="1006" type="line"/>
      <point x="202" y="920" type="line"/>
      <point x="254" y="1022"/>
      <point x="405" y="1022" type="qcurve" smooth="yes"/>
      <point x="572" y="1022"/>
      <point x="610" y="889" type="qcurve"/>
      <point x="632" y="936"/>
      <point x="759" y="1022"/>
      <point x="835" y="1022" type="qcurve" smooth="yes"/>
      <point x="1067" y="1022"/>
      <point x="1072" y="706" type="qcurve"/>
      <point x="1072" y="105" type="line"/>
      <point x="960" y="105" type="line"/>
      <point x="960" y="700" type="line" smooth="yes"/>
      <point x="959" y="810"/>
      <point x="891" y="912"/>
      <point x="814" y="912" type="qcurve" smooth="yes"/>
      <point x="745" y="911"/>
      <point x="646" y="792"/>
      <point x="638" y="700" type="qcurve"/>
      <point x="638" y="105" type="line"/>
      <point x="526" y="105" type="line"/>
      <point x="526" y="697" type="line" smooth="yes"/>
      <point x="526" y="809"/>
      <point x="454" y="912"/>
      <point x="379" y="912" type="qcurve" smooth="yes"/>
      <point x="318" y="912"/>
      <point x="226" y="817"/>
      <point x="205" y="726" type="qcurve"/>
      <point x="205" y="105" type="line"/>
      <point x="93" y="105" type="line"/>
      <point x="93" y="1006" type="line"/>
    </contour>
  </outline>
</glyph>
<glyph name="n" format="2">
  <advance width="736"/>
  <unicode hex="006E"/>
  <outline>
    <contour>
      <point x="204" y="1006" type="line"/>
      <point x="205" y="913" type="line"/>
      <point x="215" y="933"/>
      <point x="333" y="1022"/>
      <point x="409" y="1022" type="qcurve" smooth="yes"/>
      <point x="634" y="1022"/>
      <point x="640" y="705" type="qcurve"/>
      <point x="640" y="105" type="line"/>
      <point x="529" y="105" type="line"/>
      <point x="529" y="695" type="line" smooth="yes"/>
      <point x="528" y="809"/>
      <point x="460" y="912"/>
      <point x="388" y="912" type="qcurve" smooth="yes"/>
      <point x="330" y="912"/>
      <point x="233" y="813"/>
      <point x="208" y="724" type="qcurve"/>
      <point x="208" y="105" type="line"/>
      <point x="96" y="105" type="line"/>
      <point x="96" y="1006" type="line"/>
    </contour>
  </outline>
</glyph>
<glyph name="o" format="2">
  <advance width="748"/>
  <unicode hex="006F"/>
  <outline>
    <contour>
      <point x="65" y="600" type="line" smooth="yes"/>
      <point x="65" y="793"/>
      <point x="229" y="1022"/>
      <point x="374" y="1022" type="qcurve" smooth="yes"/>
      <point x="519" y="1022"/>
      <point x="683" y="796"/>
      <point x="683" y="603" type="qcurve" smooth="yes"/>
      <point x="683" y="509" type="line" smooth="yes"/>
      <point x="683" y="313"/>
      <point x="518" y="89"/>
      <point x="233" y="89"/>
      <point x="68" y="308"/>
      <point x="65" y="496" type="qcurve" smooth="yes"/>
    </contour>
    <contour>
      <point x="177" y="509" type="line" smooth="yes"/>
      <point x="177" y="361"/>
      <point x="284" y="197"/>
      <point x="375" y="197" type="qcurve" smooth="yes"/>
      <point x="469" y="197"/>
      <point x="571" y="354"/>
      <point x="572" y="507" type="qcurve" smooth="yes"/>
      <point x="572" y="600" type="line" smooth="yes"/>
      <point x="572" y="749"/>
      <point x="464" y="914"/>
      <point x="374" y="914" type="qcurve" smooth="yes"/>
      <point x="286" y="914"/>
      <point x="179" y="753"/>
      <point x="177" y="607" type="qcurve" smooth="yes"/>
    </contour>
  </outline>
</glyph>
<glyph name="p" format="2">
  <advance width="742"/>
  <unicode hex="0070"/>
  <outline>
    <contour>
      <point x="675" y="514" type="line" smooth="yes"/>
      <point x="675" y="309"/>
      <point x="539" y="89"/>
      <point x="402" y="89" type="qcurve" smooth="yes"/>
      <point x="253" y="89"/>
      <point x="207" y="169" type="qcurve"/>
      <point x="207" y="-232" type="line"/>
      <point x="96" y="-232" type="line"/>
      <point x="96" y="1006" type="line"/>
      <point x="201" y="1006" type="line"/>
      <point x="203" y="928" type="line"/>
      <point x="252" y="1022"/>
      <point x="400" y="1022" type="qcurve" smooth="yes"/>
      <point x="539" y="1022"/>
      <point x="674" y="812"/>
      <point x="675" y="603" type="qcurve" smooth="yes"/>
    </contour>
    <contour>
      <point x="563" y="596" type="line" smooth="yes"/>
      <point x="563" y="762"/>
      <point x="473" y="911"/>
      <point x="379" y="911" type="qcurve" smooth="yes"/>
      <point x="259" y="911"/>
      <point x="207" y="777" type="qcurve"/>
      <point x="207" y="319" type="line"/>
      <point x="258" y="197"/>
      <point x="381" y="197" type="qcurve" smooth="yes"/>
      <point x="472" y="197"/>
      <point x="563" y="346"/>
      <point x="563" y="509" type="qcurve" smooth="yes"/>
    </contour>
  </outline>
</glyph>
<glyph name="q" format="2">
  <advance width="747"/>
  <unicode hex="0071"/>
  <outline>
    <contour>
      <point x="65" y="596" type="line" smooth="yes"/>
      <point x="65" y="807"/>
      <point x="204" y="1022"/>
      <point x="344" y="1022" type="qcurve" smooth="yes"/>
      <point x="488" y="1022"/>
      <point x="536" y="933" type="qcurve"/>
      <point x="539" y="1006" type="line"/>
      <point x="645" y="1006" type="line"/>
      <point x="645" y="-232" type="line"/>
      <point x="532" y="-232" type="line"/>
      <point x="532" y="168" type="line"/>
      <point x="485" y="89"/>
      <point x="343" y="89" type="qcurve" smooth="yes"/>
      <point x="206" y="89"/>
      <point x="67" y="304"/>
      <point x="65" y="505" type="qcurve" smooth="yes"/>
    </contour>
    <contour>
      <point x="178" y="514" type="line" smooth="yes"/>
      <point x="178" y="348"/>
      <point x="267" y="197"/>
      <point x="360" y="197" type="qcurve" smooth="yes"/>
      <point x="477" y="197"/>
      <point x="532" y="316" type="qcurve"/>
      <point x="532" y="784" type="line"/>
      <point x="476" y="914"/>
      <point x="360" y="914" type="qcurve" smooth="yes"/>
      <point x="268" y="914"/>
      <point x="179" y="764"/>
      <point x="178" y="602" type="qcurve" smooth="yes"/>
    </contour>
  </outline>
</glyph>
<glyph name="r" format="2">
  <advance width="461"/>
  <unicode hex="0072"/>
  <outline>
    <contour>
      <point x="441" y="895" type="line"/>
      <point x="395" y="903"/>
      <point x="374" y="903" type="qcurve" smooth="yes"/>
      <point x="313" y="903"/>
      <point x="226" y="808"/>
      <point x="208" y="722" type="qcurve"/>
      <point x="208" y="105" type="line"/>
      <point x="96" y="105" type="line"/>
      <point x="96" y="1006" type="line"/>
      <point x="206" y="1006" type="line"/>
      <point x="207" y="935" type="line"/>
      <point x="242" y="1022"/>
      <point x="378" y="1022" type="qcurve" smooth="yes"/>
      <point x="415" y="1022"/>
      <point x="442" y="1005" type="qcurve"/>
    </contour>
  </outline>
</glyph>
<glyph name="s" format="2">
  <advance width="682"/>
  <unicode hex="0073"/>
  <outline>
    <contour>
      <point x="500" y="333" type="qcurve" smooth="yes"/>
      <point x="500" y="385"/>
      <point x="418" y="465"/>
      <point x="213" y="566"/>
      <point x="127" y="636"/>
      <point x="86" y="720"/>
      <point x="86" y="777" type="qcurve" smooth="yes"/>
      <point x="86" y="882"/>
      <point x="228" y="1022"/>
      <point x="341" y="1022" type="qcurve" smooth="yes"/>
      <point x="463" y="1022"/>
      <point x="608" y="873"/>
      <point x="608" y="741" type="qcurve"/>
      <point x="496" y="741" type="line"/>
      <point x="496" y="824"/>
      <point x="410" y="914"/>
      <point x="341" y="914" type="qcurve" smooth="yes"/>
      <point x="275" y="914"/>
      <point x="197" y="840"/>
      <point x="197" y="780" type="qcurve" smooth="yes"/>
      <point x="197" y="732"/>
      <point x="258" y="670"/>
      <point x="364" y="615" type="qcurve"/>
      <point x="478" y="561"/>
      <point x="567" y="488"/>
      <point x="612" y="398"/>
      <point x="612" y="338" type="qcurve" smooth="yes"/>
      <point x="612" y="225"/>
      <point x="465" y="89"/>
      <point x="346" y="89" type="qcurve" smooth="yes"/>
      <point x="219" y="89"/>
      <point x="63" y="239"/>
      <point x="63" y="368" type="qcurve"/>
      <point x="175" y="368" type="line"/>
      <point x="179" y="279"/>
      <point x="264" y="197"/>
      <point x="346" y="197" type="qcurve" smooth="yes"/>
      <point x="416" y="197"/>
      <point x="500" y="270"/>
    </contour>
  </outline>
</glyph>
<glyph name="t" format="2">
  <advance width="444"/>
  <unicode hex="0074"/>
  <outline>
    <contour>
      <point x="250" y="1230" type="line"/>
      <point x="250" y="1006" type="line"/>
      <point x="388" y="1006" type="line"/>
      <point x="388" y="901" type="line"/>
      <point x="250" y="901" type="line"/>
      <point x="250" y="330" type="line" smooth="yes"/>
      <point x="250" y="261"/>
      <point x="284" y="200"/>
      <point x="321" y="200" type="qcurve" smooth="yes"/>
      <point x="340" y="200"/>
      <point x="395" y="211" type="qcurve"/>
      <point x="398" y="108" type="line"/>
      <point x="359" y="89"/>
      <point x="302" y="89" type="qcurve" smooth="yes"/>
      <point x="142" y="89"/>
      <point x="138" y="318" type="qcurve"/>
      <point x="138" y="901" type="line"/>
      <point x="14" y="901" type="line"/>
      <point x="14" y="1006" type="line"/>
      <point x="138" y="1006" type="line"/>
      <point x="138" y="1230" type="line"/>
    </contour>
  </outline>
</glyph>
<glyph name="u" format="2">
  <advance width="735"/>
  <unicode hex="0075"/>
  <outline>
    <contour>
      <point x="529" y="170" type="line"/>
      <point x="483" y="89"/>
      <point x="331" y="89" type="qcurve" smooth="yes"/>
      <point x="213" y="89"/>
      <point x="95" y="263"/>
      <point x="94" y="427" type="qcurve" smooth="yes"/>
      <point x="94" y="1006" type="line"/>
      <point x="205" y="1006" type="line"/>
      <point x="205" y="429" type="line" smooth="yes"/>
      <point x="205" y="313"/>
      <point x="277" y="199"/>
      <point x="341" y="199" type="qcurve" smooth="yes"/>
      <point x="486" y="199"/>
      <point x="527" y="354" type="qcurve"/>
      <point x="527" y="1006" type="line"/>
      <point x="639" y="1006" type="line"/>
      <point x="639" y="105" type="line"/>
      <point x="530" y="105" type="line"/>
    </contour>
  </outline>
</glyph>
<glyph name="v" format="2">
  <advance width="649"/>
  <unicode hex="0076"/>
  <outline>
    <contour>
      <point x="324" y="313" type="line"/>
      <point x="511" y="1006" type="line"/>
      <point x="626" y="1006" type="line"/>
      <point x="368" y="105" type="line"/>
      <point x="280" y="105" type="line"/>
      <point x="20" y="1006" type="line"/>
      <point x="135" y="1006" type="line"/>
    </contour>
  </outline>
</glyph>
<glyph name="w" format="2">
  <advance width="997"/>
  <unicode hex="0077"/>
  <outline>
    <contour>
      <point x="284" y="317" type="line"/>
      <point x="287" y="291" type="line"/>
      <point x="282" y="323" type="line"/>
      <point x="449" y="1006" type="line"/>
      <point x="542" y="1006" type="line"/>
      <point x="708" y="328" type="line"/>
      <point x="705" y="346" type="line"/>
      <point x="701" y="321" type="line"/>
      <point x="842" y="1006" type="line"/>
      <point x="957" y="1006" type="line"/>
      <point x="754" y="105" type="line"/>
      <point x="661" y="105" type="line"/>
      <point x="494" y="814" type="line"/>
      <point x="494" y="813" type="line"/>
      <point x="480" y="712" type="line"/>
      <point x="330" y="105" type="line"/>
      <point x="236" y="105" type="line"/>
      <point x="35" y="1006" type="line"/>
      <point x="149" y="1006" type="line"/>
    </contour>
  </outline>
</glyph>
<glyph name="x" format="2">
  <advance width="655"/>
  <unicode hex="0078"/>
  <outline>
    <contour>
      <point x="326" y="671" type="line"/>
      <point x="493" y="1006" type="line"/>
      <point x="622" y="1006" type="line"/>
      <point x="387" y="564" type="line"/>
      <point x="631" y="105" type="line"/>
      <point x="502" y="105" type="line"/>
      <point x="326" y="455" type="line"/>
      <point x="150" y="105" type="line"/>
      <point x="21" y="105" type="line"/>
      <point x="264" y="564" type="line"/>
      <point x="30" y="1006" type="line"/>
      <point x="159" y="1006" type="line"/>
    </contour>
  </outline>
</glyph>
<glyph name="y" format="2">
  <advance width="639"/>
  <unicode hex="0079"/>
  <outline>
    <contour>
      <point x="324" y="321" type="line"/>
      <point x="505" y="1006" type="line"/>
      <point x="624" y="1006" type="line"/>
      <point x="336" y="-25" type="line"/>
      <point x="320" y="-74" type="line" smooth="yes"/>
      <point x="260" y="-249"/>
      <point x="130" y="-249" type="qcurve" smooth="yes"/>
      <point x="99" y="-249"/>
      <point x="56" y="-233" type="qcurve"/>
      <point x="55" y="-125" type="line"/>
      <point x="90" y="-136"/>
      <point x="108" y="-136" type="qcurve" smooth="yes"/>
      <point x="155" y="-136"/>
      <point x="217" y="-73"/>
      <point x="238" y="2" type="qcurve" smooth="yes"/>
      <point x="272" y="123" type="line"/>
      <point x="15" y="1006" type="line"/>
      <point x="136" y="1006" type="line"/>
    </contour>
  </outline>
</glyph>
<glyph name="z" format="2">
  <advance width="656"/>
  <unicode hex="007A"/>
  <outline>
    <contour>
      <point x="191" y="213" type="line"/>
      <point x="617" y="213" type="line"/>
      <point x="617" y="105" type="line"/>
      <point x="55" y="105" type="line"/>
      <point x="55" y="193" type="line"/>
      <point x="454" y="897" type="line"/>
      <point x="66" y="897" type="line"/>
      <point x="66" y="1006" type="line"/>
      <point x="592" y="1006" type="line"/>
      <point x="592" y="918" type="line"/>
    </contour>
  </outline>
</glyph>
<glyph name="braceleft" format="2">
  <advance width="455"/>
  <unicode hex="007B"/>
  <outline>
    <contour>
      <point x="423" y="-225" type="line"/>
      <point x="189" y="-136"/>
      <point x="184" y="153" type="qcurve"/>
      <point x="184" y="345" type="line" smooth="yes"/>
      <point x="184" y="545"/>
      <point x="42" y="545" type="qcurve"/>
      <point x="42" y="655" type="line"/>
      <point x="181" y="655"/>
      <point x="184" y="841" type="qcurve" smooth="yes"/>
      <point x="184" y="1047" type="line"/>
      <point x="189" y="1339"/>
      <point x="423" y="1428" type="qcurve"/>
      <point x="447" y="1339" type="line"/>
      <point x="300" y="1278"/>
      <point x="297" y="1046" type="qcurve" smooth="yes"/>
      <point x="297" y="859" type="line" smooth="yes"/>
      <point x="297" y="653"/>
      <point x="192" y="600" type="qcurve"/>
      <point x="297" y="544"/>
      <point x="297" y="340" type="qcurve" smooth="yes"/>
      <point x="297" y="160" type="line" smooth="yes"/>
      <point x="299" y="-71"/>
      <point x="449" y="-136" type="qcurve"/>
    </contour>
  </outline>
</glyph>
<glyph name="braceright" format="2">
  <advance width="456"/>
  <unicode hex="007D"/>
  <outline>
    <contour>
      <point x="6" y="-136" type="line"/>
      <point x="158" y="-70"/>
      <point x="159" y="164" type="qcurve" smooth="yes"/>
      <point x="159" y="340" type="line" smooth="yes"/>
      <point x="159" y="548"/>
      <point x="266" y="599" type="qcurve"/>
      <point x="159" y="651"/>
      <point x="159" y="857" type="qcurve" smooth="yes"/>
      <point x="159" y="1046" type="line"/>
      <point x="155" y="1277"/>
      <point x="8" y="1339" type="qcurve"/>
      <point x="32" y="1428" type="line"/>
      <point x="161" y="1379"/>
      <point x="270" y="1187"/>
      <point x="270" y="1034" type="qcurve" smooth="yes"/>
      <point x="270" y="855" type="line" smooth="yes"/>
      <point x="270" y="655"/>
      <point x="413" y="655" type="qcurve"/>
      <point x="413" y="545" type="line"/>
      <point x="270" y="545"/>
      <point x="270" y="343" type="qcurve" smooth="yes"/>
      <point x="270" y="162" type="line" smooth="yes"/>
      <point x="270" y="10"/>
      <point x="159" y="-177"/>
      <point x="32" y="-225" type="qcurve"/>
    </contour>
  </outline>
</glyph>
<glyph name="asciitilde" format="2">
  <advance width="905"/>
  <unicode hex="007E"/>
  <outline>
    <contour>
      <point x="815" y="749" type="line"/>
      <point x="815" y="614"/>
      <point x="703" y="447"/>
      <point x="612" y="447" type="qcurve" smooth="yes"/>
      <point x="531" y="447"/>
      <point x="460" y="519" type="qcurve"/>
      <point x="373" y="615" type="line" smooth="yes"/>
      <point x="334" y="655"/>
      <point x="293" y="655" type="qcurve" smooth="yes"/>
      <point x="247" y="655"/>
      <point x="192" y="568"/>
      <point x="192" y="469" type="qcurve"/>
      <point x="89" y="468" type="line"/>
      <point x="89" y="603"/>
      <point x="199" y="768"/>
      <point x="293" y="768" type="qcurve" smooth="yes"/>
      <point x="343" y="768"/>
      <point x="433" y="714"/>
      <point x="492" y="646" type="qcurve" smooth="yes"/>
      <point x="534" y="593"/>
      <point x="585" y="560"/>
      <point x="612" y="560" type="qcurve" smooth="yes"/>
      <point x="658" y="560"/>
      <point x="716" y="655"/>
      <point x="716" y="749" type="qcurve"/>
    </contour>
  </outline>
</glyph>
<glyph name="u0981" format="2">
  <advance width="2"/>
  <unicode hex="0981"/>
  <outline>
    <contour>
      <point x="-383" y="1750" type="qcurve" smooth="yes"/>
      <point x="-383" y="1721"/>
      <point x="-425" y="1679"/>
      <point x="-454" y="1679" type="qcurve" smooth="yes"/>
      <point x="-484" y="1679"/>
      <point x="-525" y="1721"/>
      <point x="-525" y="1750" type="qcurve" smooth="yes"/>
      <point x="-525" y="1779"/>
      <point x="-484" y="1821"/>
      <point x="-454" y="1821" type="qcurve" smooth="yes"/>
      <point x="-425" y="1821"/>
      <point x="-383" y="1779"/>
    </contour>
    <contour>
      <point x="-453" y="1462" type="qcurve"/>
      <point x="-453" y="1462" type="line"/>
      <point x="-355" y="1462"/>
      <point x="-254" y="1523"/>
      <point x="-216" y="1612"/>
      <point x="-217" y="1658" type="qcurve" smooth="yes"/>
      <point x="-214" y="1699"/>
      <point x="-214" y="1786" type="qcurve"/>
      <point x="-316" y="1785" type="line"/>
      <point x="-317" y="1693"/>
      <point x="-319" y="1662" type="qcurve" smooth="yes"/>
      <point x="-319" y="1659" type="line" smooth="yes"/>
      <point x="-319" y="1629"/>
      <point x="-339" y="1587"/>
      <point x="-397" y="1564"/>
      <point x="-453" y="1564" type="qcurve" smooth="yes"/>
      <point x="-517" y="1564"/>
      <point x="-582" y="1589"/>
      <point x="-605" y="1638"/>
      <point x="-605" y="1674" type="qcurve" smooth="yes"/>
      <point x="-605" y="1784" type="line"/>
      <point x="-707" y="1784" type="line"/>
      <point x="-707" y="1674" type="line" smooth="yes"/>
      <point x="-707" y="1594"/>
      <point x="-646" y="1508"/>
      <point x="-560" y="1469"/>
      <point x="-476" y="1462"/>
    </contour>
  </outline>
</glyph>
<glyph name="u0982" format="2">
  <advance width="627"/>
  <unicode hex="0982"/>
  <outline>
    <contour>
      <point x="327" y="710" type="line"/>
      <point x="327" y="710" type="line"/>
      <point x="393" y="710"/>
      <point x="486" y="795"/>
      <point x="486" y="855" type="qcurve" smooth="yes"/>
      <point x="486" y="1015" type="line" smooth="yes"/>
      <point x="486" y="1075"/>
      <point x="393" y="1160"/>
      <point x="327" y="1160" type="qcurve" smooth="yes"/>
      <point x="250" y="1160" type="line" smooth="yes"/>
      <point x="184" y="1160"/>
      <point x="91" y="1075"/>
      <point x="91" y="1015" type="qcurve" smooth="yes"/>
      <point x="91" y="855" type="line" smooth="yes"/>
      <point x="91" y="795"/>
      <point x="184" y="710"/>
      <point x="250" y="710" type="qcurve" smooth="yes"/>
    </contour>
    <contour>
      <point x="250" y="1046" type="qcurve"/>
      <point x="250" y="1046" type="line"/>
      <point x="327" y="1046" type="line" smooth="yes"/>
      <point x="347" y="1046"/>
      <point x="372" y="1026"/>
      <point x="372" y="1015" type="qcurve" smooth="yes"/>
      <point x="372" y="855" type="line" smooth="yes"/>
      <point x="372" y="844"/>
      <point x="347" y="824"/>
      <point x="327" y="824" type="qcurve" smooth="yes"/>
      <point x="250" y="824" type="line" smooth="yes"/>
      <point x="230" y="824"/>
      <point x="205" y="844"/>
      <point x="205" y="855" type="qcurve" smooth="yes"/>
      <point x="205" y="1015" type="line" smooth="yes"/>
      <point x="205" y="1026"/>
      <point x="230" y="1046"/>
    </contour>
    <contour>
      <point x="454" y="7" type="qcurve"/>
      <point x="454" y="7" type="line"/>
      <point x="565" y="66" type="line"/>
      <point x="563" y="69"/>
      <point x="510" y="175"/>
      <point x="434" y="352"/>
      <point x="397" y="459" type="qcurve" smooth="yes"/>
      <point x="367" y="544"/>
      <point x="213" y="656"/>
      <point x="127" y="656" type="qcurve" smooth="yes"/>
      <point x="70" y="656" type="line"/>
      <point x="70" y="530" type="line"/>
      <point x="127" y="530" type="line" smooth="yes"/>
      <point x="173" y="530"/>
      <point x="261" y="465"/>
      <point x="278" y="419" type="qcurve" smooth="yes"/>
      <point x="317" y="307"/>
      <point x="396" y="124"/>
      <point x="451" y="13"/>
    </contour>
  </outline>
</glyph>
<glyph name="u0983" format="2">
  <advance width="489"/>
  <unicode hex="0983"/>
  <outline>
    <contour>
      <point x="261" y="668" type="line"/>
      <point x="261" y="668" type="line"/>
      <point x="310" y="668"/>
      <point x="380" y="730"/>
      <point x="380" y="773" type="qcurve" smooth="yes"/>
      <point x="380" y="883" type="line" smooth="yes"/>
      <point x="380" y="927"/>
      <point x="310" y="989"/>
      <point x="261" y="989" type="qcurve" smooth="yes"/>
      <point x="207" y="989" type="line" smooth="yes"/>
      <point x="158" y="989"/>
      <point x="88" y="927"/>
      <point x="88" y="883" type="qcurve" smooth="yes"/>
      <point x="88" y="773" type="line" smooth="yes"/>
      <point x="88" y="730"/>
      <point x="158" y="668"/>
      <point x="207" y="668" type="qcurve" smooth="yes"/>
    </contour>
    <contour>
      <point x="207" y="898" type="qcurve"/>
      <point x="207" y="898" type="line"/>
      <point x="261" y="898" type="line" smooth="yes"/>
      <point x="274" y="898"/>
      <point x="290" y="887"/>
      <point x="290" y="883" type="qcurve" smooth="yes"/>
      <point x="290" y="773" type="line" smooth="yes"/>
      <point x="290" y="769"/>
      <point x="274" y="758"/>
      <point x="261" y="758" type="qcurve" smooth="yes"/>
      <point x="207" y="758" type="line" smooth="yes"/>
      <point x="194" y="758"/>
      <point x="179" y="769"/>
      <point x="179" y="773" type="qcurve" smooth="yes"/>
      <point x="179" y="883" type="line" smooth="yes"/>
      <point x="179" y="887"/>
      <point x="194" y="898"/>
    </contour>
    <contour>
      <point x="261" y="260" type="line"/>
      <point x="261" y="260" type="line"/>
      <point x="310" y="260"/>
      <point x="380" y="322"/>
      <point x="380" y="366" type="qcurve" smooth="yes"/>
      <point x="380" y="476" type="line" smooth="yes"/>
      <point x="380" y="520"/>
      <point x="310" y="582"/>
      <point x="261" y="582" type="qcurve" smooth="yes"/>
      <point x="207" y="582" type="line" smooth="yes"/>
      <point x="158" y="582"/>
      <point x="88" y="520"/>
      <point x="88" y="476" type="qcurve" smooth="yes"/>
      <point x="88" y="366" type="line" smooth="yes"/>
      <point x="88" y="322"/>
      <point x="158" y="260"/>
      <point x="207" y="260" type="qcurve" smooth="yes"/>
    </contour>
    <contour>
      <point x="207" y="491" type="qcurve"/>
      <point x="207" y="491" type="line"/>
      <point x="261" y="491" type="line" smooth="yes"/>
      <point x="274" y="491"/>
      <point x="290" y="480"/>
      <point x="290" y="476" type="qcurve" smooth="yes"/>
      <point x="290" y="366" type="line" smooth="yes"/>
      <point x="290" y="362"/>
      <point x="274" y="351"/>
      <point x="261" y="351" type="qcurve" smooth="yes"/>
      <point x="207" y="351" type="line" smooth="yes"/>
      <point x="194" y="351"/>
      <point x="179" y="362"/>
      <point x="179" y="366" type="qcurve" smooth="yes"/>
      <point x="179" y="476" type="line" smooth="yes"/>
      <point x="179" y="480"/>
      <point x="194" y="491"/>
    </contour>
  </outline>
</glyph>
<glyph name="u0985" format="2">
  <advance width="1224"/>
  <unicode hex="0985"/>
  <outline>
    <contour>
      <point x="1039" y="1286" type="line"/>
      <point x="1039" y="1286" type="line"/>
      <point x="1157" y="1286" type="line"/>
      <point x="1157" y="1" type="line"/>
      <point x="1039" y="1" type="line"/>
      <point x="1039" y="1"/>
      <point x="848" y="186"/>
      <point x="765" y="273" type="qcurve"/>
      <point x="724" y="231"/>
      <point x="597" y="180"/>
      <point x="505" y="180" type="qcurve" smooth="yes"/>
      <point x="467" y="180"/>
      <point x="365" y="188"/>
      <point x="259" y="228"/>
      <point x="212" y="275" type="qcurve" smooth="yes"/>
      <point x="95" y="394"/>
      <point x="102" y="662" type="qcurve" smooth="yes"/>
      <point x="105" y="810" type="line"/>
      <point x="222" y="808" type="line"/>
      <point x="219" y="659" type="line" smooth="yes"/>
      <point x="214" y="441"/>
      <point x="296" y="357" type="qcurve" smooth="yes"/>
      <point x="325" y="328"/>
      <point x="396" y="303"/>
      <point x="471" y="298"/>
      <point x="505" y="298" type="qcurve" smooth="yes"/>
      <point x="591" y="298"/>
      <point x="693" y="356"/>
      <point x="744" y="453"/>
      <point x="761" y="576"/>
      <point x="761" y="642" type="qcurve" smooth="yes"/>
      <point x="761" y="659" type="line" smooth="yes"/>
      <point x="759" y="778"/>
      <point x="726" y="882"/>
      <point x="673" y="905"/>
      <point x="642" y="902" type="qcurve" smooth="yes"/>
      <point x="550" y="902"/>
      <point x="547" y="783" type="qcurve" smooth="yes"/>
      <point x="547" y="622" type="line"/>
      <point x="429" y="622" type="line"/>
      <point x="429" y="783" type="line" smooth="yes"/>
      <point x="429" y="865"/>
      <point x="491" y="970"/>
      <point x="589" y="1020"/>
      <point x="642" y="1020" type="qcurve" smooth="yes"/>
      <point x="712" y="1022"/>
      <point x="818" y="964"/>
      <point x="877" y="807"/>
      <point x="879" y="659" type="qcurve" smooth="yes"/>
      <point x="879" y="658" type="line"/>
      <point x="878" y="640" type="line" smooth="yes"/>
      <point x="879" y="593"/>
      <point x="863" y="447"/>
      <point x="832" y="372" type="qcurve"/>
      <point x="928" y="269"/>
      <point x="1039" y="163" type="qcurve"/>
    </contour>
    <contour>
      <point x="1267" y="1190" type="line"/>
      <point x="-50" y="1190" type="line"/>
      <point x="-50" y="1286" type="line"/>
      <point x="1267" y="1286" type="line"/>
      <point x="1267" y="1190" type="line"/>
    </contour>
  </outline>
</glyph>
<glyph name="u0987" format="2">
  <advance width="749"/>
  <unicode hex="0987"/>
  <outline>
    <contour>
      <point x="608" y="-34" type="line"/>
      <point x="608" y="-34" type="line"/>
      <point x="674" y="63" type="line"/>
      <point x="320" y="303" type="line"/>
      <point x="450" y="323"/>
      <point x="529" y="412" type="qcurve" smooth="yes"/>
      <point x="582" y="476"/>
      <point x="623" y="616"/>
      <point x="628" y="724"/>
      <point x="625" y="740" type="qcurve" smooth="yes"/>
      <point x="622" y="883"/>
      <point x="530" y="1022"/>
      <point x="414" y="1064"/>
      <point x="374" y="1062" type="qcurve" smooth="yes"/>
      <point x="285" y="1062"/>
      <point x="166" y="925"/>
      <point x="166" y="823" type="qcurve" smooth="yes"/>
      <point x="166" y="685" type="line"/>
      <point x="283" y="685" type="line"/>
      <point x="283" y="823" type="line" smooth="yes"/>
      <point x="283" y="876"/>
      <point x="334" y="945"/>
      <point x="374" y="945" type="qcurve" smooth="yes"/>
      <point x="387" y="945"/>
      <point x="430" y="937"/>
      <point x="476" y="900"/>
      <point x="508" y="815"/>
      <point x="508" y="737" type="qcurve" smooth="yes"/>
      <point x="508" y="731" type="line" smooth="yes"/>
      <point x="508" y="730"/>
      <point x="509" y="682"/>
      <point x="500" y="607"/>
      <point x="471" y="525"/>
      <point x="441" y="490" type="qcurve" smooth="yes"/>
      <point x="377" y="419"/>
      <point x="255" y="416" type="qcurve" smooth="yes"/>
      <point x="197" y="416"/>
      <point x="192" y="416" type="qcurve" smooth="yes"/>
      <point x="134" y="416" type="line"/>
      <point x="134" y="288" type="line"/>
    </contour>
    <contour>
      <point x="786" y="1190" type="line"/>
      <point x="786" y="1190" type="line"/>
      <point x="786" y="1286" type="line"/>
      <point x="-50" y="1286" type="line"/>
      <point x="-50" y="1190" type="line"/>
    </contour>
    <contour>
      <point x="702" y="1260" type="line"/>
      <point x="702" y="1260" type="line"/>
      <point x="707" y="1284" type="line" smooth="yes"/>
      <point x="713" y="1320"/>
      <point x="709" y="1403"/>
      <point x="707" y="1416" type="qcurve" smooth="yes"/>
      <point x="707" y="1419" type="line" smooth="yes"/>
      <point x="704" y="1448"/>
      <point x="658" y="1531"/>
      <point x="541" y="1594"/>
      <point x="432" y="1594" type="qcurve" smooth="yes"/>
      <point x="387" y="1592"/>
      <point x="265" y="1592" type="qcurve" smooth="yes"/>
      <point x="249" y="1592" type="line" smooth="yes"/>
      <point x="187" y="1591"/>
      <point x="151" y="1613"/>
      <point x="151" y="1663" type="qcurve" smooth="yes"/>
      <point x="151" y="1727" type="line"/>
      <point x="41" y="1727" type="line"/>
      <point x="41" y="1662" type="line"/>
      <point x="41" y="1660" type="line"/>
      <point x="45" y="1574"/>
      <point x="112" y="1499"/>
      <point x="204" y="1481"/>
      <point x="248" y="1482" type="qcurve" smooth="yes"/>
      <point x="264" y="1482" type="line" smooth="yes"/>
      <point x="386" y="1482"/>
      <point x="434" y="1483" type="qcurve" smooth="yes"/>
      <point x="487" y="1486"/>
      <point x="586" y="1453"/>
      <point x="598" y="1403" type="qcurve"/>
      <point x="604" y="1348"/>
      <point x="599" y="1307" type="qcurve" smooth="yes"/>
      <point x="594" y="1283" type="line"/>
    </contour>
  </outline>
</glyph>
<glyph name="u0988" format="2">
  <advance width="969"/>
  <unicode hex="0988"/>
  <outline>
    <contour>
      <point x="724" y="1279" type="line"/>
      <point x="846" y="1279" type="line"/>
      <point x="852" y="1314"/>
      <point x="849" y="1353" type="qcurve" smooth="yes"/>
      <point x="846" y="1398"/>
      <point x="844" y="1413" type="qcurve" smooth="yes"/>
      <point x="843" y="1416" type="line"/>
      <point x="839" y="1447"/>
      <point x="783" y="1535"/>
      <point x="639" y="1602"/>
      <point x="505" y="1602" type="qcurve" smooth="yes"/>
      <point x="448" y="1601"/>
      <point x="294" y="1601" type="qcurve" smooth="yes"/>
      <point x="273" y="1601" type="line" smooth="yes"/>
      <point x="185" y="1600"/>
      <point x="137" y="1627"/>
      <point x="139" y="1677" type="qcurve" smooth="yes"/>
      <point x="139" y="1746" type="line"/>
      <point x="20" y="1746" type="line"/>
      <point x="20" y="1674" type="line"/>
      <point x="25" y="1581"/>
      <point x="106" y="1500"/>
      <point x="219" y="1481"/>
      <point x="272" y="1482" type="qcurve" smooth="yes"/>
      <point x="292" y="1482" type="line" smooth="yes"/>
      <point x="446" y="1482"/>
      <point x="507" y="1484" type="qcurve" smooth="yes"/>
      <point x="702" y="1485"/>
      <point x="727" y="1395" type="qcurve"/>
      <point x="734" y="1338"/>
      <point x="728" y="1295" type="qcurve"/>
    </contour>
    <contour>
      <point x="779" y="813" type="line"/>
      <point x="779" y="813" type="line"/>
      <point x="884" y="813" type="line"/>
      <point x="884" y="1" type="line"/>
      <point x="766" y="1" type="line"/>
      <point x="766" y="661" type="line"/>
      <point x="546" y="507" type="line"/>
      <point x="526" y="408"/>
      <point x="455" y="321" type="qcurve"/>
      <point x="358" y="214"/>
      <point x="195" y="209" type="qcurve" smooth="yes"/>
      <point x="179" y="209"/>
      <point x="140" y="209" type="qcurve" smooth="yes"/>
      <point x="130" y="209" type="line"/>
      <point x="130" y="327" type="line"/>
      <point x="140" y="327" type="line" smooth="yes"/>
      <point x="176" y="327"/>
      <point x="192" y="327" type="qcurve" smooth="yes"/>
      <point x="304" y="329"/>
      <point x="367" y="399" type="qcurve" smooth="yes"/>
      <point x="402" y="440"/>
      <point x="436" y="540"/>
      <point x="447" y="633"/>
      <point x="446" y="694"/>
      <point x="446" y="695" type="qcurve" smooth="yes"/>
      <point x="446" y="701" type="line" smooth="yes"/>
      <point x="446" y="943"/>
      <point x="312" y="945" type="qcurve" smooth="yes"/>
      <point x="273" y="945"/>
      <point x="221" y="861"/>
      <point x="221" y="798" type="qcurve" smooth="yes"/>
      <point x="221" y="642" type="line"/>
      <point x="104" y="642" type="line"/>
      <point x="104" y="798" type="line" smooth="yes"/>
      <point x="104" y="911"/>
      <point x="223" y="1062"/>
      <point x="312" y="1062" type="qcurve" smooth="yes"/>
      <point x="352" y="1065"/>
      <point x="468" y="1018"/>
      <point x="560" y="863"/>
      <point x="563" y="703" type="qcurve" smooth="yes"/>
      <point x="564" y="693"/>
      <point x="564" y="663" type="qcurve"/>
    </contour>
    <contour>
      <point x="997" y="1190" type="line"/>
      <point x="997" y="1190" type="line"/>
      <point x="997" y="1286" type="line"/>
      <point x="-50" y="1286" type="line"/>
      <point x="-50" y="1190" type="line"/>
    </contour>
  </outline>
</glyph>
<glyph name="u0989" format="2">
  <advance width="969"/>
  <unicode hex="0989"/>
  <outline>
    <contour>
      <point x="924" y="681" type="line"/>
      <point x="919" y="816" type="line"/>
      <point x="812" y="813" type="line"/>
      <point x="810" y="764" type="line" smooth="yes"/>
      <point x="806" y="734"/>
      <point x="739" y="660"/>
      <point x="655" y="652" type="qcurve"/>
      <point x="572" y="653"/>
      <point x="543" y="681" type="qcurve"/>
      <point x="520" y="710"/>
      <point x="524" y="765" type="qcurve"/>
      <point x="524" y="1230" type="line"/>
      <point x="406" y="1230" type="line"/>
      <point x="406" y="774" type="line"/>
      <point x="406" y="765" type="line" smooth="yes"/>
      <point x="404" y="732"/>
      <point x="421" y="641"/>
      <point x="459" y="598" type="qcurve" smooth="yes"/>
      <point x="522" y="535"/>
      <point x="657" y="535" type="qcurve" smooth="yes"/>
      <point x="658" y="535" type="line"/>
      <point x="660" y="535" type="line"/>
      <point x="747" y="539"/>
      <point x="806" y="575" type="qcurve"/>
      <point x="805" y="513"/>
      <point x="802" y="412"/>
      <point x="802" y="408" type="qcurve" smooth="yes"/>
      <point x="802" y="406" type="line" smooth="yes"/>
      <point x="802" y="279"/>
      <point x="675" y="172"/>
      <point x="527" y="172" type="qcurve" smooth="yes"/>
      <point x="357" y="172"/>
      <point x="219" y="289"/>
      <point x="219" y="435" type="qcurve" smooth="yes"/>
      <point x="219" y="760" type="line"/>
      <point x="102" y="760" type="line"/>
      <point x="102" y="435" type="line" smooth="yes"/>
      <point x="102" y="307"/>
      <point x="182" y="155"/>
      <point x="310" y="78"/>
      <point x="459" y="54"/>
      <point x="527" y="54" type="qcurve" smooth="yes"/>
      <point x="706" y="54"/>
      <point x="797" y="122" type="qcurve" smooth="yes"/>
      <point x="918" y="210"/>
      <point x="919" y="404" type="qcurve"/>
      <point x="924" y="502"/>
      <point x="924" y="681" type="qcurve"/>
    </contour>
    <contour>
      <point x="724" y="1279" type="line"/>
      <point x="846" y="1279" type="line"/>
      <point x="852" y="1314"/>
      <point x="849" y="1353" type="qcurve" smooth="yes"/>
      <point x="846" y="1398"/>
      <point x="844" y="1413" type="qcurve" smooth="yes"/>
      <point x="843" y="1416" type="line"/>
      <point x="839" y="1447"/>
      <point x="783" y="1535"/>
      <point x="639" y="1602"/>
      <point x="505" y="1602" type="qcurve" smooth="yes"/>
      <point x="448" y="1601"/>
      <point x="294" y="1601" type="qcurve" smooth="yes"/>
      <point x="273" y="1601" type="line" smooth="yes"/>
      <point x="185" y="1600"/>
      <point x="137" y="1627"/>
      <point x="139" y="1677" type="qcurve" smooth="yes"/>
      <point x="139" y="1746" type="line"/>
      <point x="20" y="1746" type="line"/>
      <point x="20" y="1674" type="line"/>
      <point x="25" y="1581"/>
      <point x="106" y="1500"/>
      <point x="219" y="1481"/>
      <point x="272" y="1482" type="qcurve" smooth="yes"/>
      <point x="292" y="1482" type="line" smooth="yes"/>
      <point x="446" y="1482"/>
      <point x="507" y="1484" type="qcurve" smooth="yes"/>
      <point x="702" y="1485"/>
      <point x="727" y="1395" type="qcurve"/>
      <point x="734" y="1338"/>
      <point x="728" y="1295" type="qcurve"/>
    </contour>
    <contour>
      <point x="997" y="1190" type="line"/>
      <point x="997" y="1190" type="line"/>
      <point x="997" y="1286" type="line"/>
      <point x="-50" y="1286" type="line"/>
      <point x="-50" y="1190" type="line"/>
    </contour>
  </outline>
</glyph>
<glyph name="u098A" format="2">
  <advance width="1101"/>
  <unicode hex="098A"/>
  <outline>
    <contour>
      <point x="1046" y="683" type="line"/>
      <point x="1046" y="683" type="line"/>
      <point x="1046" y="504"/>
      <point x="1041" y="406" type="qcurve"/>
      <point x="1041" y="211"/>
      <point x="919" y="123" type="qcurve" smooth="yes"/>
      <point x="828" y="55"/>
      <point x="648" y="55" type="qcurve" smooth="yes"/>
      <point x="554" y="55"/>
      <point x="409" y="94"/>
      <point x="315" y="203"/>
      <point x="296" y="304" type="qcurve"/>
      <point x="200" y="309"/>
      <point x="147" y="360" type="qcurve" smooth="yes"/>
      <point x="107" y="402"/>
      <point x="90" y="540"/>
      <point x="93" y="646" type="qcurve" smooth="yes"/>
      <point x="93" y="683"/>
      <point x="93" y="726" type="qcurve" smooth="yes"/>
      <point x="93" y="896" type="line"/>
      <point x="211" y="896" type="line"/>
      <point x="211" y="726" type="line" smooth="yes"/>
      <point x="211" y="682"/>
      <point x="211" y="645" type="qcurve" smooth="yes"/>
      <point x="209" y="566"/>
      <point x="215" y="460"/>
      <point x="231" y="443" type="qcurve" smooth="yes"/>
      <point x="248" y="428"/>
      <point x="286" y="424" type="qcurve"/>
      <point x="286" y="430"/>
      <point x="286" y="436" type="qcurve" smooth="yes"/>
      <point x="286" y="767" type="line"/>
      <point x="404" y="767" type="line"/>
      <point x="404" y="436" type="line" smooth="yes"/>
      <point x="404" y="347"/>
      <point x="433" y="241"/>
      <point x="492" y="189"/>
      <point x="585" y="173"/>
      <point x="648" y="173" type="qcurve" smooth="yes"/>
      <point x="797" y="173"/>
      <point x="923" y="281"/>
      <point x="923" y="407" type="qcurve"/>
      <point x="924" y="409" type="line" smooth="yes"/>
      <point x="924" y="413"/>
      <point x="927" y="513"/>
      <point x="928" y="575" type="qcurve"/>
      <point x="869" y="541"/>
      <point x="784" y="536" type="qcurve"/>
      <point x="782" y="536" type="line"/>
      <point x="781" y="536" type="line" smooth="yes"/>
      <point x="645" y="536"/>
      <point x="583" y="600" type="qcurve" smooth="yes"/>
      <point x="544" y="643"/>
      <point x="528" y="735"/>
      <point x="530" y="768" type="qcurve" smooth="yes"/>
      <point x="530" y="776" type="line"/>
      <point x="530" y="1232" type="line"/>
      <point x="648" y="1232" type="line"/>
      <point x="648" y="767" type="line"/>
      <point x="643" y="712"/>
      <point x="667" y="683" type="qcurve"/>
      <point x="696" y="655"/>
      <point x="779" y="654" type="qcurve"/>
      <point x="849" y="660"/>
      <point x="916" y="720"/>
      <point x="926" y="752" type="qcurve"/>
      <point x="924" y="815" type="line"/>
      <point x="1041" y="819" type="line"/>
    </contour>
    <contour>
      <point x="824" y="1279" type="line"/>
      <point x="828" y="1295" type="line"/>
      <point x="834" y="1338"/>
      <point x="827" y="1395" type="qcurve"/>
      <point x="802" y="1485"/>
      <point x="607" y="1484" type="qcurve" smooth="yes"/>
      <point x="546" y="1482"/>
      <point x="392" y="1482" type="qcurve" smooth="yes"/>
      <point x="372" y="1482" type="line" smooth="yes"/>
      <point x="319" y="1481"/>
      <point x="206" y="1500"/>
      <point x="125" y="1581"/>
      <point x="120" y="1674" type="qcurve"/>
      <point x="120" y="1746" type="line"/>
      <point x="239" y="1746" type="line"/>
      <point x="239" y="1677" type="line" smooth="yes"/>
      <point x="237" y="1627"/>
      <point x="285" y="1600"/>
      <point x="373" y="1601" type="qcurve" smooth="yes"/>
      <point x="394" y="1601" type="line" smooth="yes"/>
      <point x="548" y="1601"/>
      <point x="605" y="1602" type="qcurve" smooth="yes"/>
      <point x="739" y="1602"/>
      <point x="883" y="1535"/>
      <point x="939" y="1447"/>
      <point x="943" y="1416" type="qcurve"/>
      <point x="944" y="1413" type="line" smooth="yes"/>
      <point x="946" y="1398"/>
      <point x="949" y="1353" type="qcurve" smooth="yes"/>
      <point x="952" y="1314"/>
      <point x="946" y="1279" type="qcurve"/>
    </contour>
    <contour>
      <point x="1137" y="1190" type="line"/>
      <point x="-50" y="1190" type="line"/>
      <point x="-50" y="1286" type="line"/>
      <point x="1137" y="1286" type="line"/>
      <point x="1137" y="1190" type="line"/>
    </contour>
  </outline>
</glyph>
<glyph name="u098B" format="2">
  <advance width="1101"/>
  <unicode hex="098B"/>
  <outline>
    <contour>
      <point x="1043" y="1369" type="line"/>
      <point x="1043" y="1369" type="line"/>
      <point x="1043" y="1" type="line"/>
      <point x="928" y="1" type="line"/>
      <point x="925" y="4" type="line"/>
      <point x="906" y="29"/>
      <point x="882" y="57" type="qcurve" smooth="yes"/>
      <point x="856" y="88"/>
      <point x="833" y="118" type="qcurve" smooth="yes"/>
      <point x="722" y="268" type="line"/>
      <point x="722" y="1" type="line"/>
      <point x="614" y="1" type="line"/>
      <point x="605" y="1" type="line"/>
      <point x="605" y="1" type="line"/>
      <point x="228" y="266" type="line" smooth="yes"/>
      <point x="169" y="308"/>
      <point x="136" y="372" type="qcurve" smooth="yes"/>
      <point x="102" y="437"/>
      <point x="102" y="508" type="qcurve" smooth="yes"/>
      <point x="102" y="531" type="line" smooth="yes"/>
      <point x="102" y="613"/>
      <point x="147" y="686" type="qcurve" smooth="yes"/>
      <point x="169" y="721"/>
      <point x="223" y="767"/>
      <point x="252" y="786" type="qcurve" smooth="yes"/>
      <point x="259" y="791" type="line" smooth="yes"/>
      <point x="334" y="841"/>
      <point x="370" y="855" type="qcurve" smooth="yes"/>
      <point x="449" y="894"/>
      <point x="529" y="931" type="qcurve"/>
      <point x="520" y="931" type="line" smooth="yes"/>
      <point x="478" y="931"/>
      <point x="444" y="960" type="qcurve"/>
      <point x="402" y="931"/>
      <point x="346" y="931" type="qcurve" smooth="yes"/>
      <point x="287" y="931" type="line" smooth="yes"/>
      <point x="223" y="931"/>
      <point x="134" y="1004"/>
      <point x="134" y="1057" type="qcurve" smooth="yes"/>
      <point x="134" y="1198" type="line"/>
      <point x="252" y="1198" type="line"/>
      <point x="252" y="1059" type="line" smooth="yes"/>
      <point x="255" y="1056"/>
      <point x="272" y="1048"/>
      <point x="287" y="1048" type="qcurve" smooth="yes"/>
      <point x="346" y="1048" type="line" smooth="yes"/>
      <point x="360" y="1048"/>
      <point x="378" y="1056"/>
      <point x="380" y="1059" type="qcurve" smooth="yes"/>
      <point x="380" y="1115" type="line"/>
      <point x="380" y="1177" type="line"/>
      <point x="380" y="1198" type="line"/>
      <point x="498" y="1198" type="line"/>
      <point x="498" y="1177" type="line"/>
      <point x="498" y="1115" type="line" smooth="yes"/>
      <point x="498" y="1085"/>
      <point x="515" y="1051"/>
      <point x="521" y="1048" type="qcurve" smooth="yes"/>
      <point x="605" y="1048" type="line"/>
      <point x="605" y="1283" type="line"/>
      <point x="722" y="1283" type="line"/>
      <point x="722" y="490" type="line"/>
      <point x="735" y="446"/>
      <point x="755" y="422" type="qcurve" smooth="yes"/>
      <point x="925" y="190" type="line"/>
      <point x="925" y="1369" type="line"/>
    </contour>
    <contour>
      <point x="296" y="362" type="qcurve"/>
      <point x="296" y="362" type="line"/>
      <point x="605" y="145" type="line"/>
      <point x="605" y="836" type="line"/>
      <point x="513" y="794"/>
      <point x="421" y="750" type="qcurve" smooth="yes"/>
      <point x="390" y="737"/>
      <point x="326" y="695" type="qcurve" smooth="yes"/>
      <point x="319" y="690" type="line" smooth="yes"/>
      <point x="271" y="660"/>
      <point x="247" y="624" type="qcurve" smooth="yes"/>
      <point x="220" y="580"/>
      <point x="220" y="531" type="qcurve" smooth="yes"/>
      <point x="220" y="508" type="line" smooth="yes"/>
      <point x="220" y="465"/>
      <point x="240" y="426" type="qcurve" smooth="yes"/>
      <point x="260" y="387"/>
    </contour>
    <contour>
      <point x="1168" y="1190" type="line"/>
      <point x="950" y="1190" type="line"/>
      <point x="950" y="1286" type="line"/>
      <point x="1168" y="1286" type="line"/>
      <point x="1168" y="1190" type="line"/>
    </contour>
  </outline>
</glyph>
<glyph name="u098F" format="2">
  <advance width="870"/>
  <unicode hex="098F"/>
  <outline>
    <contour>
      <point x="470" y="0" type="qcurve"/>
      <point x="470" y="0" type="line"/>
      <point x="677" y="0"/>
      <point x="743" y="2" type="qcurve" smooth="yes"/>
      <point x="799" y="3" type="line"/>
      <point x="798" y="734" type="line"/>
      <point x="798" y="1014" type="line" smooth="yes"/>
      <point x="798" y="1092"/>
      <point x="687" y="1202"/>
      <point x="610" y="1202" type="qcurve" smooth="yes"/>
      <point x="543" y="1202" type="line" smooth="yes"/>
      <point x="456" y="1202"/>
      <point x="332" y="1078"/>
      <point x="332" y="991" type="qcurve" smooth="yes"/>
      <point x="332" y="601" type="line"/>
      <point x="446" y="601" type="line"/>
      <point x="446" y="991" type="line" smooth="yes"/>
      <point x="446" y="1031"/>
      <point x="503" y="1088"/>
      <point x="543" y="1088" type="qcurve" smooth="yes"/>
      <point x="610" y="1088" type="line" smooth="yes"/>
      <point x="641" y="1088"/>
      <point x="684" y="1045"/>
      <point x="684" y="1014" type="qcurve" smooth="yes"/>
      <point x="684" y="734" type="line"/>
      <point x="685" y="115" type="line"/>
      <point x="594" y="113"/>
      <point x="470" y="113" type="qcurve" smooth="yes"/>
      <point x="393" y="113"/>
      <point x="285" y="152"/>
      <point x="228" y="261"/>
      <point x="228" y="368" type="qcurve" smooth="yes"/>
      <point x="228" y="686" type="line"/>
      <point x="114" y="686" type="line"/>
      <point x="114" y="368" type="line" smooth="yes"/>
      <point x="114" y="244"/>
      <point x="181" y="97"/>
      <point x="288" y="23"/>
      <point x="412" y="0"/>
    </contour>
  </outline>
</glyph>
<glyph name="u0990" format="2">
  <advance width="1112"/>
  <unicode hex="0990"/>
  <outline>
    <contour>
      <point x="838" y="500" type="line"/>
      <point x="838" y="500" type="line"/>
      <point x="914" y="500"/>
      <point x="1023" y="631"/>
      <point x="1023" y="724" type="qcurve" smooth="yes"/>
      <point x="1023" y="821"/>
      <point x="1006" y="1034"/>
      <point x="973" y="1130" type="qcurve" smooth="yes"/>
      <point x="920" y="1278"/>
      <point x="843" y="1415" type="qcurve" smooth="yes"/>
      <point x="774" y="1538" type="line"/>
      <point x="676" y="1483" type="line"/>
      <point x="745" y="1360" type="line" smooth="yes"/>
      <point x="817" y="1231"/>
      <point x="867" y="1092" type="qcurve" smooth="yes"/>
      <point x="896" y="1008"/>
      <point x="910" y="814"/>
      <point x="910" y="724" type="qcurve" smooth="yes"/>
      <point x="910" y="679"/>
      <point x="866" y="613"/>
      <point x="838" y="613" type="qcurve" smooth="yes"/>
      <point x="694" y="613" type="line"/>
      <point x="694" y="500" type="line"/>
    </contour>
    <contour>
      <point x="470" y="0" type="qcurve"/>
      <point x="470" y="0" type="line"/>
      <point x="677" y="0"/>
      <point x="743" y="2" type="qcurve" smooth="yes"/>
      <point x="799" y="3" type="line"/>
      <point x="798" y="734" type="line"/>
      <point x="798" y="1014" type="line" smooth="yes"/>
      <point x="798" y="1092"/>
      <point x="687" y="1202"/>
      <point x="610" y="1202" type="qcurve" smooth="yes"/>
      <point x="543" y="1202" type="line" smooth="yes"/>
      <point x="456" y="1202"/>
      <point x="332" y="1078"/>
      <point x="332" y="991" type="qcurve" smooth="yes"/>
      <point x="332" y="601" type="line"/>
      <point x="446" y="601" type="line"/>
      <point x="446" y="991" type="line" smooth="yes"/>
      <point x="446" y="1031"/>
      <point x="503" y="1088"/>
      <point x="543" y="1088" type="qcurve" smooth="yes"/>
      <point x="610" y="1088" type="line" smooth="yes"/>
      <point x="641" y="1088"/>
      <point x="684" y="1045"/>
      <point x="684" y="1014" type="qcurve" smooth="yes"/>
      <point x="684" y="734" type="line"/>
      <point x="685" y="115" type="line"/>
      <point x="594" y="113"/>
      <point x="470" y="113" type="qcurve" smooth="yes"/>
      <point x="393" y="113"/>
      <point x="285" y="152"/>
      <point x="228" y="261"/>
      <point x="228" y="368" type="qcurve" smooth="yes"/>
      <point x="228" y="686" type="line"/>
      <point x="114" y="686" type="line"/>
      <point x="114" y="368" type="line" smooth="yes"/>
      <point x="114" y="244"/>
      <point x="181" y="97"/>
      <point x="288" y="23"/>
      <point x="412" y="0"/>
    </contour>
  </outline>
</glyph>
<glyph name="u0993" format="2">
  <advance width="822"/>
  <unicode hex="0993"/>
  <outline>
    <contour>
      <point x="767" y="458" type="qcurve"/>
      <point x="767" y="458" type="line"/>
      <point x="768" y="279" type="line" smooth="yes"/>
      <point x="765" y="161"/>
      <point x="608" y="3"/>
      <point x="490" y="0" type="qcurve" smooth="yes"/>
      <point x="466" y="0"/>
      <point x="442" y="0" type="qcurve" smooth="yes"/>
      <point x="385" y="0"/>
      <point x="262" y="23"/>
      <point x="157" y="96"/>
      <point x="90" y="241"/>
      <point x="90" y="364" type="qcurve" smooth="yes"/>
      <point x="90" y="679" type="line"/>
      <point x="203" y="679" type="line"/>
      <point x="203" y="364" type="line" smooth="yes"/>
      <point x="203" y="259"/>
      <point x="259" y="150"/>
      <point x="366" y="112"/>
      <point x="442" y="112" type="qcurve" smooth="yes"/>
      <point x="466" y="112"/>
      <point x="489" y="112" type="qcurve" smooth="yes"/>
      <point x="560" y="114"/>
      <point x="653" y="209"/>
      <point x="655" y="279" type="qcurve" smooth="yes"/>
      <point x="655" y="458" type="line" smooth="yes"/>
      <point x="654" y="500"/>
      <point x="597" y="556"/>
      <point x="557" y="556" type="qcurve" smooth="yes"/>
      <point x="537" y="556" type="line"/>
      <point x="537" y="668" type="line"/>
      <point x="557" y="668" type="line" smooth="yes"/>
      <point x="559" y="668"/>
      <point x="561" y="668" type="qcurve" smooth="yes"/>
      <point x="574" y="670"/>
      <point x="638" y="697"/>
      <point x="641" y="725" type="qcurve" smooth="yes"/>
      <point x="641" y="727" type="line"/>
      <point x="641" y="1004" type="line" smooth="yes"/>
      <point x="641" y="1034"/>
      <point x="598" y="1077"/>
      <point x="567" y="1077" type="qcurve" smooth="yes"/>
      <point x="502" y="1077" type="line" smooth="yes"/>
      <point x="462" y="1077"/>
      <point x="405" y="1021"/>
      <point x="405" y="981" type="qcurve" smooth="yes"/>
      <point x="405" y="595" type="line"/>
      <point x="293" y="595" type="line"/>
      <point x="293" y="981" type="line" smooth="yes"/>
      <point x="293" y="1067"/>
      <point x="415" y="1190"/>
      <point x="502" y="1190" type="qcurve" smooth="yes"/>
      <point x="567" y="1190" type="line" smooth="yes"/>
      <point x="644" y="1190"/>
      <point x="753" y="1081"/>
      <point x="753" y="1004" type="qcurve" smooth="yes"/>
      <point x="753" y="727" type="line" smooth="yes"/>
      <point x="751" y="651"/>
      <point x="700" y="611" type="qcurve"/>
      <point x="765" y="551"/>
    </contour>
  </outline>
</glyph>
<glyph name="u0994" format="2">
  <advance width="1093"/>
  <unicode hex="0994"/>
  <outline>
    <contour>
      <point x="838" y="500" type="line"/>
      <point x="694" y="500" type="line"/>
      <point x="694" y="613" type="line"/>
      <point x="838" y="613" type="line" smooth="yes"/>
      <point x="866" y="613"/>
      <point x="910" y="679"/>
      <point x="910" y="724" type="qcurve" smooth="yes"/>
      <point x="910" y="814"/>
      <point x="896" y="1008"/>
      <point x="867" y="1092" type="qcurve" smooth="yes"/>
      <point x="817" y="1231"/>
      <point x="745" y="1360" type="qcurve" smooth="yes"/>
      <point x="676" y="1483" type="line"/>
      <point x="774" y="1538" type="line"/>
      <point x="843" y="1415" type="line" smooth="yes"/>
      <point x="920" y="1278"/>
      <point x="973" y="1130" type="qcurve" smooth="yes"/>
      <point x="1006" y="1034"/>
      <point x="1023" y="821"/>
      <point x="1023" y="724" type="qcurve" smooth="yes"/>
      <point x="1023" y="631"/>
      <point x="914" y="500"/>
      <point x="838" y="500" type="qcurve"/>
    </contour>
    <contour>
      <point x="767" y="458" type="qcurve"/>
      <point x="767" y="458" type="line"/>
      <point x="768" y="279" type="line" smooth="yes"/>
      <point x="765" y="161"/>
      <point x="608" y="3"/>
      <point x="490" y="0" type="qcurve" smooth="yes"/>
      <point x="466" y="0"/>
      <point x="442" y="0" type="qcurve" smooth="yes"/>
      <point x="385" y="0"/>
      <point x="262" y="23"/>
      <point x="157" y="96"/>
      <point x="90" y="241"/>
      <point x="90" y="364" type="qcurve" smooth="yes"/>
      <point x="90" y="679" type="line"/>
      <point x="203" y="679" type="line"/>
      <point x="203" y="364" type="line" smooth="yes"/>
      <point x="203" y="259"/>
      <point x="259" y="150"/>
      <point x="366" y="112"/>
      <point x="442" y="112" type="qcurve" smooth="yes"/>
      <point x="466" y="112"/>
      <point x="489" y="112" type="qcurve" smooth="yes"/>
      <point x="560" y="114"/>
      <point x="653" y="209"/>
      <point x="655" y="279" type="qcurve" smooth="yes"/>
      <point x="655" y="458" type="line" smooth="yes"/>
      <point x="654" y="500"/>
      <point x="597" y="556"/>
      <point x="557" y="556" type="qcurve" smooth="yes"/>
      <point x="537" y="556" type="line"/>
      <point x="537" y="668" type="line"/>
      <point x="557" y="668" type="line" smooth="yes"/>
      <point x="559" y="668"/>
      <point x="561" y="668" type="qcurve" smooth="yes"/>
      <point x="574" y="670"/>
      <point x="638" y="697"/>
      <point x="641" y="725" type="qcurve" smooth="yes"/>
      <point x="641" y="727" type="line"/>
      <point x="641" y="1004" type="line" smooth="yes"/>
      <point x="641" y="1034"/>
      <point x="598" y="1077"/>
      <point x="567" y="1077" type="qcurve" smooth="yes"/>
      <point x="502" y="1077" type="line" smooth="yes"/>
      <point x="462" y="1077"/>
      <point x="405" y="1021"/>
      <point x="405" y="981" type="qcurve" smooth="yes"/>
      <point x="405" y="595" type="line"/>
      <point x="293" y="595" type="line"/>
      <point x="293" y="981" type="line" smooth="yes"/>
      <point x="293" y="1067"/>
      <point x="415" y="1190"/>
      <point x="502" y="1190" type="qcurve" smooth="yes"/>
      <point x="567" y="1190" type="line" smooth="yes"/>
      <point x="644" y="1190"/>
      <point x="753" y="1081"/>
      <point x="753" y="1004" type="qcurve" smooth="yes"/>
      <point x="753" y="727" type="line" smooth="yes"/>
      <point x="751" y="651"/>
      <point x="700" y="611" type="qcurve"/>
      <point x="765" y="551"/>
    </contour>
  </outline>
</glyph>
<glyph name="u0995" format="2">
  <advance width="1077"/>
  <unicode hex="0995"/>
  <anchor x="800" y="24" name="Anchor-1"/>
  <anchor x="870" y="83" name="Anchor-0"/>
  <outline>
    <contour>
      <point x="1008" y="857" type="qcurve"/>
      <point x="1008" y="857" type="line"/>
      <point x="1022" y="831"/>
      <point x="1036" y="693"/>
      <point x="1032" y="514" type="qcurve" smooth="yes"/>
      <point x="1032" y="478"/>
      <point x="1019" y="399"/>
      <point x="992" y="358" type="qcurve" smooth="yes"/>
      <point x="969" y="324"/>
      <point x="920" y="286"/>
      <point x="906" y="278" type="qcurve" smooth="yes"/>
      <point x="859" y="248"/>
      <point x="799" y="220"/>
      <point x="759" y="220" type="qcurve"/>
      <point x="759" y="220"/>
      <point x="759" y="220" type="qcurve"/>
      <point x="759" y="338" type="line"/>
      <point x="759" y="338"/>
      <point x="759" y="338" type="qcurve"/>
      <point x="784" y="338"/>
      <point x="844" y="378" type="qcurve" smooth="yes"/>
      <point x="867" y="389"/>
      <point x="895" y="423" type="qcurve"/>
      <point x="917" y="457"/>
      <point x="914" y="517" type="qcurve"/>
      <point x="917" y="637"/>
      <point x="912" y="759"/>
      <point x="903" y="806"/>
      <point x="899" y="814" type="qcurve" smooth="yes"/>
      <point x="898" y="817" type="line"/>
      <point x="868" y="890"/>
      <point x="738" y="958"/>
      <point x="686" y="967" type="qcurve"/>
      <point x="686" y="1" type="line"/>
      <point x="571" y="1" type="line"/>
      <point x="570" y="1" type="line"/>
      <point x="569" y="2" type="line"/>
      <point x="214" y="306" type="line" smooth="yes"/>
      <point x="159" y="353"/>
      <point x="129" y="424" type="qcurve" smooth="yes"/>
      <point x="99" y="494"/>
      <point x="99" y="570" type="qcurve" smooth="yes"/>
      <point x="99" y="597" type="line" smooth="yes"/>
      <point x="99" y="685"/>
      <point x="138" y="764" type="qcurve" smooth="yes"/>
      <point x="158" y="802"/>
      <point x="209" y="855"/>
      <point x="236" y="876" type="qcurve"/>
      <point x="242" y="882" type="line"/>
      <point x="313" y="938"/>
      <point x="347" y="955" type="qcurve" smooth="yes"/>
      <point x="457" y="1020"/>
      <point x="569" y="1083" type="qcurve"/>
      <point x="569" y="1283" type="line"/>
      <point x="686" y="1283" type="line"/>
      <point x="686" y="1087" type="line"/>
      <point x="727" y="1081"/>
      <point x="855" y="1036"/>
      <point x="977" y="940"/>
    </contour>
    <contour>
      <point x="290" y="395" type="qcurve"/>
      <point x="290" y="395" type="line"/>
      <point x="569" y="157" type="line"/>
      <point x="569" y="948" type="line"/>
      <point x="487" y="901"/>
      <point x="406" y="854" type="qcurve" smooth="yes"/>
      <point x="377" y="839"/>
      <point x="318" y="792" type="qcurve" smooth="yes"/>
      <point x="312" y="787" type="line" smooth="yes"/>
      <point x="266" y="752"/>
      <point x="243" y="711" type="qcurve" smooth="yes"/>
      <point x="216" y="657"/>
      <point x="216" y="597" type="qcurve" smooth="yes"/>
      <point x="216" y="570" type="line" smooth="yes"/>
      <point x="216" y="518"/>
      <point x="237" y="470" type="qcurve" smooth="yes"/>
      <point x="256" y="424"/>
    </contour>
    <contour>
      <point x="1116" y="1190" type="line"/>
      <point x="-50" y="1190" type="line"/>
      <point x="-50" y="1286" type="line"/>
      <point x="1116" y="1286" type="line"/>
    </contour>
  </outline>
</glyph>
<glyph name="u0996" format="2">
  <advance width="843"/>
  <unicode hex="0996"/>
  <anchor x="870" y="83" name="Anchor-1"/>
  <anchor x="979" y="83" name="Anchor-0"/>
  <outline>
    <contour>
      <point x="786" y="1368" type="line"/>
      <point x="786" y="1368" type="line"/>
      <point x="786" y="1" type="line"/>
      <point x="673" y="1" type="line"/>
      <point x="243" y="258" type="line" smooth="yes"/>
      <point x="178" y="298"/>
      <point x="141" y="359" type="qcurve" smooth="yes"/>
      <point x="102" y="424"/>
      <point x="102" y="495" type="qcurve" smooth="yes"/>
      <point x="102" y="519" type="line" smooth="yes"/>
      <point x="104" y="554"/>
      <point x="105" y="585" type="qcurve" smooth="yes"/>
      <point x="106" y="615"/>
      <point x="108" y="650" type="qcurve" smooth="yes"/>
      <point x="110" y="706" type="line"/>
      <point x="302" y="706" type="line" smooth="yes"/>
      <point x="363" y="706"/>
      <point x="409" y="749" type="qcurve" smooth="yes"/>
      <point x="444" y="785"/>
      <point x="444" y="833" type="qcurve" smooth="yes"/>
      <point x="444" y="860"/>
      <point x="444" y="888" type="qcurve"/>
      <point x="341" y="888" type="line" smooth="yes"/>
      <point x="260" y="888"/>
      <point x="145" y="991"/>
      <point x="145" y="1065" type="qcurve" smooth="yes"/>
      <point x="145" y="1293" type="line"/>
      <point x="262" y="1293" type="line"/>
      <point x="262" y="1065" type="line" smooth="yes"/>
      <point x="262" y="1040"/>
      <point x="309" y="1005"/>
      <point x="341" y="1005" type="qcurve" smooth="yes"/>
      <point x="444" y="1005" type="line"/>
      <point x="444" y="1096"/>
      <point x="444" y="1187" type="qcurve" smooth="yes"/>
      <point x="444" y="1304" type="line"/>
      <point x="561" y="1304" type="line"/>
      <point x="561" y="1187" type="line" smooth="yes"/>
      <point x="561" y="1010"/>
      <point x="562" y="833" type="qcurve" smooth="yes"/>
      <point x="561" y="737"/>
      <point x="492" y="666" type="qcurve"/>
      <point x="410" y="589"/>
      <point x="302" y="589" type="qcurve" smooth="yes"/>
      <point x="223" y="589" type="line"/>
      <point x="222" y="584"/>
      <point x="222" y="580" type="qcurve" smooth="yes"/>
      <point x="221" y="550"/>
      <point x="220" y="516" type="qcurve" smooth="yes"/>
      <point x="220" y="495" type="line" smooth="yes"/>
      <point x="220" y="456"/>
      <point x="241" y="420" type="qcurve" smooth="yes"/>
      <point x="264" y="383"/>
      <point x="304" y="358" type="qcurve" smooth="yes"/>
      <point x="668" y="138" type="line"/>
      <point x="668" y="1368" type="line"/>
    </contour>
    <contour>
      <point x="898" y="1190" type="line"/>
      <point x="680" y="1190" type="line"/>
      <point x="680" y="1286" type="line"/>
      <point x="898" y="1286" type="line"/>
      <point x="898" y="1190" type="line"/>
    </contour>
  </outline>
</glyph>
<glyph name="u0997" format="2">
  <advance width="830"/>
  <unicode hex="0997"/>
  <anchor x="904" y="152" name="Anchor-1"/>
  <anchor x="987" y="83" name="Anchor-0"/>
  <outline>
    <contour>
      <point x="674" y="1372" type="line"/>
      <point x="674" y="1372" type="line"/>
      <point x="792" y="1372" type="line"/>
      <point x="792" y="1" type="line"/>
      <point x="674" y="1" type="line"/>
      <point x="674" y="643" type="line"/>
      <point x="645" y="748"/>
      <point x="552" y="966"/>
      <point x="439" y="1121"/>
      <point x="379" y="1130" type="qcurve"/>
      <point x="378" y="1130" type="line" smooth="yes"/>
      <point x="361" y="1130"/>
      <point x="343" y="1130" type="qcurve" smooth="yes"/>
      <point x="337" y="1130" type="line" smooth="yes"/>
      <point x="309" y="1131"/>
      <point x="255" y="1124"/>
      <point x="238" y="1108" type="qcurve" smooth="yes"/>
      <point x="210" y="1080"/>
      <point x="209" y="1002" type="qcurve"/>
      <point x="330" y="995"/>
      <point x="428" y="875"/>
      <point x="428" y="741" type="qcurve" smooth="yes"/>
      <point x="428" y="594" type="line" smooth="yes"/>
      <point x="428" y="542"/>
      <point x="399" y="446"/>
      <point x="305" y="385"/>
      <point x="209" y="385" type="qcurve" smooth="yes"/>
      <point x="108" y="385" type="line"/>
      <point x="108" y="503" type="line"/>
      <point x="209" y="503" type="line" smooth="yes"/>
      <point x="259" y="503"/>
      <point x="302" y="520"/>
      <point x="310" y="560"/>
      <point x="310" y="594" type="qcurve" smooth="yes"/>
      <point x="310" y="741" type="line" smooth="yes"/>
      <point x="310" y="843"/>
      <point x="288" y="860" type="qcurve"/>
      <point x="263" y="887"/>
      <point x="151" y="887" type="qcurve" smooth="yes"/>
      <point x="92" y="887" type="line"/>
      <point x="92" y="999" type="line" smooth="yes"/>
      <point x="92" y="1130"/>
      <point x="155" y="1191" type="qcurve" smooth="yes"/>
      <point x="198" y="1232"/>
      <point x="298" y="1249"/>
      <point x="337" y="1247" type="qcurve" smooth="yes"/>
      <point x="340" y="1247" type="line" smooth="yes"/>
      <point x="361" y="1247"/>
      <point x="380" y="1247" type="qcurve" smooth="yes"/>
      <point x="553" y="1248"/>
      <point x="674" y="914" type="qcurve"/>
    </contour>
    <contour>
      <point x="898" y="1190" type="line"/>
      <point x="680" y="1190" type="line"/>
      <point x="680" y="1286" type="line"/>
      <point x="898" y="1286" type="line"/>
      <point x="898" y="1190" type="line"/>
    </contour>
  </outline>
</glyph>
<glyph name="u0998" format="2">
  <advance width="814"/>
  <unicode hex="0998"/>
  <anchor x="836" y="-52" name="Anchor-1"/>
  <anchor x="945" y="83" name="Anchor-0"/>
  <outline>
    <contour>
      <point x="746" y="1283" type="line"/>
      <point x="746" y="1283" type="line"/>
      <point x="746" y="1" type="line"/>
      <point x="640" y="1" type="line"/>
      <point x="632" y="1" type="line"/>
      <point x="628" y="4" type="line"/>
      <point x="236" y="286" type="line" smooth="yes"/>
      <point x="174" y="330"/>
      <point x="140" y="398" type="qcurve" smooth="yes"/>
      <point x="105" y="467"/>
      <point x="105" y="541" type="qcurve" smooth="yes"/>
      <point x="105" y="566" type="line" smooth="yes"/>
      <point x="105" y="653"/>
      <point x="151" y="730" type="qcurve"/>
      <point x="189" y="785"/>
      <point x="244" y="824" type="qcurve"/>
      <point x="224" y="840"/>
      <point x="183" y="874"/>
      <point x="171" y="895" type="qcurve" smooth="yes"/>
      <point x="143" y="943"/>
      <point x="144" y="1058" type="qcurve"/>
      <point x="140" y="1162"/>
      <point x="144" y="1268" type="qcurve"/>
      <point x="261" y="1264" type="line"/>
      <point x="258" y="1162"/>
      <point x="261" y="1061" type="qcurve" smooth="yes"/>
      <point x="263" y="1007"/>
      <point x="269" y="961"/>
      <point x="275" y="949" type="qcurve" smooth="yes"/>
      <point x="304" y="903"/>
      <point x="350" y="884" type="qcurve"/>
      <point x="391" y="905" type="line"/>
      <point x="444" y="801" type="line"/>
      <point x="329" y="741" type="line" smooth="yes"/>
      <point x="280" y="716"/>
      <point x="251" y="669" type="qcurve" smooth="yes"/>
      <point x="223" y="621"/>
      <point x="223" y="566" type="qcurve" smooth="yes"/>
      <point x="223" y="541" type="line" smooth="yes"/>
      <point x="223" y="495"/>
      <point x="244" y="451" type="qcurve" smooth="yes"/>
      <point x="266" y="409"/>
      <point x="304" y="381" type="qcurve" smooth="yes"/>
      <point x="628" y="148" type="line"/>
      <point x="628" y="1283" type="line"/>
    </contour>
    <contour>
      <point x="841" y="1190" type="line"/>
      <point x="-50" y="1190" type="line"/>
      <point x="-50" y="1286" type="line"/>
      <point x="841" y="1286" type="line"/>
    </contour>
  </outline>
</glyph>
<glyph name="u0999" format="2">
  <advance width="925"/>
  <unicode hex="0999"/>
  <anchor x="836" y="114" name="Anchor-0"/>
  <outline>
    <contour>
      <point x="887" y="675" type="line"/>
      <point x="887" y="675" type="line"/>
      <point x="887" y="495"/>
      <point x="882" y="397" type="qcurve"/>
      <point x="880" y="44"/>
      <point x="497" y="44" type="qcurve" smooth="yes"/>
      <point x="430" y="44"/>
      <point x="284" y="68"/>
      <point x="159" y="146"/>
      <point x="80" y="299"/>
      <point x="80" y="428" type="qcurve" smooth="yes"/>
      <point x="80" y="759" type="line"/>
      <point x="198" y="759" type="line"/>
      <point x="198" y="428" type="line" smooth="yes"/>
      <point x="198" y="317"/>
      <point x="269" y="203"/>
      <point x="403" y="163"/>
      <point x="497" y="163" type="qcurve" smooth="yes"/>
      <point x="641" y="163"/>
      <point x="764" y="271"/>
      <point x="764" y="398" type="qcurve" smooth="yes"/>
      <point x="764" y="400" type="line" smooth="yes"/>
      <point x="764" y="404"/>
      <point x="767" y="504"/>
      <point x="768" y="566" type="qcurve"/>
      <point x="717" y="535"/>
      <point x="633" y="528" type="qcurve" smooth="yes"/>
      <point x="629" y="528"/>
      <point x="625" y="528" type="qcurve" smooth="yes"/>
      <point x="624" y="528"/>
      <point x="624" y="528" type="qcurve" smooth="yes"/>
      <point x="496" y="528"/>
      <point x="434" y="591" type="qcurve" smooth="yes"/>
      <point x="395" y="634"/>
      <point x="379" y="727"/>
      <point x="381" y="761" type="qcurve" smooth="yes"/>
      <point x="381" y="841" type="line"/>
      <point x="295" y="841" type="line" smooth="yes"/>
      <point x="246" y="841"/>
      <point x="177" y="913"/>
      <point x="177" y="964" type="qcurve" smooth="yes"/>
      <point x="177" y="1266" type="line"/>
      <point x="295" y="1266" type="line"/>
      <point x="295" y="964" type="line" smooth="yes"/>
      <point x="295" y="960"/>
      <point x="297" y="960" type="qcurve" smooth="yes"/>
      <point x="381" y="960" type="line"/>
      <point x="381" y="1164" type="line" smooth="yes"/>
      <point x="381" y="1214"/>
      <point x="450" y="1286"/>
      <point x="499" y="1286" type="qcurve" smooth="yes"/>
      <point x="581" y="1286" type="line" smooth="yes"/>
      <point x="630" y="1286"/>
      <point x="700" y="1214"/>
      <point x="700" y="1164" type="qcurve" smooth="yes"/>
      <point x="700" y="964" type="line" smooth="yes"/>
      <point x="700" y="913"/>
      <point x="630" y="841"/>
      <point x="581" y="841" type="qcurve" smooth="yes"/>
      <point x="499" y="841" type="line"/>
      <point x="499" y="760" type="line" smooth="yes"/>
      <point x="498" y="736"/>
      <point x="504" y="690"/>
      <point x="518" y="675" type="qcurve" smooth="yes"/>
      <point x="546" y="647"/>
      <point x="624" y="647" type="qcurve"/>
      <point x="692" y="651"/>
      <point x="757" y="697"/>
      <point x="766" y="731" type="qcurve"/>
      <point x="764" y="808" type="line"/>
      <point x="882" y="812" type="line"/>
    </contour>
    <contour>
      <point x="499" y="1164" type="qcurve"/>
      <point x="499" y="1164" type="line"/>
      <point x="499" y="960" type="line"/>
      <point x="580" y="960" type="line" smooth="yes"/>
      <point x="581" y="960"/>
      <point x="581" y="964" type="qcurve" smooth="yes"/>
      <point x="581" y="1164" type="line" smooth="yes"/>
      <point x="581" y="1167"/>
      <point x="580" y="1168" type="qcurve" smooth="yes"/>
      <point x="500" y="1168" type="line" smooth="yes"/>
      <point x="499" y="1167"/>
    </contour>
  </outline>
</glyph>
<glyph name="u099A" format="2">
  <advance width="762"/>
  <unicode hex="099A"/>
  <anchor x="852" y="-72" name="Anchor-1"/>
  <anchor x="571" y="105" name="Anchor-0"/>
  <outline>
    <contour>
      <point x="237" y="55" type="qcurve"/>
      <point x="237" y="55" type="line"/>
      <point x="273" y="55" type="line" smooth="yes"/>
      <point x="420" y="56"/>
      <point x="536" y="171" type="qcurve"/>
      <point x="699" y="343"/>
      <point x="703" y="619" type="qcurve" smooth="yes"/>
      <point x="702" y="663"/>
      <point x="702" y="684" type="qcurve" smooth="yes"/>
      <point x="702" y="696" type="line" smooth="yes"/>
      <point x="700" y="797"/>
      <point x="592" y="930"/>
      <point x="512" y="930" type="qcurve" smooth="yes"/>
      <point x="222" y="930" type="line"/>
      <point x="222" y="1229" type="line"/>
      <point x="104" y="1229" type="line"/>
      <point x="104" y="214" type="line" smooth="yes"/>
      <point x="104" y="147"/>
      <point x="181" y="55"/>
    </contour>
    <contour>
      <point x="222" y="813" type="line"/>
      <point x="222" y="813" type="line"/>
      <point x="512" y="813" type="line" smooth="yes"/>
      <point x="537" y="813"/>
      <point x="583" y="748"/>
      <point x="585" y="695" type="qcurve" smooth="yes"/>
      <point x="585" y="683" type="line" smooth="yes"/>
      <point x="585" y="663"/>
      <point x="585" y="618" type="qcurve" smooth="yes"/>
      <point x="582" y="392"/>
      <point x="453" y="254" type="qcurve" smooth="yes"/>
      <point x="372" y="173"/>
      <point x="274" y="172" type="qcurve" smooth="yes"/>
      <point x="238" y="172" type="line" smooth="yes"/>
      <point x="234" y="173"/>
      <point x="222" y="195"/>
      <point x="222" y="215" type="qcurve" smooth="yes"/>
    </contour>
    <contour>
      <point x="827" y="1190" type="line"/>
      <point x="827" y="1190" type="line"/>
      <point x="827" y="1286" type="line"/>
      <point x="-50" y="1286" type="line"/>
      <point x="-50" y="1190" type="line"/>
    </contour>
  </outline>
</glyph>
<glyph name="u099B" format="2">
  <advance width="811"/>
  <unicode hex="099B"/>
  <anchor x="1068" y="-24" name="Anchor-1"/>
  <anchor x="592" y="197" name="Anchor-0"/>
  <outline>
    <contour>
      <point x="321" y="290" type="qcurve"/>
      <point x="321" y="290" type="line"/>
      <point x="772" y="57" type="line"/>
      <point x="718" y="-48" type="line"/>
      <point x="99" y="273" type="line"/>
      <point x="99" y="407" type="line"/>
      <point x="99" y="407"/>
      <point x="360" y="405" type="qcurve"/>
      <point x="481" y="409"/>
      <point x="544" y="479" type="qcurve" smooth="yes"/>
      <point x="574" y="514"/>
      <point x="604" y="596"/>
      <point x="613" y="671"/>
      <point x="612" y="719"/>
      <point x="612" y="720" type="qcurve" smooth="yes"/>
      <point x="611" y="726" type="line"/>
      <point x="611" y="814"/>
      <point x="572" y="901"/>
      <point x="519" y="932"/>
      <point x="497" y="933" type="qcurve"/>
      <point x="499" y="921"/>
      <point x="499" y="908" type="qcurve" smooth="yes"/>
      <point x="499" y="902" type="line" smooth="yes"/>
      <point x="499" y="891"/>
      <point x="499" y="867" type="qcurve" smooth="yes"/>
      <point x="497" y="720"/>
      <point x="403" y="622" type="qcurve" smooth="yes"/>
      <point x="325" y="546"/>
      <point x="223" y="544" type="qcurve" smooth="yes"/>
      <point x="201" y="544" type="line" smooth="yes"/>
      <point x="159" y="544"/>
      <point x="99" y="610"/>
      <point x="99" y="656" type="qcurve" smooth="yes"/>
      <point x="99" y="1286" type="line"/>
      <point x="216" y="1286" type="line"/>
      <point x="216" y="1058" type="line"/>
      <point x="363" y="1058" type="line" smooth="yes"/>
      <point x="393" y="1058"/>
      <point x="419" y="1044" type="qcurve"/>
      <point x="452" y="1051"/>
      <point x="478" y="1051" type="qcurve" smooth="yes"/>
      <point x="518" y="1053"/>
      <point x="634" y="1011"/>
      <point x="726" y="872"/>
      <point x="729" y="729" type="qcurve" smooth="yes"/>
      <point x="731" y="713"/>
      <point x="727" y="605"/>
      <point x="686" y="465"/>
      <point x="633" y="402" type="qcurve" smooth="yes"/>
      <point x="535" y="292"/>
      <point x="361" y="288" type="qcurve" smooth="yes"/>
      <point x="360" y="288"/>
      <point x="347" y="288"/>
    </contour>
    <contour>
      <point x="320" y="705" type="qcurve"/>
      <point x="320" y="705" type="line"/>
      <point x="381" y="768"/>
      <point x="382" y="867" type="qcurve" smooth="yes"/>
      <point x="382" y="890"/>
      <point x="382" y="901" type="qcurve" smooth="yes"/>
      <point x="382" y="907" type="line" smooth="yes"/>
      <point x="381" y="923"/>
      <point x="368" y="941"/>
      <point x="363" y="941" type="qcurve" smooth="yes"/>
      <point x="216" y="941" type="line"/>
      <point x="216" y="662" type="line"/>
      <point x="222" y="662" type="line" smooth="yes"/>
      <point x="256" y="663"/>
      <point x="305" y="689"/>
    </contour>
    <contour>
      <point x="841" y="1190" type="line"/>
      <point x="-50" y="1190" type="line"/>
      <point x="-50" y="1286" type="line"/>
      <point x="841" y="1286" type="line"/>
    </contour>
  </outline>
</glyph>
<glyph name="u099C" format="2">
  <advance width="1219"/>
  <unicode hex="099C"/>
  <anchor x="992" y="-36" name="Anchor-1"/>
  <anchor x="1400" y="83" name="Anchor-0"/>
  <outline>
    <contour>
      <point x="904" y="681" type="line"/>
      <point x="904" y="681" type="line"/>
      <point x="904" y="502"/>
      <point x="899" y="405" type="qcurve"/>
      <point x="896" y="55"/>
      <point x="518" y="55" type="qcurve" smooth="yes"/>
      <point x="451" y="55"/>
      <point x="306" y="79"/>
      <point x="182" y="155"/>
      <point x="104" y="307"/>
      <point x="104" y="435" type="qcurve" smooth="yes"/>
      <point x="104" y="764" type="line"/>
      <point x="222" y="764" type="line"/>
      <point x="222" y="435" type="line" smooth="yes"/>
      <point x="222" y="325"/>
      <point x="292" y="212"/>
      <point x="424" y="172"/>
      <point x="518" y="172" type="qcurve" smooth="yes"/>
      <point x="660" y="172"/>
      <point x="781" y="280"/>
      <point x="781" y="406" type="qcurve" smooth="yes"/>
      <point x="781" y="408" type="line" smooth="yes"/>
      <point x="782" y="412"/>
      <point x="785" y="510"/>
      <point x="786" y="571" type="qcurve"/>
      <point x="729" y="539"/>
      <point x="649" y="535" type="qcurve"/>
      <point x="647" y="535" type="line"/>
      <point x="645" y="535" type="line" smooth="yes"/>
      <point x="516" y="535"/>
      <point x="455" y="597" type="qcurve" smooth="yes"/>
      <point x="416" y="639"/>
      <point x="399" y="732"/>
      <point x="401" y="765" type="qcurve" smooth="yes"/>
      <point x="401" y="773" type="line"/>
      <point x="401" y="1228" type="line"/>
      <point x="519" y="1228" type="line"/>
      <point x="519" y="764" type="line" smooth="yes"/>
      <point x="518" y="741"/>
      <point x="524" y="695"/>
      <point x="538" y="680" type="qcurve" smooth="yes"/>
      <point x="566" y="653"/>
      <point x="644" y="652" type="qcurve"/>
      <point x="735" y="658"/>
      <point x="785" y="722"/>
      <point x="782" y="782" type="qcurve" smooth="yes"/>
      <point x="781" y="812" type="line"/>
      <point x="899" y="816" type="line"/>
    </contour>
    <contour>
      <point x="1210" y="4" type="line"/>
      <point x="1092" y="4" type="line"/>
      <point x="1092" y="765" type="line" smooth="yes"/>
      <point x="1092" y="867"/>
      <point x="1067" y="881" type="qcurve"/>
      <point x="1031" y="916"/>
      <point x="880" y="916" type="qcurve" smooth="yes"/>
      <point x="769" y="916"/>
      <point x="685" y="968" type="qcurve" smooth="yes"/>
      <point x="564" y="1043"/>
      <point x="523" y="1224" type="qcurve"/>
      <point x="638" y="1250" type="line"/>
      <point x="659" y="1163"/>
      <point x="721" y="1082"/>
      <point x="747" y="1067" type="qcurve" smooth="yes"/>
      <point x="802" y="1033"/>
      <point x="880" y="1033" type="qcurve" smooth="yes"/>
      <point x="983" y="1033"/>
      <point x="1110" y="1002"/>
      <point x="1147" y="968" type="qcurve" smooth="yes"/>
      <point x="1189" y="927"/>
      <point x="1210" y="817"/>
      <point x="1210" y="765" type="qcurve" smooth="yes"/>
      <point x="1210" y="4" type="line"/>
    </contour>
    <contour>
      <point x="1244" y="1190" type="line"/>
      <point x="-50" y="1190" type="line"/>
      <point x="-50" y="1286" type="line"/>
      <point x="1244" y="1286" type="line"/>
    </contour>
  </outline>
</glyph>
<glyph name="u099D" format="2">
  <advance width="1094"/>
  <unicode hex="099D"/>
  <anchor x="876" y="-64" name="Anchor-1"/>
  <anchor x="1126" y="100" name="Anchor-0"/>
  <outline>
    <contour>
      <point x="924" y="1372" type="line"/>
      <point x="924" y="1372" type="line"/>
      <point x="1042" y="1372" type="line"/>
      <point x="1042" y="1" type="line"/>
      <point x="924" y="1" type="line"/>
      <point x="924" y="1"/>
      <point x="879" y="70" type="qcurve" smooth="yes"/>
      <point x="852" y="105"/>
      <point x="830" y="139" type="qcurve" smooth="yes"/>
      <point x="721" y="309" type="line"/>
      <point x="721" y="1" type="line"/>
      <point x="604" y="1" type="line"/>
      <point x="604" y="2" type="line"/>
      <point x="220" y="305" type="line" smooth="yes"/>
      <point x="162" y="352"/>
      <point x="129" y="422" type="qcurve" smooth="yes"/>
      <point x="97" y="493"/>
      <point x="97" y="570" type="qcurve" smooth="yes"/>
      <point x="97" y="597" type="line" smooth="yes"/>
      <point x="97" y="686"/>
      <point x="139" y="766" type="qcurve" smooth="yes"/>
      <point x="161" y="804"/>
      <point x="215" y="856"/>
      <point x="243" y="877" type="qcurve" smooth="yes"/>
      <point x="250" y="883" type="line"/>
      <point x="326" y="939"/>
      <point x="362" y="956" type="qcurve" smooth="yes"/>
      <point x="482" y="1022"/>
      <point x="604" y="1086" type="qcurve"/>
      <point x="604" y="1286" type="line"/>
      <point x="721" y="1286" type="line"/>
      <point x="721" y="558" type="line"/>
      <point x="735" y="503"/>
      <point x="756" y="474" type="qcurve" smooth="yes"/>
      <point x="924" y="209" type="line"/>
    </contour>
    <contour>
      <point x="293" y="396" type="qcurve"/>
      <point x="293" y="396" type="line"/>
      <point x="604" y="148" type="line"/>
      <point x="604" y="953" type="line"/>
      <point x="511" y="904"/>
      <point x="418" y="853" type="qcurve" smooth="yes"/>
      <point x="387" y="838"/>
      <point x="323" y="791" type="qcurve"/>
      <point x="316" y="785" type="line"/>
      <point x="267" y="751"/>
      <point x="242" y="709" type="qcurve" smooth="yes"/>
      <point x="214" y="657"/>
      <point x="214" y="597" type="qcurve" smooth="yes"/>
      <point x="214" y="570" type="line" smooth="yes"/>
      <point x="214" y="519"/>
      <point x="236" y="471" type="qcurve" smooth="yes"/>
      <point x="257" y="426"/>
    </contour>
    <contour>
      <point x="652" y="1190" type="line"/>
      <point x="-50" y="1190" type="line"/>
      <point x="-50" y="1286" type="line"/>
      <point x="652" y="1286" type="line"/>
      <point x="652" y="1190" type="line"/>
    </contour>
    <contour>
      <point x="1137" y="1190" type="line"/>
      <point x="950" y="1190" type="line"/>
      <point x="950" y="1286" type="line"/>
      <point x="1137" y="1286" type="line"/>
      <point x="1137" y="1190" type="line"/>
    </contour>
  </outline>
</glyph>
<glyph name="u099E" format="2">
  <advance width="1193"/>
  <unicode hex="099E"/>
  <outline>
    <contour>
      <point x="473" y="50" type="qcurve"/>
      <point x="473" y="50" type="line"/>
      <point x="687" y="50"/>
      <point x="756" y="53" type="qcurve" smooth="yes"/>
      <point x="814" y="54" type="line"/>
      <point x="812" y="810" type="line"/>
      <point x="812" y="1099" type="line" smooth="yes"/>
      <point x="812" y="1180"/>
      <point x="698" y="1293"/>
      <point x="618" y="1293" type="qcurve" smooth="yes"/>
      <point x="549" y="1293" type="line" smooth="yes"/>
      <point x="459" y="1293"/>
      <point x="331" y="1165"/>
      <point x="331" y="1075" type="qcurve" smooth="yes"/>
      <point x="331" y="672" type="line"/>
      <point x="449" y="672" type="line"/>
      <point x="449" y="1075" type="line" smooth="yes"/>
      <point x="449" y="1117"/>
      <point x="508" y="1176"/>
      <point x="549" y="1176" type="qcurve" smooth="yes"/>
      <point x="618" y="1176" type="line" smooth="yes"/>
      <point x="650" y="1176"/>
      <point x="695" y="1131"/>
      <point x="695" y="1099" type="qcurve" smooth="yes"/>
      <point x="695" y="809" type="line"/>
      <point x="696" y="169" type="line"/>
      <point x="601" y="168"/>
      <point x="473" y="168" type="qcurve" smooth="yes"/>
      <point x="394" y="168"/>
      <point x="282" y="207"/>
      <point x="223" y="321"/>
      <point x="223" y="431" type="qcurve" smooth="yes"/>
      <point x="223" y="760" type="line"/>
      <point x="106" y="760" type="line"/>
      <point x="106" y="431" type="line" smooth="yes"/>
      <point x="106" y="303"/>
      <point x="175" y="151"/>
      <point x="285" y="74"/>
      <point x="414" y="50"/>
    </contour>
    <contour>
      <point x="1183" y="481" type="line"/>
      <point x="1183" y="589" type="line" smooth="yes"/>
      <point x="1183" y="605"/>
      <point x="1169" y="667"/>
      <point x="1143" y="697" type="qcurve"/>
      <point x="1183" y="738"/>
      <point x="1183" y="801" type="qcurve" smooth="yes"/>
      <point x="1183" y="902" type="line" smooth="yes"/>
      <point x="1183" y="981"/>
      <point x="1142" y="1077"/>
      <point x="1079" y="1127"/>
      <point x="1010" y="1144"/>
      <point x="982" y="1144" type="qcurve" smooth="yes"/>
      <point x="925" y="1144" type="line" smooth="yes"/>
      <point x="847" y="1142"/>
      <point x="746" y="1075"/>
      <point x="698" y="970"/>
      <point x="698" y="913" type="qcurve"/>
      <point x="805" y="898" type="line"/>
      <point x="805" y="915"/>
      <point x="824" y="976"/>
      <point x="877" y="1025"/>
      <point x="926" y="1027" type="qcurve" smooth="yes"/>
      <point x="982" y="1027" type="line" smooth="yes"/>
      <point x="1008" y="1027"/>
      <point x="1045" y="1008"/>
      <point x="1066" y="954"/>
      <point x="1066" y="902" type="qcurve" smooth="yes"/>
      <point x="1066" y="801" type="line" smooth="yes"/>
      <point x="1066" y="782"/>
      <point x="1040" y="764"/>
      <point x="1006" y="758"/>
      <point x="992" y="758" type="qcurve"/>
      <point x="992" y="749" type="line"/>
      <point x="992" y="641" type="line"/>
      <point x="992" y="631" type="line"/>
      <point x="1022" y="631"/>
      <point x="1054" y="614"/>
      <point x="1066" y="594"/>
      <point x="1066" y="589" type="qcurve" smooth="yes"/>
      <point x="1066" y="481" type="line" smooth="yes"/>
      <point x="1066" y="458"/>
      <point x="1060" y="400"/>
      <point x="1044" y="382" type="qcurve" smooth="yes"/>
      <point x="1025" y="363"/>
      <point x="982" y="363" type="qcurve" smooth="yes"/>
      <point x="926" y="363" type="line" smooth="yes"/>
      <point x="877" y="365"/>
      <point x="824" y="409"/>
      <point x="805" y="465"/>
      <point x="805" y="482" type="qcurve"/>
      <point x="698" y="477" type="line"/>
      <point x="698" y="420"/>
      <point x="746" y="314"/>
      <point x="847" y="247"/>
      <point x="926" y="246" type="qcurve" smooth="yes"/>
      <point x="982" y="246" type="line" smooth="yes"/>
      <point x="1074" y="246"/>
      <point x="1127" y="299" type="qcurve" smooth="yes"/>
      <point x="1168" y="343"/>
      <point x="1185" y="446"/>
      <point x="1183" y="481" type="qcurve"/>
    </contour>
  </outline>
</glyph>
<glyph name="u099F" format="2">
  <advance width="778"/>
  <unicode hex="099F"/>
  <anchor x="780" y="-36" name="Anchor-1"/>
  <anchor x="600" y="111" name="Anchor-0"/>
  <outline>
    <contour>
      <point x="700" y="1219" type="line"/>
      <point x="700" y="1219" type="line"/>
      <point x="706" y="1245" type="line" smooth="yes"/>
      <point x="713" y="1283"/>
      <point x="708" y="1371"/>
      <point x="706" y="1386" type="qcurve" smooth="yes"/>
      <point x="706" y="1389" type="line"/>
      <point x="702" y="1419"/>
      <point x="653" y="1507"/>
      <point x="529" y="1574"/>
      <point x="413" y="1574" type="qcurve" smooth="yes"/>
      <point x="365" y="1573"/>
      <point x="236" y="1573" type="qcurve" smooth="yes"/>
      <point x="219" y="1573" type="line" smooth="yes"/>
      <point x="153" y="1571"/>
      <point x="115" y="1595"/>
      <point x="115" y="1648" type="qcurve" smooth="yes"/>
      <point x="115" y="1716" type="line"/>
      <point x="-2" y="1716" type="line"/>
      <point x="-2" y="1647" type="line"/>
      <point x="-2" y="1645" type="line"/>
      <point x="2" y="1553"/>
      <point x="73" y="1473"/>
      <point x="171" y="1455"/>
      <point x="218" y="1456" type="qcurve" smooth="yes"/>
      <point x="234" y="1456" type="line" smooth="yes"/>
      <point x="364" y="1456"/>
      <point x="415" y="1457" type="qcurve" smooth="yes"/>
      <point x="473" y="1459"/>
      <point x="577" y="1425"/>
      <point x="590" y="1371" type="qcurve"/>
      <point x="596" y="1313"/>
      <point x="591" y="1269" type="qcurve" smooth="yes"/>
      <point x="586" y="1244" type="line"/>
    </contour>
    <contour>
      <point x="244" y="55" type="qcurve"/>
      <point x="244" y="55" type="line"/>
      <point x="281" y="55" type="line" smooth="yes"/>
      <point x="458" y="56"/>
      <point x="575" y="173" type="qcurve" smooth="yes"/>
      <point x="717" y="320"/>
      <point x="714" y="595" type="qcurve" smooth="yes"/>
      <point x="714" y="637"/>
      <point x="713" y="657" type="qcurve" smooth="yes"/>
      <point x="713" y="668" type="line" smooth="yes"/>
      <point x="711" y="766"/>
      <point x="602" y="895"/>
      <point x="522" y="895" type="qcurve" smooth="yes"/>
      <point x="485" y="895" type="line" smooth="yes"/>
      <point x="414" y="895"/>
      <point x="313" y="790"/>
      <point x="313" y="716" type="qcurve" smooth="yes"/>
      <point x="313" y="653" type="line"/>
      <point x="431" y="653" type="line"/>
      <point x="431" y="716" type="line" smooth="yes"/>
      <point x="431" y="741"/>
      <point x="463" y="777"/>
      <point x="485" y="777" type="qcurve" smooth="yes"/>
      <point x="522" y="777" type="line" smooth="yes"/>
      <point x="552" y="777"/>
      <point x="595" y="713"/>
      <point x="596" y="667" type="qcurve" smooth="yes"/>
      <point x="596" y="656" type="line" smooth="yes"/>
      <point x="596" y="637"/>
      <point x="596" y="594" type="qcurve" smooth="yes"/>
      <point x="599" y="367"/>
      <point x="491" y="255" type="qcurve" smooth="yes"/>
      <point x="409" y="173"/>
      <point x="281" y="172" type="qcurve" smooth="yes"/>
      <point x="244" y="172" type="line" smooth="yes"/>
      <point x="232" y="172"/>
      <point x="228" y="191"/>
      <point x="228" y="210" type="qcurve" smooth="yes"/>
      <point x="228" y="1216" type="line"/>
      <point x="110" y="1216" type="line"/>
      <point x="110" y="210" type="line" smooth="yes"/>
      <point x="110" y="146"/>
      <point x="189" y="55"/>
    </contour>
    <contour>
      <point x="840" y="1190" type="line"/>
      <point x="840" y="1190" type="line"/>
      <point x="840" y="1286" type="line"/>
      <point x="-50" y="1286" type="line"/>
      <point x="-50" y="1190" type="line"/>
    </contour>
  </outline>
</glyph>
<glyph name="u09A0" format="2">
  <advance width="840"/>
  <unicode hex="09A0"/>
  <anchor x="808" y="-4" name="Anchor-1"/>
  <anchor x="668" y="83" name="Anchor-0"/>
  <outline>
    <contour>
      <point x="474" y="1571" type="qcurve"/>
      <point x="474" y="1571" type="line"/>
      <point x="442" y="1548"/>
      <point x="438" y="1512" type="qcurve" smooth="yes"/>
      <point x="436" y="1491"/>
      <point x="437" y="1488" type="qcurve" smooth="yes"/>
      <point x="447" y="1460" type="line" smooth="yes"/>
      <point x="471" y="1396"/>
      <point x="507" y="1337" type="qcurve" smooth="yes"/>
      <point x="665" y="1074" type="line" smooth="yes"/>
      <point x="750" y="930"/>
      <point x="755" y="766" type="qcurve"/>
      <point x="755" y="760" type="line" smooth="yes"/>
      <point x="755" y="552"/>
      <point x="752" y="444" type="qcurve" smooth="yes"/>
      <point x="750" y="50"/>
      <point x="429" y="50" type="qcurve" smooth="yes"/>
      <point x="250" y="50"/>
      <point x="80" y="259"/>
      <point x="80" y="478" type="qcurve" smooth="yes"/>
      <point x="80" y="639" type="line"/>
      <point x="198" y="639" type="line"/>
      <point x="198" y="626" type="line"/>
      <point x="248" y="625"/>
      <point x="290" y="640" type="qcurve" smooth="yes"/>
      <point x="402" y="681"/>
      <point x="521" y="933"/>
      <point x="509" y="1104" type="qcurve"/>
      <point x="510" y="1104" type="line"/>
      <point x="406" y="1276" type="line" smooth="yes"/>
      <point x="365" y="1345"/>
      <point x="337" y="1419" type="qcurve" smooth="yes"/>
      <point x="326" y="1449" type="line" smooth="yes"/>
      <point x="316" y="1476"/>
      <point x="321" y="1524" type="qcurve" smooth="yes"/>
      <point x="331" y="1613"/>
      <point x="407" y="1667" type="qcurve" smooth="yes"/>
      <point x="492" y="1724"/>
      <point x="593" y="1700" type="qcurve" smooth="yes"/>
      <point x="660" y="1685"/>
      <point x="814" y="1624"/>
      <point x="928" y="1571"/>
      <point x="935" y="1568" type="qcurve"/>
      <point x="883" y="1462" type="line"/>
      <point x="879" y="1464"/>
      <point x="772" y="1514"/>
      <point x="627" y="1572"/>
      <point x="567" y="1586" type="qcurve"/>
      <point x="565" y="1586" type="line"/>
      <point x="515" y="1598"/>
    </contour>
    <contour>
      <point x="638" y="757" type="qcurve"/>
      <point x="638" y="757" type="line"/>
      <point x="638" y="763" type="line" smooth="yes"/>
      <point x="636" y="833"/>
      <point x="615" y="899" type="qcurve"/>
      <point x="587" y="762"/>
      <point x="439" y="568"/>
      <point x="328" y="528" type="qcurve" smooth="yes"/>
      <point x="269" y="508"/>
      <point x="203" y="508" type="qcurve" smooth="yes"/>
      <point x="201" y="508"/>
      <point x="198" y="508" type="qcurve"/>
      <point x="198" y="478" type="line" smooth="yes"/>
      <point x="198" y="371"/>
      <point x="235" y="246"/>
      <point x="300" y="185"/>
      <point x="383" y="168"/>
      <point x="429" y="168" type="qcurve" smooth="yes"/>
      <point x="466" y="168"/>
      <point x="539" y="183"/>
      <point x="598" y="237"/>
      <point x="634" y="349"/>
      <point x="634" y="445" type="qcurve" smooth="yes"/>
      <point x="634" y="446" type="line" smooth="yes"/>
      <point x="637" y="542"/>
    </contour>
    <contour>
      <point x="879" y="1190" type="line"/>
      <point x="-50" y="1190" type="line"/>
      <point x="-50" y="1286" type="line"/>
      <point x="879" y="1286" type="line"/>
      <point x="879" y="1190" type="line"/>
    </contour>
  </outline>
</glyph>
<glyph name="u09A3" format="2">
  <advance width="787"/>
  <unicode hex="09A3"/>
  <anchor x="868" y="102" name="Anchor-1"/>
  <anchor x="933" y="83" name="Anchor-0"/>
  <outline>
    <contour>
      <point x="625" y="1372" type="line"/>
      <point x="625" y="1372" type="line"/>
      <point x="742" y="1372" type="line"/>
      <point x="742" y="1" type="line"/>
      <point x="625" y="1" type="line"/>
      <point x="625" y="567" type="line"/>
      <point x="615" y="701"/>
      <point x="537" y="957"/>
      <point x="425" y="1127"/>
      <point x="364" y="1130" type="qcurve" smooth="yes"/>
      <point x="364" y="1130"/>
      <point x="363" y="1130" type="qcurve" smooth="yes"/>
      <point x="362" y="1130" type="line"/>
      <point x="361" y="1130" type="line" smooth="yes"/>
      <point x="346" y="1130"/>
      <point x="330" y="1130" type="qcurve" smooth="yes"/>
      <point x="328" y="1130" type="line" smooth="yes"/>
      <point x="304" y="1130"/>
      <point x="254" y="1119"/>
      <point x="218" y="1062"/>
      <point x="214" y="997" type="qcurve"/>
      <point x="214" y="775" type="line" smooth="yes"/>
      <point x="214" y="712"/>
      <point x="289" y="623"/>
      <point x="342" y="623" type="qcurve" smooth="yes"/>
      <point x="391" y="623" type="line"/>
      <point x="391" y="505" type="line"/>
      <point x="342" y="505" type="line" smooth="yes"/>
      <point x="240" y="505"/>
      <point x="96" y="663"/>
      <point x="96" y="775" type="qcurve" smooth="yes"/>
      <point x="96" y="1002" type="line"/>
      <point x="104" y="1154"/>
      <point x="194" y="1214" type="qcurve" smooth="yes"/>
      <point x="232" y="1238"/>
      <point x="305" y="1247"/>
      <point x="327" y="1247" type="qcurve" smooth="yes"/>
      <point x="345" y="1247"/>
      <point x="363" y="1247" type="qcurve" smooth="yes"/>
      <point x="364" y="1247"/>
      <point x="364" y="1247" type="qcurve" smooth="yes"/>
      <point x="522" y="1247"/>
      <point x="625" y="968" type="qcurve"/>
    </contour>
    <contour>
      <point x="898" y="1190" type="line"/>
      <point x="680" y="1190" type="line"/>
      <point x="680" y="1286" type="line"/>
      <point x="898" y="1286" type="line"/>
      <point x="898" y="1190" type="line"/>
    </contour>
  </outline>
</glyph>
<glyph name="u09A4" format="2">
  <advance width="1059"/>
  <unicode hex="09A4"/>
  <anchor x="916" y="36" name="Anchor-1"/>
  <anchor x="853" y="92" name="Anchor-0"/>
  <outline>
    <contour>
      <point x="556" y="49" type="qcurve"/>
      <point x="556" y="49" type="line"/>
      <point x="753" y="50"/>
      <point x="869" y="176" type="qcurve" smooth="yes"/>
      <point x="940" y="259"/>
      <point x="994" y="451"/>
      <point x="999" y="601"/>
      <point x="997" y="620" type="qcurve" smooth="yes"/>
      <point x="997" y="813"/>
      <point x="863" y="995"/>
      <point x="721" y="995" type="qcurve" smooth="yes"/>
      <point x="659" y="995"/>
      <point x="545" y="939"/>
      <point x="472" y="823"/>
      <point x="472" y="732" type="qcurve" smooth="yes"/>
      <point x="472" y="547" type="line"/>
      <point x="589" y="547" type="line"/>
      <point x="589" y="732" type="line" smooth="yes"/>
      <point x="589" y="797"/>
      <point x="639" y="859"/>
      <point x="701" y="877"/>
      <point x="721" y="877" type="qcurve" smooth="yes"/>
      <point x="757" y="879"/>
      <point x="829" y="855"/>
      <point x="879" y="747"/>
      <point x="879" y="617" type="qcurve" smooth="yes"/>
      <point x="879" y="612" type="line" smooth="yes"/>
      <point x="880" y="611"/>
      <point x="881" y="562"/>
      <point x="876" y="483"/>
      <point x="857" y="389"/>
      <point x="817" y="295"/>
      <point x="782" y="255" type="qcurve" smooth="yes"/>
      <point x="702" y="167"/>
      <point x="556" y="167" type="qcurve" smooth="yes"/>
      <point x="515" y="167"/>
      <point x="417" y="173"/>
      <point x="323" y="206"/>
      <point x="285" y="244" type="qcurve" smooth="yes"/>
      <point x="188" y="344"/>
      <point x="194" y="591" type="qcurve" smooth="yes"/>
      <point x="198" y="761" type="line"/>
      <point x="81" y="764" type="line"/>
      <point x="77" y="593" type="line" smooth="yes"/>
      <point x="69" y="297"/>
      <point x="201" y="162" type="qcurve" smooth="yes"/>
      <point x="257" y="107"/>
      <point x="386" y="59"/>
      <point x="510" y="49"/>
    </contour>
    <contour>
      <point x="1118" y="1190" type="line"/>
      <point x="1118" y="1190" type="line"/>
      <point x="1118" y="1286" type="line"/>
      <point x="-50" y="1286" type="line"/>
      <point x="-50" y="1190" type="line"/>
    </contour>
  </outline>
</glyph>
<glyph name="u09A5" format="2">
  <advance width="863"/>
  <unicode hex="09A5"/>
  <anchor x="928" y="-16" name="Anchor-1"/>
  <anchor x="979" y="83" name="Anchor-0"/>
  <outline>
    <contour>
      <point x="785" y="1372" type="line"/>
      <point x="785" y="1372" type="line"/>
      <point x="785" y="1" type="line"/>
      <point x="676" y="1" type="line"/>
      <point x="239" y="254" type="line" smooth="yes"/>
      <point x="173" y="294"/>
      <point x="135" y="355" type="qcurve" smooth="yes"/>
      <point x="96" y="420"/>
      <point x="96" y="491" type="qcurve" smooth="yes"/>
      <point x="96" y="516" type="line" smooth="yes"/>
      <point x="98" y="550"/>
      <point x="99" y="581" type="qcurve" smooth="yes"/>
      <point x="100" y="612"/>
      <point x="102" y="646" type="qcurve" smooth="yes"/>
      <point x="104" y="702" type="line"/>
      <point x="298" y="702" type="line" smooth="yes"/>
      <point x="361" y="702"/>
      <point x="407" y="746" type="qcurve" smooth="yes"/>
      <point x="442" y="782"/>
      <point x="443" y="829" type="qcurve" smooth="yes"/>
      <point x="442" y="949"/>
      <point x="442" y="1069" type="qcurve" smooth="yes"/>
      <point x="444" y="1091"/>
      <point x="424" y="1122"/>
      <point x="385" y="1125" type="qcurve" smooth="yes"/>
      <point x="349" y="1125" type="line" smooth="yes"/>
      <point x="314" y="1125"/>
      <point x="292" y="1095"/>
      <point x="293" y="1068" type="qcurve" smooth="yes"/>
      <point x="293" y="925" type="line"/>
      <point x="175" y="925" type="line"/>
      <point x="175" y="1069" type="line" smooth="yes"/>
      <point x="177" y="1150"/>
      <point x="269" y="1242"/>
      <point x="349" y="1242" type="qcurve" smooth="yes"/>
      <point x="389" y="1242" type="line"/>
      <point x="555" y="1229"/>
      <point x="560" y="1068" type="qcurve" smooth="yes"/>
      <point x="560" y="949"/>
      <point x="560" y="830" type="qcurve" smooth="yes"/>
      <point x="559" y="734"/>
      <point x="490" y="663" type="qcurve"/>
      <point x="407" y="585"/>
      <point x="298" y="585" type="qcurve" smooth="yes"/>
      <point x="217" y="585" type="line"/>
      <point x="217" y="581"/>
      <point x="216" y="576" type="qcurve" smooth="yes"/>
      <point x="215" y="546"/>
      <point x="214" y="512" type="qcurve" smooth="yes"/>
      <point x="214" y="491" type="line" smooth="yes"/>
      <point x="214" y="453"/>
      <point x="235" y="417" type="qcurve" smooth="yes"/>
      <point x="258" y="380"/>
      <point x="300" y="355" type="qcurve" smooth="yes"/>
      <point x="668" y="134" type="line"/>
      <point x="668" y="1372" type="line"/>
    </contour>
    <contour>
      <point x="898" y="1190" type="line"/>
      <point x="680" y="1190" type="line"/>
      <point x="680" y="1286" type="line"/>
      <point x="898" y="1286" type="line"/>
      <point x="898" y="1190" type="line"/>
    </contour>
  </outline>
</glyph>
<glyph name="u09A6" format="2">
  <advance width="757"/>
  <unicode hex="09A6"/>
  <anchor x="856" y="204" name="Anchor-1"/>
  <anchor x="880" y="83" name="Anchor-0"/>
  <outline>
    <contour>
      <point x="683" y="1" type="line"/>
      <point x="683" y="1" type="line"/>
      <point x="683" y="834" type="line"/>
      <point x="563" y="834" type="line"/>
      <point x="219" y="503" type="line"/>
      <point x="219" y="1224" type="line"/>
      <point x="101" y="1224" type="line"/>
      <point x="101" y="343" type="line"/>
      <point x="222" y="343" type="line"/>
      <point x="566" y="674" type="line"/>
      <point x="566" y="1" type="line"/>
    </contour>
    <contour>
      <point x="805" y="1190" type="line"/>
      <point x="805" y="1190" type="line"/>
      <point x="805" y="1286" type="line"/>
      <point x="-50" y="1286" type="line"/>
      <point x="-50" y="1190" type="line"/>
    </contour>
  </outline>
</glyph>
<glyph name="u09A7" format="2">
  <advance width="781"/>
  <unicode hex="09A7"/>
  <anchor x="832" y="-4" name="Anchor-1"/>
  <anchor x="903" y="83" name="Anchor-0"/>
  <outline>
    <contour>
      <point x="605" y="1372" type="line"/>
      <point x="605" y="1372" type="line"/>
      <point x="722" y="1372" type="line"/>
      <point x="722" y="1" type="line"/>
      <point x="605" y="1" type="line"/>
      <point x="228" y="305" type="line" smooth="yes"/>
      <point x="171" y="352"/>
      <point x="139" y="423" type="qcurve" smooth="yes"/>
      <point x="108" y="494"/>
      <point x="108" y="570" type="qcurve" smooth="yes"/>
      <point x="108" y="597" type="line" smooth="yes"/>
      <point x="108" y="686"/>
      <point x="150" y="765" type="qcurve" smooth="yes"/>
      <point x="190" y="833"/>
      <point x="243" y="870" type="qcurve"/>
      <point x="155" y="927"/>
      <point x="155" y="1027" type="qcurve" smooth="yes"/>
      <point x="155" y="1102" type="line" smooth="yes"/>
      <point x="155" y="1173"/>
      <point x="255" y="1274"/>
      <point x="325" y="1274" type="qcurve" smooth="yes"/>
      <point x="412" y="1274" type="line"/>
      <point x="412" y="1157" type="line"/>
      <point x="325" y="1157" type="line" smooth="yes"/>
      <point x="303" y="1157"/>
      <point x="273" y="1125"/>
      <point x="273" y="1102" type="qcurve" smooth="yes"/>
      <point x="273" y="1027" type="line" smooth="yes"/>
      <point x="273" y="1000"/>
      <point x="309" y="962"/>
      <point x="334" y="962" type="qcurve" smooth="yes"/>
      <point x="379" y="962" type="line"/>
      <point x="492" y="1025"/>
      <point x="605" y="1086" type="qcurve"/>
    </contour>
    <contour>
      <point x="303" y="396" type="qcurve"/>
      <point x="303" y="396" type="line"/>
      <point x="605" y="149" type="line"/>
      <point x="605" y="952" type="line"/>
      <point x="514" y="903"/>
      <point x="425" y="853" type="qcurve" smooth="yes"/>
      <point x="394" y="839"/>
      <point x="332" y="791" type="qcurve" smooth="yes"/>
      <point x="325" y="786" type="line" smooth="yes"/>
      <point x="277" y="751"/>
      <point x="253" y="710" type="qcurve" smooth="yes"/>
      <point x="226" y="657"/>
      <point x="226" y="597" type="qcurve" smooth="yes"/>
      <point x="226" y="570" type="line" smooth="yes"/>
      <point x="226" y="518"/>
      <point x="247" y="471" type="qcurve" smooth="yes"/>
      <point x="267" y="425"/>
    </contour>
    <contour>
      <point x="858" y="1190" type="line"/>
      <point x="640" y="1190" type="line"/>
      <point x="640" y="1286" type="line"/>
      <point x="858" y="1286" type="line"/>
      <point x="858" y="1190" type="line"/>
    </contour>
  </outline>
</glyph>
<glyph name="u09A8" format="2">
  <advance width="832"/>
  <unicode hex="09A8"/>
  <anchor x="860" y="-28" name="Anchor-1"/>
  <anchor x="956" y="83" name="Anchor-0"/>
  <outline>
    <contour>
      <point x="648" y="1286" type="line"/>
      <point x="648" y="1286" type="line"/>
      <point x="766" y="1286" type="line"/>
      <point x="766" y="1" type="line"/>
      <point x="648" y="1" type="line"/>
      <point x="648" y="1"/>
      <point x="515" y="305"/>
      <point x="482" y="418" type="qcurve" smooth="yes"/>
      <point x="457" y="516"/>
      <point x="422" y="618" type="qcurve"/>
      <point x="400" y="669"/>
      <point x="365" y="669" type="qcurve" smooth="yes"/>
      <point x="280" y="669" type="line" smooth="yes"/>
      <point x="254" y="669"/>
      <point x="216" y="613"/>
      <point x="216" y="574" type="qcurve" smooth="yes"/>
      <point x="216" y="384" type="line" smooth="yes"/>
      <point x="216" y="345"/>
      <point x="254" y="289"/>
      <point x="280" y="289" type="qcurve" smooth="yes"/>
      <point x="373" y="289" type="line"/>
      <point x="373" y="172" type="line"/>
      <point x="280" y="172" type="line" smooth="yes"/>
      <point x="205" y="172"/>
      <point x="98" y="296"/>
      <point x="98" y="384" type="qcurve" smooth="yes"/>
      <point x="98" y="574" type="line" smooth="yes"/>
      <point x="98" y="662"/>
      <point x="205" y="786"/>
      <point x="280" y="786" type="qcurve" smooth="yes"/>
      <point x="365" y="786" type="line" smooth="yes"/>
      <point x="419" y="786"/>
      <point x="510" y="717"/>
      <point x="532" y="658" type="qcurve" smooth="yes"/>
      <point x="570" y="549"/>
      <point x="595" y="448" type="qcurve" smooth="yes"/>
      <point x="618" y="356"/>
      <point x="648" y="267" type="qcurve"/>
    </contour>
    <contour>
      <point x="873" y="1190" type="line"/>
      <point x="-50" y="1190" type="line"/>
      <point x="-50" y="1286" type="line"/>
      <point x="873" y="1286" type="line"/>
      <point x="873" y="1190" type="line"/>
    </contour>
  </outline>
</glyph>
<glyph name="u09AA" format="2">
  <advance width="857"/>
  <unicode hex="09AA"/>
  <anchor x="892" y="116" name="Anchor-1"/>
  <anchor x="967" y="83" name="Anchor-0"/>
  <outline>
    <contour>
      <point x="659" y="1372" type="line"/>
      <point x="659" y="1372" type="line"/>
      <point x="776" y="1372" type="line"/>
      <point x="776" y="1" type="line"/>
      <point x="659" y="1" type="line"/>
      <point x="659" y="576" type="line"/>
      <point x="654" y="633"/>
      <point x="642" y="695" type="qcurve"/>
      <point x="215" y="352" type="line"/>
      <point x="141" y="443" type="line"/>
      <point x="322" y="589" type="line"/>
      <point x="98" y="839" type="line"/>
      <point x="98" y="1010" type="line" smooth="yes"/>
      <point x="98" y="1114"/>
      <point x="155" y="1171" type="qcurve" smooth="yes"/>
      <point x="204" y="1215"/>
      <point x="330" y="1233"/>
      <point x="389" y="1230" type="qcurve" smooth="yes"/>
      <point x="404" y="1229"/>
      <point x="418" y="1229" type="qcurve" smooth="yes"/>
      <point x="567" y="1229"/>
      <point x="659" y="963" type="qcurve"/>
    </contour>
    <contour>
      <point x="216" y="883" type="line"/>
      <point x="216" y="883" type="line"/>
      <point x="414" y="662" type="line"/>
      <point x="610" y="821" type="line"/>
      <point x="579" y="922"/>
      <point x="506" y="1051"/>
      <point x="439" y="1112"/>
      <point x="418" y="1112" type="qcurve" smooth="yes"/>
      <point x="403" y="1112"/>
      <point x="387" y="1112" type="qcurve" smooth="yes"/>
      <point x="343" y="1114"/>
      <point x="260" y="1107"/>
      <point x="238" y="1087" type="qcurve" smooth="yes"/>
      <point x="216" y="1065"/>
      <point x="216" y="1010" type="qcurve" smooth="yes"/>
    </contour>
    <contour>
      <point x="898" y="1190" type="line"/>
      <point x="680" y="1190" type="line"/>
      <point x="680" y="1286" type="line"/>
      <point x="898" y="1286" type="line"/>
      <point x="898" y="1190" type="line"/>
    </contour>
  </outline>
</glyph>
<glyph name="u09AB" format="2">
  <advance width="1035"/>
  <unicode hex="09AB"/>
  <anchor x="876" y="-32" name="Anchor-1"/>
  <anchor x="883" y="83" name="Anchor-0"/>
  <outline>
    <contour>
      <point x="992" y="727" type="qcurve"/>
      <point x="992" y="727" type="line"/>
      <point x="993" y="718"/>
      <point x="993" y="709" type="qcurve" smooth="yes"/>
      <point x="993" y="581" type="line" smooth="yes"/>
      <point x="993" y="435"/>
      <point x="901" y="316" type="qcurve" smooth="yes"/>
      <point x="842" y="242" type="line"/>
      <point x="750" y="316" type="line"/>
      <point x="809" y="389" type="line" smooth="yes"/>
      <point x="875" y="475"/>
      <point x="875" y="581" type="qcurve" smooth="yes"/>
      <point x="875" y="709" type="line" smooth="yes"/>
      <point x="875" y="715"/>
      <point x="875" y="720" type="qcurve" smooth="yes"/>
      <point x="870" y="788"/>
      <point x="773" y="877"/>
      <point x="702" y="878" type="qcurve" smooth="yes"/>
      <point x="696" y="878" type="line"/>
      <point x="696" y="1" type="line"/>
      <point x="585" y="1" type="line"/>
      <point x="215" y="265" type="line" smooth="yes"/>
      <point x="159" y="307"/>
      <point x="126" y="371" type="qcurve" smooth="yes"/>
      <point x="94" y="436"/>
      <point x="94" y="506" type="qcurve" smooth="yes"/>
      <point x="94" y="529" type="line" smooth="yes"/>
      <point x="94" y="610"/>
      <point x="137" y="682" type="qcurve" smooth="yes"/>
      <point x="180" y="753"/>
      <point x="252" y="791" type="qcurve" smooth="yes"/>
      <point x="295" y="814" type="line"/>
      <point x="295" y="909" type="line" smooth="yes"/>
      <point x="295" y="974"/>
      <point x="220" y="1066"/>
      <point x="168" y="1066" type="qcurve"/>
      <point x="168" y="1183" type="line"/>
      <point x="269" y="1183"/>
      <point x="412" y="1022"/>
      <point x="412" y="909" type="qcurve" smooth="yes"/>
      <point x="412" y="749" type="line"/>
      <point x="412" y="742" type="line"/>
      <point x="306" y="687" type="line" smooth="yes"/>
      <point x="263" y="665"/>
      <point x="238" y="622" type="qcurve" smooth="yes"/>
      <point x="212" y="578"/>
      <point x="212" y="529" type="qcurve" smooth="yes"/>
      <point x="212" y="506" type="line" smooth="yes"/>
      <point x="212" y="463"/>
      <point x="231" y="424" type="qcurve" smooth="yes"/>
      <point x="251" y="385"/>
      <point x="285" y="360" type="qcurve" smooth="yes"/>
      <point x="578" y="146" type="line"/>
      <point x="578" y="995" type="line"/>
      <point x="702" y="995" type="line"/>
      <point x="702" y="995"/>
      <point x="703" y="995" type="qcurve" smooth="yes"/>
      <point x="818" y="995"/>
      <point x="983" y="842"/>
    </contour>
    <contour>
      <point x="1075" y="1190" type="line"/>
      <point x="1075" y="1190" type="line"/>
      <point x="1075" y="1286" type="line"/>
      <point x="-50" y="1286" type="line"/>
      <point x="-50" y="1190" type="line"/>
    </contour>
  </outline>
</glyph>
<glyph name="u09AC" format="2">
  <advance width="773"/>
  <unicode hex="09AC"/>
  <anchor x="796" y="8" name="Anchor-1"/>
  <anchor x="912" y="83" name="Anchor-0"/>
  <outline>
    <contour>
      <point x="605" y="1286" type="line"/>
      <point x="605" y="1286" type="line"/>
      <point x="722" y="1286" type="line"/>
      <point x="722" y="1" type="line"/>
      <point x="605" y="1" type="line"/>
      <point x="221" y="305" type="line" smooth="yes"/>
      <point x="163" y="352"/>
      <point x="130" y="422" type="qcurve" smooth="yes"/>
      <point x="98" y="493"/>
      <point x="98" y="570" type="qcurve" smooth="yes"/>
      <point x="98" y="597" type="line" smooth="yes"/>
      <point x="98" y="686"/>
      <point x="140" y="766" type="qcurve" smooth="yes"/>
      <point x="162" y="804"/>
      <point x="216" y="856"/>
      <point x="244" y="877" type="qcurve" smooth="yes"/>
      <point x="251" y="883" type="line"/>
      <point x="327" y="939"/>
      <point x="363" y="956" type="qcurve" smooth="yes"/>
      <point x="483" y="1022"/>
      <point x="605" y="1086" type="qcurve"/>
    </contour>
    <contour>
      <point x="294" y="396" type="qcurve"/>
      <point x="294" y="396" type="line"/>
      <point x="605" y="148" type="line"/>
      <point x="605" y="953" type="line"/>
      <point x="511" y="904"/>
      <point x="419" y="853" type="qcurve" smooth="yes"/>
      <point x="388" y="838"/>
      <point x="324" y="791" type="qcurve"/>
      <point x="317" y="785" type="line"/>
      <point x="268" y="751"/>
      <point x="243" y="709" type="qcurve" smooth="yes"/>
      <point x="215" y="657"/>
      <point x="215" y="597" type="qcurve" smooth="yes"/>
      <point x="215" y="570" type="line" smooth="yes"/>
      <point x="215" y="519"/>
      <point x="236" y="471" type="qcurve" smooth="yes"/>
      <point x="258" y="426"/>
    </contour>
    <contour>
      <point x="805" y="1190" type="line"/>
      <point x="-50" y="1190" type="line"/>
      <point x="-50" y="1286" type="line"/>
      <point x="805" y="1286" type="line"/>
      <point x="805" y="1190" type="line"/>
    </contour>
  </outline>
</glyph>
<glyph name="u09AD" format="2">
  <advance width="942"/>
  <unicode hex="09AD"/>
  <anchor x="908" y="-28" name="Anchor-1"/>
  <anchor x="836" y="99" name="Anchor-0"/>
  <outline>
    <contour>
      <point x="908" y="681" type="line"/>
      <point x="908" y="681" type="line"/>
      <point x="908" y="502"/>
      <point x="903" y="405" type="qcurve"/>
      <point x="901" y="55"/>
      <point x="521" y="55" type="qcurve" smooth="yes"/>
      <point x="454" y="55"/>
      <point x="309" y="79"/>
      <point x="184" y="155"/>
      <point x="106" y="307"/>
      <point x="106" y="435" type="qcurve" smooth="yes"/>
      <point x="106" y="764" type="line"/>
      <point x="223" y="764" type="line"/>
      <point x="223" y="435" type="line" smooth="yes"/>
      <point x="223" y="325"/>
      <point x="294" y="212"/>
      <point x="427" y="172"/>
      <point x="521" y="172" type="qcurve" smooth="yes"/>
      <point x="664" y="172"/>
      <point x="786" y="280"/>
      <point x="786" y="406" type="qcurve" smooth="yes"/>
      <point x="786" y="408" type="line" smooth="yes"/>
      <point x="786" y="412"/>
      <point x="789" y="510"/>
      <point x="791" y="572" type="qcurve"/>
      <point x="734" y="539"/>
      <point x="652" y="535" type="qcurve"/>
      <point x="651" y="535" type="line"/>
      <point x="649" y="535" type="line" smooth="yes"/>
      <point x="519" y="535"/>
      <point x="458" y="597" type="qcurve" smooth="yes"/>
      <point x="419" y="639"/>
      <point x="402" y="732"/>
      <point x="404" y="765" type="qcurve" smooth="yes"/>
      <point x="404" y="773" type="line"/>
      <point x="404" y="976" type="line" smooth="yes"/>
      <point x="404" y="1037"/>
      <point x="491" y="1123"/>
      <point x="551" y="1123" type="qcurve" smooth="yes"/>
      <point x="633" y="1123" type="line" smooth="yes"/>
      <point x="685" y="1123"/>
      <point x="760" y="1048"/>
      <point x="760" y="996" type="qcurve" smooth="yes"/>
      <point x="760" y="872" type="line"/>
      <point x="642" y="872" type="line"/>
      <point x="642" y="996" type="line" smooth="yes"/>
      <point x="642" y="1004"/>
      <point x="633" y="1005" type="qcurve" smooth="yes"/>
      <point x="551" y="1005" type="line" smooth="yes"/>
      <point x="527" y="1005"/>
      <point x="522" y="976" type="qcurve"/>
      <point x="522" y="764" type="line" smooth="yes"/>
      <point x="521" y="741"/>
      <point x="527" y="695"/>
      <point x="541" y="680" type="qcurve" smooth="yes"/>
      <point x="569" y="653"/>
      <point x="648" y="652" type="qcurve"/>
      <point x="715" y="657"/>
      <point x="780" y="700"/>
      <point x="789" y="730" type="qcurve"/>
      <point x="786" y="812" type="line"/>
      <point x="903" y="816" type="line"/>
    </contour>
    <contour>
      <point x="1009" y="1190" type="line"/>
      <point x="1009" y="1190" type="line"/>
      <point x="1009" y="1286" type="line"/>
      <point x="-50" y="1286" type="line"/>
      <point x="-50" y="1190" type="line"/>
    </contour>
  </outline>
</glyph>
<glyph name="u09AE" format="2">
  <advance width="805"/>
  <unicode hex="09AE"/>
  <anchor x="864" y="-84" name="Anchor-1"/>
  <anchor x="950" y="70" name="Anchor-0"/>
  <outline>
    <contour>
      <point x="654" y="1286" type="line"/>
      <point x="654" y="1286" type="line"/>
      <point x="771" y="1286" type="line"/>
      <point x="771" y="1" type="line"/>
      <point x="643" y="1" type="line"/>
      <point x="643" y="1"/>
      <point x="599" y="86"/>
      <point x="529" y="255"/>
      <point x="487" y="380" type="qcurve"/>
      <point x="463" y="469"/>
      <point x="428" y="560" type="qcurve"/>
      <point x="406" y="605"/>
      <point x="370" y="605" type="qcurve" smooth="yes"/>
      <point x="286" y="605" type="line" smooth="yes"/>
      <point x="259" y="605"/>
      <point x="221" y="558"/>
      <point x="221" y="525" type="qcurve" smooth="yes"/>
      <point x="221" y="352" type="line" smooth="yes"/>
      <point x="221" y="319"/>
      <point x="259" y="272"/>
      <point x="286" y="272" type="qcurve" smooth="yes"/>
      <point x="378" y="272" type="line"/>
      <point x="378" y="154" type="line"/>
      <point x="286" y="154" type="line" smooth="yes"/>
      <point x="211" y="154"/>
      <point x="104" y="270"/>
      <point x="104" y="352" type="qcurve" smooth="yes"/>
      <point x="104" y="525" type="line" smooth="yes"/>
      <point x="104" y="606"/>
      <point x="211" y="722"/>
      <point x="286" y="722" type="qcurve" smooth="yes"/>
      <point x="333" y="722" type="line"/>
      <point x="333" y="872" type="line" smooth="yes"/>
      <point x="333" y="952"/>
      <point x="249" y="1066"/>
      <point x="189" y="1066" type="qcurve"/>
      <point x="189" y="1183" type="line"/>
      <point x="297" y="1183"/>
      <point x="451" y="1001"/>
      <point x="451" y="872" type="qcurve" smooth="yes"/>
      <point x="451" y="702" type="line"/>
      <point x="509" y="670"/>
      <point x="537" y="604" type="qcurve" smooth="yes"/>
      <point x="575" y="505"/>
      <point x="600" y="413" type="qcurve" smooth="yes"/>
      <point x="623" y="329"/>
      <point x="654" y="248" type="qcurve"/>
    </contour>
    <contour>
      <point x="852" y="1190" type="line"/>
      <point x="-50" y="1190" type="line"/>
      <point x="-50" y="1286" type="line"/>
      <point x="852" y="1286" type="line"/>
      <point x="852" y="1190" type="line"/>
    </contour>
  </outline>
</glyph>
<glyph name="u09AF" format="2">
  <advance width="776"/>
  <unicode hex="09AF"/>
  <anchor x="856" y="-36" name="Anchor-1"/>
  <anchor x="923" y="83" name="Anchor-0"/>
  <outline>
    <contour>
      <point x="740" y="1286" type="line"/>
      <point x="740" y="1286" type="line"/>
      <point x="740" y="1" type="line"/>
      <point x="630" y="1" type="line"/>
      <point x="234" y="264" type="line" smooth="yes"/>
      <point x="173" y="306"/>
      <point x="139" y="369" type="qcurve" smooth="yes"/>
      <point x="104" y="435"/>
      <point x="104" y="506" type="qcurve" smooth="yes"/>
      <point x="104" y="529" type="line" smooth="yes"/>
      <point x="104" y="611"/>
      <point x="150" y="684" type="qcurve" smooth="yes"/>
      <point x="196" y="754"/>
      <point x="272" y="792" type="qcurve" smooth="yes"/>
      <point x="319" y="815" type="line"/>
      <point x="319" y="909" type="line" smooth="yes"/>
      <point x="319" y="974"/>
      <point x="236" y="1066"/>
      <point x="178" y="1066" type="qcurve"/>
      <point x="178" y="1183" type="line"/>
      <point x="285" y="1183"/>
      <point x="436" y="1022"/>
      <point x="436" y="909" type="qcurve" smooth="yes"/>
      <point x="436" y="749" type="line"/>
      <point x="436" y="749" type="line"/>
      <point x="322" y="691" type="line" smooth="yes"/>
      <point x="276" y="666"/>
      <point x="249" y="621" type="qcurve" smooth="yes"/>
      <point x="222" y="577"/>
      <point x="222" y="529" type="qcurve" smooth="yes"/>
      <point x="222" y="506" type="line" smooth="yes"/>
      <point x="222" y="464"/>
      <point x="242" y="425" type="qcurve" smooth="yes"/>
      <point x="263" y="387"/>
      <point x="300" y="361" type="qcurve" smooth="yes"/>
      <point x="622" y="142" type="line"/>
      <point x="622" y="1286" type="line"/>
    </contour>
    <contour>
      <point x="818" y="1190" type="line"/>
      <point x="-50" y="1190" type="line"/>
      <point x="-50" y="1286" type="line"/>
      <point x="818" y="1286" type="line"/>
      <point x="818" y="1190" type="line"/>
    </contour>
  </outline>
</glyph>
